<svg width="40" height="40" viewBox="0 0 40 40" fill="none" xmlns="http://www.w3.org/2000/svg">
<path d="M26.9565 26.087H13.0435C12.1213 26.0879 11.2371 26.4547 10.5851 27.1068C9.93297 27.7589 9.5662 28.643 9.56522 29.5652V33.0435C9.5662 33.9657 9.93297 34.8498 10.5851 35.5019C11.2371 36.154 12.1213 36.5208 13.0435 36.5217H26.9565C27.8787 36.5208 28.7628 36.154 29.4149 35.5019C30.067 34.8498 30.4338 33.9657 30.4348 33.0435V29.5652C30.4338 28.643 30.067 27.7589 29.4149 27.1068C28.7628 26.4547 27.8787 26.0879 26.9565 26.087ZM28.6957 33.0435C28.6951 33.5046 28.5117 33.9466 28.1857 34.2726C27.8597 34.5987 27.4176 34.7821 26.9565 34.7826H13.0435C12.5824 34.7821 12.1403 34.5987 11.8143 34.2726C11.4883 33.9466 11.3049 33.5046 11.3043 33.0435V29.5652C11.3049 29.1041 11.4883 28.6621 11.8143 28.336C12.1403 28.01 12.5824 27.8266 13.0435 27.8261H26.9565C27.4176 27.8266 27.8597 28.01 28.1857 28.336C28.5117 28.6621 28.6951 29.1041 28.6957 29.5652V33.0435ZM4.34783 37.3913H5.21652C5.23357 37.3913 5.24773 37.3825 5.26456 37.3816C5.45804 38.1274 5.89248 38.7885 6.50036 39.262C7.10823 39.7355 7.8555 39.9949 8.62602 40H31.374C32.1444 39.9949 32.8917 39.7355 33.4995 39.2621C34.1074 38.7887 34.5418 38.1277 34.7354 37.3819C34.7516 37.3828 34.7653 37.3913 34.7818 37.3913H35.6522C36.8049 37.3899 37.91 36.9314 38.7251 36.1164C39.5401 35.3013 39.9986 34.1962 40 33.0435V25.2174C39.9986 24.0647 39.5401 22.9596 38.7251 22.1445C37.91 21.3294 36.8049 20.8709 35.6522 20.8696H34.7222C34.4845 15.8922 33.9966 11.2862 33.0709 8.62956C33.1896 8.0017 33.1683 7.35538 33.0086 6.73668C32.8489 6.11798 32.5546 5.54213 32.1468 5.05018C31.7391 4.55823 31.2278 4.16229 30.6494 3.89058C30.0711 3.61888 29.4399 3.47809 28.8009 3.47826H26.087V2.6087C26.0862 1.91706 25.8111 1.25396 25.3221 0.764903C24.833 0.275841 24.1699 0.000754953 23.4783 0H16.5217C15.8301 0.000754953 15.167 0.275841 14.6779 0.764903C14.1889 1.25396 13.9138 1.91706 13.913 2.6087V3.47826H11.1991C10.5604 3.47807 9.92964 3.61868 9.35157 3.89008C8.7735 4.16148 8.26237 4.557 7.85459 5.04846C7.44681 5.53992 7.15239 6.11525 6.99231 6.73347C6.83223 7.35169 6.81043 7.99761 6.92844 8.62522C6.00174 11.2833 5.51381 15.8909 5.27641 20.8696H4.34783C3.19513 20.8709 2.09003 21.3294 1.27494 22.1445C0.459861 22.9596 0.00135319 24.0647 0 25.2174V33.0435C0.00135319 34.1962 0.459861 35.3013 1.27494 36.1164C2.09003 36.9314 3.19513 37.3899 4.34783 37.3913ZM33.1123 36.565C33.1047 37.0198 32.9178 37.4532 32.5922 37.7708C32.2666 38.0884 31.8288 38.2645 31.374 38.2609H8.62602C8.17114 38.2645 7.73325 38.0883 7.40768 37.7706C7.08211 37.4529 6.89524 37.0195 6.88776 36.5646C6.77137 31.2251 6.67483 19.6888 7.75334 12.7653L8.29316 15.4645C8.45228 16.2522 8.87862 16.9608 9.50005 17.4704C10.1215 17.9799 10.8998 18.2592 11.7035 18.2609H12.1739V20.8696C12.1739 21.1002 12.2655 21.3214 12.4286 21.4844C12.5917 21.6475 12.8129 21.7391 13.0435 21.7391C13.2741 21.7391 13.4953 21.6475 13.6584 21.4844C13.8214 21.3214 13.913 21.1002 13.913 20.8696V18.2609H26.087V20.8696C26.087 21.1002 26.1786 21.3214 26.3416 21.4844C26.5047 21.6475 26.7259 21.7391 26.9565 21.7391C27.1871 21.7391 27.4083 21.6475 27.5714 21.4844C27.7345 21.3214 27.8261 21.1002 27.8261 20.8696V18.2609H28.2965C29.1001 18.2592 29.8784 17.98 30.4998 17.4705C31.1213 16.961 31.5476 16.2526 31.7068 15.4649L32.2457 12.7705C33.3232 19.6928 33.2279 31.2259 33.1123 36.565ZM35.6522 22.6087C36.3438 22.6094 37.0069 22.8845 37.496 23.3736C37.985 23.8627 38.2601 24.5258 38.2609 25.2174V33.0435C38.2601 33.7351 37.985 34.3982 37.496 34.8873C37.0069 35.3763 36.3438 35.6514 35.6522 35.6522H34.8703C34.9391 31.9558 34.9618 27.2078 34.7953 22.6087H35.6522ZM15.6522 2.6087C15.6524 2.37814 15.7441 2.1571 15.9071 1.99407C16.0701 1.83105 16.2912 1.73936 16.5217 1.73913H23.4783C23.7088 1.73936 23.9299 1.83105 24.0929 1.99407C24.2559 2.1571 24.3476 2.37814 24.3478 2.6087V3.47826H15.6522V2.6087ZM9.18223 6.1723C9.42639 5.87334 9.73407 5.63253 10.0829 5.46735C10.4318 5.30218 10.8131 5.21679 11.1991 5.21739H28.8009C29.1869 5.21753 29.5679 5.30326 29.9167 5.46843C30.2655 5.63359 30.5733 5.87406 30.8179 6.17251C31.0626 6.47097 31.238 6.81998 31.3315 7.19439C31.425 7.5688 31.4343 7.95929 31.3587 8.33772L30.0017 15.124C29.922 15.5177 29.7088 15.8719 29.3981 16.1266C29.0874 16.3813 28.6983 16.5208 28.2965 16.5217H27.8261V14.7826C27.8261 14.552 27.7345 14.3308 27.5714 14.1677C27.4083 14.0047 27.1871 13.913 26.9565 13.913C26.7259 13.913 26.5047 14.0047 26.3416 14.1677C26.1786 14.3308 26.087 14.552 26.087 14.7826V16.5217H13.913V14.7826C13.913 14.552 13.8214 14.3308 13.6584 14.1677C13.4953 14.0047 13.2741 13.913 13.0435 13.913C12.8129 13.913 12.5917 14.0047 12.4286 14.1677C12.2655 14.3308 12.1739 14.552 12.1739 14.7826V16.5217H11.7035C11.3017 16.5208 10.9125 16.3812 10.6018 16.1264C10.2911 15.8716 10.0779 15.5174 9.99832 15.1236L8.6413 8.33772C8.565 7.95926 8.57396 7.56856 8.66753 7.194C8.7611 6.81943 8.93692 6.47041 9.18223 6.1723ZM1.73913 25.2174C1.73989 24.5258 2.01497 23.8627 2.50403 23.3736C2.9931 22.8845 3.65619 22.6094 4.34783 22.6087H5.20333C5.03715 27.2081 5.06035 31.956 5.12957 35.6522H4.34783C3.65619 35.6514 2.9931 35.3763 2.50403 34.8873C2.01497 34.3982 1.73989 33.7351 1.73913 33.0435V25.2174Z" fill="white"/>
</svg>
