<svg width="40" height="34" viewBox="0 0 40 34" fill="none" xmlns="http://www.w3.org/2000/svg">
<path d="M8.19089 25.0086C7.98093 24.9134 7.73465 24.9497 7.561 25.1017L6.51456 26.0181C6.27042 26.2318 6.2457 26.6029 6.45963 26.847C6.67325 27.0911 7.04434 27.1159 7.28848 26.9019L7.36081 26.8385V27.0475C7.36081 27.9786 6.60337 28.736 5.67228 28.736C4.74119 28.736 3.98344 27.9786 3.98344 27.0475V20.3846C5.66496 19.9733 6.79227 17.8428 6.79227 15.9095C6.79227 14.1435 5.64176 12.8129 3.98344 12.5584V1.33746C3.98344 1.01306 3.72069 0.75 3.39629 0.75C3.07189 0.75 2.80883 1.01306 2.80883 1.33746V12.5584C1.15051 12.8129 0 14.1435 0 15.9095C0 17.8428 1.12731 19.9736 2.80883 20.3846V27.0475C2.80883 28.6262 4.09331 29.9107 5.67197 29.9107C7.25095 29.9107 8.53543 28.6262 8.53543 27.0475V25.5436C8.53543 25.3132 8.40085 25.1038 8.19089 25.0086ZM3.39598 13.6882C4.50194 13.6882 5.61735 14.3751 5.61735 15.9095C5.61735 15.9535 5.61613 15.9971 5.61491 16.0408C5.14189 16.1744 4.364 16.3383 3.39781 16.3383C2.42949 16.3383 1.65069 16.1738 1.17736 16.0399C1.17584 15.9965 1.17492 15.9532 1.17492 15.9095C1.17492 14.3751 2.29064 13.6882 3.39598 13.6882ZM1.40502 17.3051C2.04131 17.4394 2.7307 17.5132 3.39781 17.5132C4.0637 17.5132 4.75157 17.4397 5.38694 17.3057C5.00975 18.4303 4.21904 19.282 3.39629 19.282C2.57293 19.282 1.78222 18.43 1.40502 17.3051Z" fill="white"/>
<path d="M37.4419 20.7414C37.4419 17.635 39.8372 14.7578 39.861 14.7295C40.0197 14.5424 40.0451 14.2763 39.9248 14.0624C39.8046 13.8484 39.5644 13.7315 39.3218 13.77C36.2157 14.2571 34.2269 15.9132 33.0242 17.4193C32.1252 16.389 30.9371 15.2327 29.4653 14.222C29.1625 11.0158 27.3348 8.96594 27.2549 8.87805C27.1484 8.76056 26.9988 8.69128 26.8408 8.68549C20.7309 8.46698 17.4322 11.4501 16.7697 12.1218C13.6697 12.9595 11.5387 14.5992 10.1779 16.0435C8.09083 18.2591 7.33186 20.4613 7.30043 20.554C7.25923 20.6758 7.25923 20.8079 7.30043 20.9297C7.33186 21.0225 8.09083 23.2243 10.1779 25.4402C11.6922 27.0475 14.1598 28.8972 17.8561 29.6137C18.4115 30.4304 20.5206 33.05 24.866 33.3238C24.8782 33.3247 24.8904 33.325 24.9029 33.325C25.0717 33.325 25.2331 33.2523 25.3451 33.1242C25.465 32.9868 25.5145 32.8016 25.4788 32.6228L24.8416 29.4285C26.2191 29.0556 27.5527 28.4724 28.8308 27.6777C30.3484 26.7341 31.7565 25.5204 33.0248 24.0645C34.2275 25.5702 36.2163 27.2258 39.3221 27.7131C39.5644 27.7513 39.8049 27.6344 39.9251 27.4205C40.0454 27.2068 40.0197 26.9407 39.8613 26.7533C39.8369 26.7247 37.4419 23.8588 37.4419 20.7414ZM24.1711 32.0728C21.8847 31.7469 20.411 30.6822 19.5807 29.8536C20.0818 29.8966 20.6018 29.9201 21.1419 29.9201C22.0065 29.9201 22.8582 29.8423 23.6956 29.6894L24.1711 32.0728ZM33.5366 22.7846C33.3178 22.4669 32.8396 22.4479 32.5967 22.7479C31.2887 24.3605 29.8129 25.6837 28.2104 26.6798C26.0061 28.0503 23.6279 28.7452 21.1419 28.7452C18.883 28.7452 16.8445 28.332 15.0397 27.5138C15.3781 26.8635 15.6677 26.1689 15.9021 25.4408C16.0013 25.1323 15.8316 24.8011 15.5227 24.702C15.2142 24.6022 14.8831 24.7722 14.7839 25.081C14.5685 25.7496 14.303 26.3856 13.9932 26.9801C12.9239 26.3679 11.9473 25.598 11.0675 24.6711C9.47785 22.9963 8.70973 21.2971 8.48542 20.7417C8.71003 20.1854 9.47816 18.4868 11.0675 16.8123C11.947 15.8858 12.9233 15.1161 13.9923 14.5042C14.9328 16.3115 15.4477 18.5026 15.4477 20.7417C15.4477 21.4641 15.3952 22.1855 15.292 22.8868C15.246 23.1993 15.4651 23.4999 15.7767 23.5515C16.0965 23.6049 16.4068 23.3787 16.4541 23.058C16.5658 22.3002 16.6223 21.5208 16.6223 20.7417C16.6223 18.2826 16.0757 15.9563 15.039 13.9699C16.8438 13.1514 18.8827 12.7379 21.1419 12.7379C21.95 12.7379 22.7566 12.8124 23.5388 12.9588C23.8571 13.0184 24.1644 12.8084 24.2242 12.4895C24.284 12.1706 24.0737 11.8639 23.7551 11.8041C22.9016 11.6442 22.0224 11.5633 21.1419 11.5633C20.5023 11.5633 19.8919 11.5965 19.3069 11.6564C20.7846 10.7674 23.1869 9.78595 26.535 9.85217C26.8902 10.3121 27.7752 11.5981 28.1548 13.409C27.5149 13.0531 26.8322 12.7306 26.1056 12.4593C25.8013 12.3454 25.4632 12.4999 25.3497 12.8038C25.2361 13.1078 25.3906 13.4462 25.6942 13.5597C28.9013 14.7578 31.2179 17.0354 32.5963 18.7352C32.8396 19.0346 33.3175 19.0163 33.5363 18.6986C34.3667 17.4937 35.7827 16.0255 38.0327 15.2834C37.2524 16.5379 36.267 18.5548 36.267 20.7411C36.267 22.9277 37.2524 24.9446 38.0327 26.1992C35.7827 25.4573 34.3667 23.9891 33.5366 22.7846Z" fill="white"/>
<path d="M10.7742 11.0546C11.9122 11.0546 12.8378 10.129 12.8378 8.99132C12.8378 7.85333 11.9122 6.92773 10.7742 6.92773C9.63653 6.92773 8.71094 7.85333 8.71094 8.99132C8.71094 10.129 9.63653 11.0546 10.7742 11.0546ZM10.7742 8.10266C11.2643 8.10266 11.6629 8.50121 11.6629 8.99132C11.6629 9.48113 11.2643 9.87999 10.7742 9.87999C10.2844 9.87999 9.88555 9.48144 9.88555 8.99132C9.88555 8.50121 10.2844 8.10266 10.7742 8.10266Z" fill="white"/>
<path d="M17.78 6.6013C19.3114 6.6013 20.5571 5.35557 20.5571 3.82421C20.5571 2.29284 19.3114 1.04712 17.78 1.04712C17.4556 1.04712 17.1929 1.31018 17.1929 1.63458C17.1929 1.95898 17.4556 2.22204 17.78 2.22204C18.6635 2.22204 19.3825 2.94073 19.3825 3.82421C19.3825 4.70769 18.6635 5.42637 17.78 5.42637C16.8965 5.42637 16.1779 4.70769 16.1779 3.82421C16.1779 3.58678 16.2285 3.35882 16.328 3.14611C16.4653 2.85223 16.3387 2.5025 16.0448 2.36517C15.7512 2.22753 15.4015 2.35418 15.2639 2.64806C15.0908 3.01763 15.0029 3.41344 15.0029 3.82421C15.0032 5.35557 16.249 6.6013 17.78 6.6013Z" fill="white"/>
<path d="M13.2729 20.7417C13.2729 21.3072 12.8143 21.7659 12.2488 21.7659C11.6833 21.7659 11.2246 21.3072 11.2246 20.7417C11.2246 20.1759 11.6833 19.7175 12.2488 19.7175C12.8143 19.7175 13.2729 20.1759 13.2729 20.7417Z" fill="white"/>
</svg>
