<svg width="40" height="40" viewBox="0 0 40 40" fill="none" xmlns="http://www.w3.org/2000/svg">
<g clip-path="url(#clip0_1_8420)">
<path d="M36.6667 4H33.3333V2.66667C33.3333 1.95942 33.0524 1.28115 32.5523 0.781048C32.0522 0.280952 31.3739 0 30.6667 0C29.9594 0 29.2811 0.280952 28.781 0.781048C28.281 1.28115 28 1.95942 28 2.66667V4H22.6667V2.66667C22.6667 1.95942 22.3857 1.28115 21.8856 0.781048C21.3855 0.280952 20.7072 0 20 0C19.2928 0 18.6145 0.280952 18.1144 0.781048C17.6143 1.28115 17.3333 1.95942 17.3333 2.66667V4H12V2.66667C12 1.95942 11.719 1.28115 11.219 0.781048C10.7189 0.280952 10.0406 0 9.33333 0C8.62609 0 7.94781 0.280952 7.44771 0.781048C6.94762 1.28115 6.66667 1.95942 6.66667 2.66667V4H3.33333C2.44928 4 1.60143 4.35119 0.976311 4.97631C0.351189 5.60143 0 6.44928 0 7.33333V34C0 34.884 0.351189 35.7319 0.976311 36.357C1.60143 36.9821 2.44928 37.3333 3.33333 37.3333H22C22.1768 37.3333 22.3464 37.2631 22.4714 37.1381C22.5964 37.013 22.6667 36.8435 22.6667 36.6667C22.6667 36.4898 22.5964 36.3203 22.4714 36.1953C22.3464 36.0702 22.1768 36 22 36H3.33333C2.80339 35.9984 2.2956 35.7872 1.92087 35.4125C1.54614 35.0377 1.33492 34.5299 1.33333 34V13.3333H38.6667V24.6667C38.6667 24.8435 38.7369 25.013 38.8619 25.1381C38.9869 25.2631 39.1565 25.3333 39.3333 25.3333C39.5101 25.3333 39.6797 25.2631 39.8047 25.1381C39.9298 25.013 40 24.8435 40 24.6667V7.33333C40 6.44928 39.6488 5.60143 39.0237 4.97631C38.3986 4.35119 37.5507 4 36.6667 4ZM29.3333 2.66667C29.3333 2.31304 29.4738 1.97391 29.7239 1.72386C29.9739 1.47381 30.313 1.33333 30.6667 1.33333C31.0203 1.33333 31.3594 1.47381 31.6095 1.72386C31.8595 1.97391 32 2.31304 32 2.66667V6.66667C32 7.02029 31.8595 7.35943 31.6095 7.60947C31.3594 7.85952 31.0203 8 30.6667 8C30.313 8 29.9739 7.85952 29.7239 7.60947C29.4738 7.35943 29.3333 7.02029 29.3333 6.66667V2.66667ZM18.6667 2.66667C18.6667 2.31304 18.8071 1.97391 19.0572 1.72386C19.3072 1.47381 19.6464 1.33333 20 1.33333C20.3536 1.33333 20.6928 1.47381 20.9428 1.72386C21.1929 1.97391 21.3333 2.31304 21.3333 2.66667V6.66667C21.3333 7.02029 21.1929 7.35943 20.9428 7.60947C20.6928 7.85952 20.3536 8 20 8C19.6464 8 19.3072 7.85952 19.0572 7.60947C18.8071 7.35943 18.6667 7.02029 18.6667 6.66667V2.66667ZM8 2.66667C8 2.31304 8.14048 1.97391 8.39052 1.72386C8.64057 1.47381 8.97971 1.33333 9.33333 1.33333C9.68695 1.33333 10.0261 1.47381 10.2761 1.72386C10.5262 1.97391 10.6667 2.31304 10.6667 2.66667V6.66667C10.6667 7.02029 10.5262 7.35943 10.2761 7.60947C10.0261 7.85952 9.68695 8 9.33333 8C8.97971 8 8.64057 7.85952 8.39052 7.60947C8.14048 7.35943 8 7.02029 8 6.66667V2.66667ZM38.6667 12H1.33333V7.33333C1.33492 6.80339 1.54614 6.2956 1.92087 5.92087C2.2956 5.54614 2.80339 5.33492 3.33333 5.33333H6.66667V6.66667C6.66667 7.37391 6.94762 8.05219 7.44771 8.55228C7.94781 9.05238 8.62609 9.33333 9.33333 9.33333C10.0406 9.33333 10.7189 9.05238 11.219 8.55228C11.719 8.05219 12 7.37391 12 6.66667V5.33333H17.3333V6.66667C17.3333 7.37391 17.6143 8.05219 18.1144 8.55228C18.6145 9.05238 19.2928 9.33333 20 9.33333C20.7072 9.33333 21.3855 9.05238 21.8856 8.55228C22.3857 8.05219 22.6667 7.37391 22.6667 6.66667V5.33333H28V6.66667C28 7.37391 28.281 8.05219 28.781 8.55228C29.2811 9.05238 29.9594 9.33333 30.6667 9.33333C31.3739 9.33333 32.0522 9.05238 32.5523 8.55228C33.0524 8.05219 33.3333 7.37391 33.3333 6.66667V5.33333H36.6667C37.1966 5.33492 37.7044 5.54614 38.0791 5.92087C38.4539 6.2956 38.6651 6.80339 38.6667 7.33333V12Z" fill="white"/>
<path d="M18.6663 17.9998C18.6663 17.6462 18.5259 17.3071 18.2758 17.057C18.0258 16.807 17.6866 16.6665 17.333 16.6665H14.6663C14.3127 16.6665 13.9736 16.807 13.7235 17.057C13.4735 17.3071 13.333 17.6462 13.333 17.9998V19.9998C13.333 20.3535 13.4735 20.6926 13.7235 20.9426C13.9736 21.1927 14.3127 21.3332 14.6663 21.3332H17.333C17.6866 21.3332 18.0258 21.1927 18.2758 20.9426C18.5259 20.6926 18.6663 20.3535 18.6663 19.9998V17.9998ZM14.6663 19.9998V17.9998H17.333V19.9998H14.6663Z" fill="white"/>
<path d="M10.6663 17.9998C10.6663 17.6462 10.5259 17.3071 10.2758 17.057C10.0258 16.807 9.68663 16.6665 9.33301 16.6665H6.66634C6.31272 16.6665 5.97358 16.807 5.72353 17.057C5.47348 17.3071 5.33301 17.6462 5.33301 17.9998V19.9998C5.33301 20.3535 5.47348 20.6926 5.72353 20.9426C5.97358 21.1927 6.31272 21.3332 6.66634 21.3332H9.33301C9.68663 21.3332 10.0258 21.1927 10.2758 20.9426C10.5259 20.6926 10.6663 20.3535 10.6663 19.9998V17.9998ZM6.66634 19.9998V17.9998H9.33301V19.9998H6.66634Z" fill="white"/>
<path d="M33.333 21.3332C33.6866 21.3332 34.0258 21.1927 34.2758 20.9426C34.5259 20.6926 34.6663 20.3535 34.6663 19.9998V17.9998C34.6663 17.6462 34.5259 17.3071 34.2758 17.057C34.0258 16.807 33.6866 16.6665 33.333 16.6665H30.6663C30.3127 16.6665 29.9736 16.807 29.7235 17.057C29.4735 17.3071 29.333 17.6462 29.333 17.9998V19.9998C29.333 20.3535 29.4735 20.6926 29.7235 20.9426C29.9736 21.1927 30.3127 21.3332 30.6663 21.3332H33.333ZM30.6663 17.9998H33.333V19.9998H30.6663V17.9998Z" fill="white"/>
<path d="M18.6663 24.0001C18.6663 23.6465 18.5259 23.3073 18.2758 23.0573C18.0258 22.8072 17.6866 22.6667 17.333 22.6667H14.6663C14.3127 22.6667 13.9736 22.8072 13.7235 23.0573C13.4735 23.3073 13.333 23.6465 13.333 24.0001V26.0001C13.333 26.3537 13.4735 26.6928 13.7235 26.9429C13.9736 27.1929 14.3127 27.3334 14.6663 27.3334H17.333C17.6866 27.3334 18.0258 27.1929 18.2758 26.9429C18.5259 26.6928 18.6663 26.3537 18.6663 26.0001V24.0001ZM14.6663 26.0001V24.0001H17.333V26.0001H14.6663Z" fill="white"/>
<path d="M10.6663 24.0001C10.6663 23.6465 10.5259 23.3073 10.2758 23.0573C10.0258 22.8072 9.68663 22.6667 9.33301 22.6667H6.66634C6.31272 22.6667 5.97358 22.8072 5.72353 23.0573C5.47348 23.3073 5.33301 23.6465 5.33301 24.0001V26.0001C5.33301 26.3537 5.47348 26.6928 5.72353 26.9429C5.97358 27.1929 6.31272 27.3334 6.66634 27.3334H9.33301C9.68663 27.3334 10.0258 27.1929 10.2758 26.9429C10.5259 26.6928 10.6663 26.3537 10.6663 26.0001V24.0001ZM6.66634 26.0001V24.0001H9.33301V26.0001H6.66634Z" fill="white"/>
<path d="M17.333 28.6667H14.6663C14.3127 28.6667 13.9736 28.8072 13.7235 29.0573C13.4735 29.3073 13.333 29.6465 13.333 30.0001V32.0001C13.333 32.3537 13.4735 32.6928 13.7235 32.9429C13.9736 33.1929 14.3127 33.3334 14.6663 33.3334H17.333C17.6866 33.3334 18.0258 33.1929 18.2758 32.9429C18.5259 32.6928 18.6663 32.3537 18.6663 32.0001V30.0001C18.6663 29.6465 18.5259 29.3073 18.2758 29.0573C18.0258 28.8072 17.6866 28.6667 17.333 28.6667ZM14.6663 32.0001V30.0001H17.333V32.0001H14.6663Z" fill="white"/>
<path d="M22.6663 21.3332H25.333C25.6866 21.3332 26.0258 21.1927 26.2758 20.9426C26.5259 20.6926 26.6663 20.3535 26.6663 19.9998V17.9998C26.6663 17.6462 26.5259 17.3071 26.2758 17.057C26.0258 16.807 25.6866 16.6665 25.333 16.6665H22.6663C22.3127 16.6665 21.9736 16.807 21.7235 17.057C21.4735 17.3071 21.333 17.6462 21.333 17.9998V19.9998C21.333 20.3535 21.4735 20.6926 21.7235 20.9426C21.9736 21.1927 22.3127 21.3332 22.6663 21.3332ZM22.6663 17.9998H25.333V19.9998H22.6663V17.9998Z" fill="white"/>
<path d="M21.333 26.0001C21.333 26.3537 21.4735 26.6928 21.7235 26.9429C21.9736 27.1929 22.3127 27.3334 22.6663 27.3334C22.8432 27.3334 23.0127 27.2632 23.1377 27.1382C23.2628 27.0131 23.333 26.8436 23.333 26.6667C23.333 26.4899 23.2628 26.3204 23.1377 26.1953C23.0127 26.0703 22.8432 26.0001 22.6663 26.0001V24.0001H25.333C25.5098 24.0001 25.6794 23.9298 25.8044 23.8048C25.9294 23.6798 25.9997 23.5102 25.9997 23.3334C25.9997 23.1566 25.9294 22.987 25.8044 22.862C25.6794 22.737 25.5098 22.6667 25.333 22.6667H22.6663C22.3127 22.6667 21.9736 22.8072 21.7235 23.0573C21.4735 23.3073 21.333 23.6465 21.333 24.0001V26.0001Z" fill="white"/>
<path d="M9.33301 28.6667H6.66634C6.31272 28.6667 5.97358 28.8072 5.72353 29.0573C5.47348 29.3073 5.33301 29.6465 5.33301 30.0001V32.0001C5.33301 32.3537 5.47348 32.6928 5.72353 32.9429C5.97358 33.1929 6.31272 33.3334 6.66634 33.3334H9.33301C9.68663 33.3334 10.0258 33.1929 10.2758 32.9429C10.5259 32.6928 10.6663 32.3537 10.6663 32.0001V30.0001C10.6663 29.6465 10.5259 29.3073 10.2758 29.0573C10.0258 28.8072 9.68663 28.6667 9.33301 28.6667ZM6.66634 32.0001V30.0001H9.33301V32.0001H6.66634Z" fill="white"/>
<path d="M31.3337 22.6667C29.6196 22.6667 27.9439 23.175 26.5187 24.1273C25.0935 25.0796 23.9827 26.4332 23.3267 28.0168C22.6707 29.6005 22.4991 31.343 22.8335 33.0242C23.1679 34.7054 23.9934 36.2496 25.2054 37.4617C26.4175 38.6737 27.9617 39.4991 29.6429 39.8336C31.324 40.168 33.0666 39.9963 34.6503 39.3404C36.2339 38.6844 37.5874 37.5736 38.5397 36.1484C39.492 34.7231 40.0003 33.0475 40.0003 31.3334C39.9977 29.0357 39.0837 26.8328 37.459 25.2081C35.8343 23.5833 33.6314 22.6694 31.3337 22.6667ZM31.3337 38.6667C29.8833 38.6667 28.4654 38.2367 27.2595 37.4309C26.0535 36.6251 25.1136 35.4797 24.5585 34.1398C24.0035 32.7998 23.8583 31.3253 24.1412 29.9028C24.4242 28.4802 25.1226 27.1735 26.1482 26.148C27.1738 25.1224 28.4805 24.4239 29.903 24.141C31.3255 23.858 32.8 24.0033 34.14 24.5583C35.48 25.1133 36.6253 26.0533 37.4311 27.2592C38.2369 28.4652 38.667 29.883 38.667 31.3334C38.6647 33.2776 37.8913 35.1416 36.5166 36.5163C35.1418 37.8911 33.2779 38.6645 31.3337 38.6667Z" fill="white"/>
<path d="M35.1855 28.5387L30.0001 33.724L27.6435 31.3667C27.5177 31.2453 27.3493 31.1781 27.1745 31.1796C26.9997 31.1811 26.8325 31.2512 26.7089 31.3748C26.5853 31.4984 26.5152 31.6656 26.5137 31.8404C26.5122 32.0152 26.5794 32.1836 26.7008 32.3094L29.5288 35.138C29.6538 35.263 29.8234 35.3332 30.0001 35.3332C30.1769 35.3332 30.3465 35.263 30.4715 35.138L36.1281 29.4814C36.2496 29.3556 36.3168 29.1872 36.3153 29.0124C36.3137 28.8376 36.2436 28.6704 36.12 28.5468C35.9964 28.4232 35.8292 28.3531 35.6544 28.3516C35.4796 28.3501 35.3112 28.4173 35.1855 28.5387Z" fill="white"/>
</g>
<defs>
<clipPath id="clip0_1_8420">
<rect width="40" height="40" fill="white"/>
</clipPath>
</defs>
</svg>
