<svg width="40" height="40" viewBox="0 0 40 40" fill="none" xmlns="http://www.w3.org/2000/svg">
<g clip-path="url(#clip0_1_8445)">
<path d="M24.8 14.3999H15.2C14.5635 14.3999 13.953 14.6528 13.5029 15.1028C13.0529 15.5529 12.8 16.1634 12.8 16.7999V19.1999H8C5.87827 19.1999 3.84344 20.0428 2.34315 21.543C0.842855 23.0433 0 25.0782 0 27.1999C0 31.2639 3.096 35.1999 8.472 35.1999L7.832 35.8319C7.71918 35.9438 7.64223 36.0868 7.61098 36.2426C7.57972 36.3984 7.59557 36.5599 7.6565 36.7067C7.71744 36.8534 7.82069 36.9787 7.95311 37.0666C8.08553 37.1544 8.2411 37.2008 8.4 37.1999C8.848 37.1999 8.832 37.0959 10.968 34.9679C11.079 34.8554 11.1542 34.7125 11.1841 34.5574C11.214 34.4022 11.1973 34.2416 11.136 34.0959C11.056 33.8879 11.136 33.9999 8.968 31.8319C8.89341 31.7573 8.80486 31.6981 8.7074 31.6578C8.60994 31.6174 8.50549 31.5966 8.4 31.5966C8.29451 31.5966 8.19006 31.6174 8.0926 31.6578C7.99514 31.6981 7.90659 31.7573 7.832 31.8319C7.75741 31.9065 7.69824 31.995 7.65787 32.0925C7.6175 32.19 7.59673 32.2944 7.59673 32.3999C7.59673 32.5054 7.6175 32.6098 7.65787 32.7073C7.69824 32.8048 7.75741 32.8933 7.832 32.9679L8.472 33.5999C4.072 33.5999 1.6 30.4799 1.6 27.1999C1.6 25.5025 2.27428 23.8747 3.47452 22.6744C4.67475 21.4742 6.30262 20.7999 8 20.7999H12.8V23.1999C12.8 23.8364 13.0529 24.4469 13.5029 24.897C13.953 25.347 14.5635 25.5999 15.2 25.5999H24.8C25.4365 25.5999 26.047 25.347 26.4971 24.897C26.9471 24.4469 27.2 23.8364 27.2 23.1999V16.7999C27.2 16.1634 26.9471 15.5529 26.4971 15.1028C26.047 14.6528 25.4365 14.3999 24.8 14.3999ZM25.6 23.1999C25.6 23.4121 25.5157 23.6156 25.3657 23.7656C25.2157 23.9156 25.0122 23.9999 24.8 23.9999H15.2C14.9878 23.9999 14.7843 23.9156 14.6343 23.7656C14.4843 23.6156 14.4 23.4121 14.4 23.1999V16.7999C14.4 16.5877 14.4843 16.3842 14.6343 16.2342C14.7843 16.0842 14.9878 15.9999 15.2 15.9999H24.8C25.0122 15.9999 25.2157 16.0842 25.3657 16.2342C25.5157 16.3842 25.6 16.5877 25.6 16.7999V23.1999Z" fill="#ECF5FB"/>
<path d="M24.7998 28.8H15.1998C14.5633 28.8 13.9528 29.0529 13.5027 29.503C13.0527 29.9531 12.7998 30.5635 12.7998 31.2V37.6C12.7998 38.2366 13.0527 38.847 13.5027 39.2971C13.9528 39.7472 14.5633 40 15.1998 40H24.7998C25.4363 40 26.0468 39.7472 26.4969 39.2971C26.9469 38.847 27.1998 38.2366 27.1998 37.6V31.2C27.1998 30.5635 26.9469 29.9531 26.4969 29.503C26.0468 29.0529 25.4363 28.8 24.7998 28.8ZM25.5998 37.6C25.5998 37.8122 25.5155 38.0157 25.3655 38.1657C25.2155 38.3158 25.012 38.4 24.7998 38.4H15.1998C14.9876 38.4 14.7841 38.3158 14.6341 38.1657C14.4841 38.0157 14.3998 37.8122 14.3998 37.6V31.2C14.3998 30.9879 14.4841 30.7844 14.6341 30.6344C14.7841 30.4843 14.9876 30.4 15.1998 30.4H24.7998C25.012 30.4 25.2155 30.4843 25.3655 30.6344C25.5155 30.7844 25.5998 30.9879 25.5998 31.2V37.6Z" fill="#ECF5FB"/>
<path d="M23.2002 3.19995H20.0002C19.788 3.19995 19.5845 3.28424 19.4345 3.43427C19.2845 3.5843 19.2002 3.78778 19.2002 3.99995C19.2002 4.21212 19.2845 4.41561 19.4345 4.56564C19.5845 4.71567 19.788 4.79995 20.0002 4.79995H23.2002C23.4124 4.79995 23.6159 4.71567 23.7659 4.56564C23.9159 4.41561 24.0002 4.21212 24.0002 3.99995C24.0002 3.78778 23.9159 3.5843 23.7659 3.43427C23.6159 3.28424 23.4124 3.19995 23.2002 3.19995Z" fill="#ECF5FB"/>
<path d="M16.8 4.79995C17.0122 4.79995 17.2157 4.71567 17.3657 4.56564C17.5157 4.41561 17.6 4.21212 17.6 3.99995C17.6 3.78778 17.5157 3.5843 17.3657 3.43427C17.2157 3.28424 17.0122 3.19995 16.8 3.19995C16.5878 3.19995 16.3843 3.28424 16.2343 3.43427C16.0843 3.5843 16 3.78778 16 3.99995C16 4.21212 16.0843 4.41561 16.2343 4.56564C16.3843 4.71567 16.5878 4.79995 16.8 4.79995Z" fill="#ECF5FB"/>
<path d="M23.2002 17.6001H20.0002C19.788 17.6001 19.5845 17.6844 19.4345 17.8344C19.2845 17.9844 19.2002 18.1879 19.2002 18.4001C19.2002 18.6123 19.2845 18.8158 19.4345 18.9658C19.5845 19.1158 19.788 19.2001 20.0002 19.2001H23.2002C23.4124 19.2001 23.6159 19.1158 23.7659 18.9658C23.9159 18.8158 24.0002 18.6123 24.0002 18.4001C24.0002 18.1879 23.9159 17.9844 23.7659 17.8344C23.6159 17.6844 23.4124 17.6001 23.2002 17.6001Z" fill="#ECF5FB"/>
<path d="M16.8 19.2001C17.0122 19.2001 17.2157 19.1158 17.3657 18.9658C17.5157 18.8158 17.6 18.6123 17.6 18.4001C17.6 18.1879 17.5157 17.9844 17.3657 17.8344C17.2157 17.6844 17.0122 17.6001 16.8 17.6001C16.5878 17.6001 16.3843 17.6844 16.2343 17.8344C16.0843 17.9844 16 18.1879 16 18.4001C16 18.6123 16.0843 18.8158 16.2343 18.9658C16.3843 19.1158 16.5878 19.2001 16.8 19.2001Z" fill="#ECF5FB"/>
<path d="M22.2318 31.9999L19.1998 35.0719L17.7678 33.5999C17.6932 33.5253 17.6046 33.4662 17.5072 33.4258C17.4097 33.3854 17.3052 33.3646 17.1998 33.3646C17.0943 33.3646 16.9898 33.3854 16.8924 33.4258C16.7949 33.4662 16.7063 33.5253 16.6318 33.5999C16.5572 33.6745 16.498 33.7631 16.4576 33.8605C16.4173 33.958 16.3965 34.0624 16.3965 34.1679C16.3965 34.2734 16.4173 34.3779 16.4576 34.4753C16.498 34.5728 16.5572 34.6613 16.6318 34.7359C18.7918 36.8959 18.7598 36.9679 19.1998 36.9679C19.6398 36.9679 19.5198 36.9679 23.3678 33.1359C23.4423 33.0613 23.5015 32.9728 23.5419 32.8753C23.5823 32.7779 23.603 32.6734 23.603 32.5679C23.603 32.4624 23.5823 32.358 23.5419 32.2605C23.5015 32.1631 23.4423 32.0745 23.3678 31.9999C23.2932 31.9253 23.2046 31.8662 23.1072 31.8258C23.0097 31.7854 22.9052 31.7646 22.7998 31.7646C22.6943 31.7646 22.5898 31.7854 22.4924 31.8258C22.3949 31.8662 22.3063 31.9253 22.2318 31.9999Z" fill="#ECF5FB"/>
<path d="M39.9998 12.8C39.9998 10.6783 39.1569 8.64344 37.6567 7.14315C36.1564 5.64285 34.1215 4.8 31.9998 4.8H27.1998V2.4C27.1998 1.76348 26.9469 1.15303 26.4969 0.702944C26.0468 0.252856 25.4363 0 24.7998 0H15.1998C14.5633 0 13.9528 0.252856 13.5027 0.702944C13.0527 1.15303 12.7998 1.76348 12.7998 2.4V8.8C12.7998 9.43652 13.0527 10.047 13.5027 10.4971C13.9528 10.9471 14.5633 11.2 15.1998 11.2H24.7998C25.4363 11.2 26.0468 10.9471 26.4969 10.4971C26.9469 10.047 27.1998 9.43652 27.1998 8.8V6.4H31.9998C33.6972 6.4 35.3251 7.07428 36.5253 8.27452C37.7255 9.47475 38.3998 11.1026 38.3998 12.8C38.3998 16 35.9998 19.2 31.5278 19.2L32.1678 18.568C32.2424 18.4934 32.3016 18.4049 32.3419 18.3074C32.3823 18.2099 32.4031 18.1055 32.4031 18C32.4031 17.8945 32.3823 17.7901 32.3419 17.6926C32.3016 17.5951 32.2424 17.5066 32.1678 17.432C32.0932 17.3574 32.0047 17.2982 31.9072 17.2579C31.8097 17.2175 31.7053 17.1967 31.5998 17.1967C31.4943 17.1967 31.3899 17.2175 31.2924 17.2579C31.1949 17.2982 31.1064 17.3574 31.0318 17.432C28.8638 19.6 28.9438 19.488 28.8638 19.696C28.8025 19.8417 28.7858 20.0023 28.8157 20.1575C28.8456 20.3126 28.9208 20.4555 29.0318 20.568C31.1998 22.728 31.1998 22.8 31.5998 22.8C31.7587 22.8009 31.9143 22.7545 32.0467 22.6667C32.1791 22.5788 32.2824 22.4535 32.3433 22.3068C32.4042 22.16 32.4201 21.9985 32.3888 21.8427C32.3576 21.6869 32.2806 21.5439 32.1678 21.432L31.5278 20.8C36.9198 20.8 39.9998 16.856 39.9998 12.8ZM25.5998 8.8C25.5998 9.01217 25.5155 9.21566 25.3655 9.36569C25.2155 9.51571 25.012 9.6 24.7998 9.6H15.1998C14.9876 9.6 14.7841 9.51571 14.6341 9.36569C14.4841 9.21566 14.3998 9.01217 14.3998 8.8V2.4C14.3998 2.18783 14.4841 1.98434 14.6341 1.83431C14.7841 1.68429 14.9876 1.6 15.1998 1.6H24.7998C25.012 1.6 25.2155 1.68429 25.3655 1.83431C25.5155 1.98434 25.5998 2.18783 25.5998 2.4V8.8Z" fill="#ECF5FB"/>
<path d="M0.8 6.3999H8.472L7.832 7.0319C7.71918 7.1438 7.64223 7.28676 7.61098 7.44256C7.57972 7.59836 7.59557 7.75993 7.6565 7.90669C7.71744 8.05344 7.82069 8.17873 7.95311 8.26657C8.08553 8.35441 8.2411 8.40083 8.4 8.3999C8.848 8.3999 8.832 8.2959 10.968 6.1679C11.079 6.05541 11.1542 5.91255 11.1841 5.75735C11.214 5.60216 11.1973 5.44159 11.136 5.2959C11.056 5.0879 11.136 5.1999 8.968 3.0319C8.89341 2.95731 8.80486 2.89814 8.7074 2.85778C8.60994 2.81741 8.50549 2.79663 8.4 2.79663C8.18696 2.79663 7.98264 2.88126 7.832 3.0319C7.75741 3.10649 7.69824 3.19505 7.65787 3.2925C7.6175 3.38996 7.59673 3.49442 7.59673 3.5999C7.59673 3.81295 7.68136 4.01726 7.832 4.1679L8.472 4.7999H0.8C0.587827 4.7999 0.384344 4.88419 0.234315 5.03422C0.0842856 5.18425 0 5.38773 0 5.5999C0 5.81208 0.0842856 6.01556 0.234315 6.16559C0.384344 6.31562 0.587827 6.3999 0.8 6.3999Z" fill="#ECF5FB"/>
<path d="M23.2 6.3999H16.8C16.5878 6.3999 16.3843 6.48419 16.2343 6.63422C16.0843 6.78425 16 6.98773 16 7.1999C16 7.41208 16.0843 7.61556 16.2343 7.76559C16.3843 7.91562 16.5878 7.9999 16.8 7.9999H23.2C23.4122 7.9999 23.6157 7.91562 23.7657 7.76559C23.9157 7.61556 24 7.41208 24 7.1999C24 6.98773 23.9157 6.78425 23.7657 6.63422C23.6157 6.48419 23.4122 6.3999 23.2 6.3999Z" fill="#ECF5FB"/>
<path d="M23.2 20.8H16.8C16.5878 20.8 16.3843 20.8843 16.2343 21.0344C16.0843 21.1844 16 21.3879 16 21.6C16 21.8122 16.0843 22.0157 16.2343 22.1657C16.3843 22.3158 16.5878 22.4 16.8 22.4H23.2C23.4122 22.4 23.6157 22.3158 23.7657 22.1657C23.9157 22.0157 24 21.8122 24 21.6C24 21.3879 23.9157 21.1844 23.7657 21.0344C23.6157 20.8843 23.4122 20.8 23.2 20.8Z" fill="#ECF5FB"/>
</g>
<defs>
<clipPath id="clip0_1_8445">
<rect width="40" height="40" fill="white"/>
</clipPath>
</defs>
</svg>
