<svg width="1220" height="588" viewBox="0 0 1220 588" fill="none" xmlns="http://www.w3.org/2000/svg">
<g clip-path="url(#clip0_1_15016)">
<path d="M1081.32 503.079H1029.2C1029.09 503.079 1028.98 503.006 1028.98 502.885V499.419C1028.98 499.323 1029.06 499.226 1029.2 499.226H1081.32C1081.43 499.226 1081.54 499.298 1081.54 499.419V502.885C1081.51 503.006 1081.43 503.079 1081.32 503.079Z" fill="#37AFE3"/>
<path d="M142.303 503.079H90.1786C90.0717 503.079 89.9648 503.006 89.9648 502.885V499.419C89.9648 499.323 90.045 499.226 90.1786 499.226H142.303C142.41 499.226 142.517 499.298 142.517 499.419V502.885C142.517 503.006 142.41 503.079 142.303 503.079Z" fill="#37AFE3"/>
<path d="M1036.06 581.287H983.805C983.725 581.287 983.672 581.238 983.672 581.166V578.839C983.672 578.766 983.725 578.718 983.805 578.718H1036.06C1036.14 578.718 1036.2 578.766 1036.2 578.839V581.166C1036.2 581.238 1036.14 581.287 1036.06 581.287Z" fill="#37AFE3"/>
<path d="M167.309 171.151C177.167 171.151 185.717 164.656 187.053 155.81C187.293 154.21 187.427 152.611 187.427 150.963C187.427 131.259 169.82 115.264 148.073 115.264C147.191 115.264 146.309 115.312 145.428 115.361C143.638 95.9238 125.684 80.6555 103.776 80.6555C80.6925 80.6555 61.9639 97.6203 61.9639 118.584C61.9639 119.505 62.0174 120.426 62.0975 121.347C55.5519 118.027 47.9108 116.257 39.7889 116.597C18.7894 117.469 1.5303 132.713 0.0608687 151.714C0.0608687 151.859 0.0341501 152.005 0.0341501 152.174C-0.633773 162.523 8.58356 171.199 19.9917 171.199H167.309V171.151Z" fill="#D9F3FF"/>
<path d="M1195.78 258.665C1226.9 258.665 1228.61 216.18 1197.54 214.823C1196.69 214.774 1195.83 214.774 1194.98 214.774C1189.42 214.774 1184.08 215.574 1179.08 217.028C1174.91 194.029 1152.92 176.482 1126.4 176.482C1099.28 176.482 1076.92 194.804 1073.47 218.555C1067.03 215.768 1059.84 214.193 1052.23 214.193C1047.98 214.193 1043.87 214.677 1039.91 215.598C1012.71 221.948 1018.41 258.665 1046.51 258.665H1195.78Z" fill="#D9F3FF"/>
<path d="M924.334 82.1581C955.432 82.1581 957.169 39.6976 926.097 38.3162C925.242 38.2677 924.387 38.2677 923.532 38.2677C917.975 38.2677 912.659 39.0675 907.636 40.5216C903.468 17.5464 881.48 0 854.977 0C827.886 0 805.524 18.322 802.077 42.0485C795.639 39.2614 788.452 37.6861 780.837 37.6861C776.589 37.6861 772.475 38.1708 768.521 39.0918C741.323 45.4414 747.04 82.1581 775.12 82.1581H924.334Z" fill="#D9F3FF"/>
<path d="M513.425 272.455L662.425 232.757C665.204 232.006 666.807 229.364 666.005 226.819L605.171 38.9705C604.343 36.45 601.431 34.9959 598.625 35.7229L496.594 62.8909C495.284 63.2302 494.189 64.0299 493.521 65.0963L459.778 118.535C459.056 119.674 458.896 121.007 459.297 122.243L506.853 269.183C507.708 271.752 510.62 273.206 513.425 272.455Z" fill="white"/>
<path d="M513.425 272.455L662.425 232.757C665.204 232.006 666.807 229.364 666.005 226.819L605.171 38.9705C604.343 36.45 601.431 34.9959 598.625 35.7229L496.594 62.8909C495.284 63.2302 494.189 64.0299 493.521 65.0963L459.778 118.535C459.056 119.674 458.896 121.007 459.297 122.243L506.853 269.183C507.708 271.752 510.62 273.206 513.425 272.455Z" stroke="#37AFE3" stroke-width="8" stroke-miterlimit="10" stroke-linecap="round" stroke-linejoin="round"/>
<path d="M495.903 65.8235L508.353 104.261C509.234 106.951 507.525 109.787 504.559 110.611L460.289 122.583" fill="white"/>
<path d="M495.903 65.8235L508.353 104.261C509.234 106.951 507.525 109.787 504.559 110.611L460.289 122.583" stroke="#37AFE3" stroke-width="8" stroke-miterlimit="10" stroke-linecap="round" stroke-linejoin="round"/>
<path d="M536.802 241.579L526.997 244.196C526.703 244.269 526.409 244.123 526.329 243.857L515.509 210.436C515.429 210.169 515.589 209.903 515.883 209.83L525.688 207.213C525.982 207.14 526.276 207.285 526.356 207.552L537.176 240.973C537.23 241.239 537.069 241.506 536.802 241.579Z" fill="#37AFE3"/>
<path d="M580.08 230.067L570.275 232.684C569.981 232.757 569.687 232.611 569.607 232.345L561.966 208.74C561.886 208.473 562.046 208.206 562.34 208.134L572.145 205.516C572.439 205.444 572.733 205.589 572.813 205.856L580.454 229.461C580.507 229.727 580.347 229.994 580.08 230.067Z" fill="#37AFE3"/>
<path d="M601.701 224.299L591.896 226.916C591.602 226.989 591.308 226.844 591.228 226.577L580.407 193.156C580.327 192.89 580.487 192.623 580.781 192.55L590.586 189.933C590.88 189.86 591.174 190.006 591.254 190.272L602.075 223.693C602.155 223.96 601.995 224.226 601.701 224.299Z" fill="#37AFE3"/>
<path d="M558.443 235.835L548.637 238.452C548.343 238.525 548.05 238.38 547.969 238.113L533.97 194.877C533.89 194.61 534.05 194.344 534.344 194.271L544.149 191.654C544.443 191.581 544.737 191.726 544.817 191.993L558.817 235.229C558.87 235.471 558.71 235.738 558.443 235.835Z" fill="#37AFE3"/>
<path d="M493.547 142.577L593.628 115.918" stroke="#ECF5FB" stroke-width="6" stroke-miterlimit="10" stroke-linecap="round" stroke-linejoin="round"/>
<path d="M498.305 157.288L598.386 130.629" stroke="#ECF5FB" stroke-width="6" stroke-miterlimit="10" stroke-linecap="round" stroke-linejoin="round"/>
<path d="M503.086 172.023L603.141 145.364" stroke="#ECF5FB" stroke-width="6" stroke-miterlimit="10" stroke-linecap="round" stroke-linejoin="round"/>
<path d="M716.687 221.754L720.401 214.58C721.096 213.223 720.374 211.599 718.798 211.091L668.917 194.853L666.727 198.44L712.706 222.869C714.149 223.62 715.993 223.111 716.687 221.754Z" fill="#37AFE3"/>
<path d="M631.513 220.688C653.823 220.688 671.909 204.282 671.909 184.044C671.909 163.806 653.823 147.4 631.513 147.4C609.203 147.4 591.117 163.806 591.117 184.044C591.117 204.282 609.203 220.688 631.513 220.688Z" fill="#37AFE3"/>
<path d="M631.515 213.054C649.177 213.054 663.495 200.065 663.495 184.044C663.495 168.022 649.177 155.034 631.515 155.034C613.853 155.034 599.535 168.022 599.535 184.044C599.535 200.065 613.853 213.054 631.515 213.054Z" fill="white"/>
<path d="M631.513 220.688C653.823 220.688 671.909 204.282 671.909 184.044C671.909 163.806 653.823 147.4 631.513 147.4C609.203 147.4 591.117 163.806 591.117 184.044C591.117 204.282 609.203 220.688 631.513 220.688Z" stroke="#37AFE3" stroke-width="8" stroke-linecap="round" stroke-linejoin="round"/>
<path d="M631.698 169.963L631.457 187.873" stroke="#37AFE3" stroke-width="8" stroke-linecap="round" stroke-linejoin="round"/>
<path d="M524.727 471.549C522.188 429.331 525.769 397.8 535.306 377.855C545.165 357.23 562.478 346.179 586.79 344.991C611.076 343.804 629.617 353.013 641.854 372.378C653.716 391.136 661.036 422.206 663.574 464.714C664.403 478.674 664.563 491.47 664.082 503.079H725.237C726.145 490.016 726.172 476.032 725.29 461.128C722.031 406.816 708.325 365.955 684.173 338.496C660.021 311.062 626.678 298.387 584.145 300.471C541.612 302.555 510.006 318.429 489.247 348.094C468.514 377.734 459.751 419.734 463.011 474.021C463.625 484.176 464.587 493.846 465.923 503.079H527.772C526.436 493.385 525.421 482.867 524.727 471.549Z" fill="white"/>
<path d="M657.403 465.03C654.919 423.393 647.865 393.171 636.484 375.189C625.984 358.612 611.076 350.517 590.985 350.517C589.703 350.517 588.42 350.541 587.111 350.614C565.043 351.705 549.948 361.35 540.998 380.109C531.834 399.255 528.441 429.937 530.925 471.258C531.62 482.721 532.662 493.336 534.025 503.079H657.884C658.392 491.616 658.232 478.916 657.403 465.03Z" fill="#ECF5FB"/>
<path d="M663.6 464.714C661.062 422.205 653.741 391.136 641.879 372.377C629.616 353.013 611.101 343.804 586.815 344.991C562.53 346.179 545.191 357.255 535.332 377.855C525.794 397.825 522.214 429.331 524.752 471.549C525.42 482.867 526.462 493.385 527.825 503.079H531.004C529.588 493.215 528.546 482.479 527.851 470.846C525.34 428.894 528.786 398.067 538.191 378.412C547.595 358.757 563.866 348.36 586.976 347.221C610.113 346.082 627.505 354.734 639.181 373.201C650.856 391.669 657.963 422.036 660.501 464.302C661.356 478.504 661.516 491.422 661.008 503.079H664.108C664.588 491.47 664.428 478.674 663.6 464.714Z" fill="#37AFE3"/>
<path d="M530.925 471.258C528.44 429.936 531.833 399.254 540.997 380.108C549.974 361.35 565.042 351.705 587.111 350.614C588.42 350.541 589.702 350.517 590.985 350.517C611.076 350.517 625.984 358.612 636.483 375.189C647.865 393.196 654.891 423.417 657.403 465.029C658.231 478.916 658.391 491.616 657.91 503.079H661.01C661.517 491.422 661.357 478.504 660.502 464.302C657.964 422.036 650.857 391.669 639.182 373.201C627.507 354.734 610.087 346.082 586.977 347.221C563.84 348.36 547.57 358.757 538.192 378.412C528.788 398.067 525.341 428.87 527.853 470.846C528.547 482.479 529.589 493.239 531.005 503.079H534.051C532.662 493.336 531.62 482.721 530.925 471.258Z" fill="#37AFE3"/>
<path d="M935.82 487.641L939.24 503.079H1027.78L1020.91 472.13L1060.67 464.884L1045.92 398.309L1006.17 405.556L965.208 220.639L862.776 239.301L767.477 460.11L776.988 503.079H851.074L935.82 487.641ZM898.87 320.756L921.099 421.066L853.826 433.33L898.87 320.756Z" fill="#37AFE3"/>
<path d="M364.774 496.729L404.77 502.788L417.086 435.801L377.091 429.743L411.289 243.687L308.215 228.104L132.578 403.786L122.238 460.061L279.147 483.788L275.486 503.636H363.492L364.774 496.729ZM223.763 406.573L309.978 315.885L291.436 416.825L223.763 406.573Z" fill="#37AFE3"/>
<path d="M469.073 503.079C467.71 493.821 466.722 484.079 466.107 473.875C462.901 420.412 471.584 378.606 491.862 349.596C511.953 320.901 543.052 305.318 584.303 303.282C587.215 303.137 590.047 303.064 592.879 303.064C630.122 303.064 659.992 315.545 681.739 340.241C705.384 367.094 718.983 407.81 722.189 461.249C723.07 476.081 723.044 490.016 722.109 503.055H725.234H728.307C729.242 489.895 729.269 475.863 728.36 460.934C725.101 406.283 711.021 364.501 686.575 336.703C661.862 308.638 627.344 295.503 583.956 297.635C540.594 299.768 507.839 316.224 486.599 346.543C465.6 376.546 456.623 419.491 459.882 474.142C460.497 484.224 461.458 493.845 462.768 503.031H465.867H469.073V503.079Z" fill="#37AFE3"/>
<path d="M158.435 584.777H106.177C106.096 584.777 106.043 584.728 106.043 584.656V582.329C106.043 582.256 106.096 582.208 106.177 582.208H158.435C158.515 582.208 158.568 582.256 158.568 582.329V584.656C158.568 584.728 158.515 584.777 158.435 584.777Z" fill="#37AFE3"/>
<path d="M300.943 584.777H248.684C248.604 584.777 248.551 584.728 248.551 584.656V582.329C248.551 582.256 248.604 582.208 248.684 582.208H300.943C301.023 582.208 301.076 582.256 301.076 582.329V584.656C301.076 584.728 301.023 584.777 300.943 584.777Z" fill="#37AFE3"/>
<path d="M430.654 554.434H378.395C378.315 554.434 378.262 554.385 378.262 554.313V551.986C378.262 551.913 378.315 551.865 378.395 551.865H430.654C430.734 551.865 430.787 551.913 430.787 551.986V554.313C430.787 554.361 430.734 554.434 430.654 554.434Z" fill="#37AFE3"/>
<path d="M504.419 588H452.161C452.081 588 452.027 587.951 452.027 587.879V585.552C452.027 585.479 452.081 585.431 452.161 585.431H504.419C504.499 585.431 504.553 585.479 504.553 585.552V587.879C504.553 587.951 504.499 588 504.419 588Z" fill="#37AFE3"/>
<path d="M686.443 588H634.184C634.104 588 634.051 587.951 634.051 587.879V585.552C634.051 585.479 634.104 585.431 634.184 585.431H686.443C686.523 585.431 686.576 585.479 686.576 585.552V587.879C686.576 587.951 686.523 588 686.443 588Z" fill="#37AFE3"/>
<path d="M890.079 586.11H837.821C837.741 586.11 837.688 586.061 837.688 585.989V583.662C837.688 583.589 837.741 583.541 837.821 583.541H890.079C890.159 583.541 890.213 583.589 890.213 583.662V585.989C890.213 586.061 890.159 586.11 890.079 586.11Z" fill="#37AFE3"/>
<path d="M243.181 549.514H190.923C190.842 549.514 190.789 549.466 190.789 549.393V547.066C190.789 546.994 190.842 546.945 190.923 546.945H243.181C243.261 546.945 243.315 546.994 243.315 547.066V549.393C243.315 549.442 243.261 549.514 243.181 549.514Z" fill="#37AFE3"/>
<path d="M605.595 548.254H553.337C553.257 548.254 553.203 548.205 553.203 548.133V545.806C553.203 545.733 553.257 545.685 553.337 545.685H605.595C605.675 545.685 605.729 545.733 605.729 545.806V548.133C605.729 548.205 605.648 548.254 605.595 548.254Z" fill="#37AFE3"/>
<path d="M974.822 548.06H922.563C922.483 548.06 922.43 548.011 922.43 547.939V545.612C922.43 545.539 922.483 545.491 922.563 545.491H974.822C974.902 545.491 974.955 545.539 974.955 545.612V547.939C974.955 548.011 974.902 548.06 974.822 548.06Z" fill="#37AFE3"/>
<path d="M793.068 536.16H740.809C740.729 536.16 740.676 536.112 740.676 536.039V533.713C740.676 533.64 740.729 533.592 740.809 533.592H793.068C793.148 533.592 793.201 533.64 793.201 533.713V536.039C793.201 536.088 793.148 536.16 793.068 536.16Z" fill="#37AFE3"/>
<path d="M797.373 497.965H374.551V503.079H797.373V497.965Z" fill="#37AFE3"/>
</g>
<defs>
<clipPath id="clip0_1_15016">
<rect width="1220" height="588" fill="white"/>
</clipPath>
</defs>
</svg>
