<svg width="225" height="80" viewBox="0 0 225 80" fill="none" xmlns="http://www.w3.org/2000/svg">
<g clip-path="url(#clip0_1_2259)">
<mask id="mask0_1_2259" style="mask-type:luminance" maskUnits="userSpaceOnUse" x="0" y="0" width="225" height="80">
<path d="M225 0H0V79.7872H225V0Z" fill="white"/>
</mask>
<g mask="url(#mask0_1_2259)">
<path d="M66.3093 18.0533C68.1609 17.7706 69.7646 16.9782 71.1496 16.11C69.5241 16.741 67.9713 17.4627 66.3093 18.0533ZM146.16 1.15468C154.456 0.266341 162.912 -0.415054 171.288 0.296625C174.838 0.649941 178.585 1.27077 181.253 3.04744C183.156 4.30423 183.848 6.25252 183.359 8.01407C182.652 10.8557 180.101 13.2532 177.469 15.4084C175.464 17.0412 173.3 18.5755 171.01 20.0146C169.089 21.2224 165.004 23.4388 165.004 23.4388C165.004 23.4388 156.075 27.5121 151.045 28.7234C155.761 26.871 164.421 22.3284 164.421 22.3284C164.421 22.3284 172.863 17.1952 176.398 14.1819C178.089 12.7384 179.693 11.1989 180.655 9.45255C181.399 8.22096 181.807 6.80268 181.151 5.51056C180.626 4.33452 179.147 3.5118 177.608 2.98182C174.801 1.98749 171.631 1.68465 168.533 1.50294C160.003 1.10925 151.504 2.01778 143.062 2.76479C121.383 4.89982 99.9219 8.24625 79.1391 13.0564C78.3956 13.2229 77.5719 13.3693 77.1563 13.8791C76.6242 14.5151 75.4724 14.4242 74.5685 14.3838C72.265 16.6097 68.7951 18.028 65.3107 19.2243C65.4929 18.8911 65.6751 18.5631 65.8574 18.235C65.3252 18.3259 64.7931 18.4218 64.2609 18.5075C65.3398 17.6091 66.6155 16.8267 68.0005 16.1555C66.0177 16.7915 64.2536 17.7101 62.2344 18.2905C63.0946 17.4425 64.1953 16.6804 65.5731 16.2412C64.9242 16.1807 64.1442 16.1857 63.685 15.8072C62.9707 15.2368 63.0946 14.2627 63.9985 13.8286C64.8076 13.4501 65.7553 13.2482 66.6811 13.0462C66.0906 13.4804 65.5512 14.0759 64.6035 14.1214C63.7579 14.1567 63.8454 14.934 63.9985 15.3428C64.414 15.7315 65.2159 15.9839 65.8938 15.787C67.1257 15.5599 68.19 15.0803 69.2908 14.6463C68.9409 14.4141 68.6274 14.1567 68.3942 13.8589C69.2106 13.7781 70.0416 13.7074 70.8508 13.5965C69.9979 13.5611 68.6566 13.864 68.6493 12.9605C69.4949 12.9503 70.3478 13.0009 71.1934 12.9503C70.53 12.8595 69.8229 12.9049 69.1887 12.7384C69.1596 12.5668 69.094 12.2286 69.0575 12.057C70.9309 12.1984 72.6732 12.7535 74.2113 13.4854C75.2173 12.5062 77.0032 13.0917 78.3227 12.5668C91.6846 8.93266 105.695 6.61593 119.699 4.52127C128.49 3.23419 137.318 2.12882 146.16 1.15468Z" fill="#37AFE3"/>
<path d="M74.6207 73.8724C74.2493 73.8724 73.9214 73.8208 73.6369 73.7174C73.3602 73.6067 73.1469 73.4259 72.9967 73.175C72.8466 72.9166 72.7715 72.5734 72.7715 72.1454V65.7134H73.9688V71.9793C73.9688 72.2155 74.0123 72.4 74.0991 72.5328C74.1861 72.6583 74.3007 72.7432 74.4429 72.7875C74.5852 72.8318 74.7393 72.8539 74.9052 72.8539H77.9281V73.8724H74.6207ZM88.6699 73.9388C87.9989 73.9388 87.4611 73.8465 87.0582 73.662C86.6632 73.4775 86.3784 73.1675 86.2045 72.7321C86.0385 72.2893 85.9555 71.6804 85.9555 70.9055C85.9555 70.1158 86.0385 69.5032 86.2045 69.0677C86.3784 68.6249 86.6632 68.315 87.0582 68.1378C87.4531 67.9607 87.9869 67.8721 88.6587 67.8721C89.2436 67.8721 89.7135 67.9312 90.0694 68.0493C90.4324 68.16 90.6973 68.3629 90.8632 68.6581C91.0372 68.946 91.1241 69.3482 91.1241 69.8648C91.1241 70.2265 91.0452 70.5143 90.8872 70.7284C90.7372 70.9423 90.5194 71.0974 90.2353 71.1933C89.9585 71.2893 89.6265 71.3372 89.2396 71.3372H87.1412C87.1491 71.7653 87.2002 72.1085 87.2952 72.3668C87.3981 72.6177 87.576 72.8023 87.8289 72.9204C88.089 73.031 88.4688 73.0864 88.9667 73.0864H90.9462V73.7506C90.6063 73.7949 90.2585 73.8355 89.9034 73.8724C89.5475 73.9167 89.1366 73.9388 88.6699 73.9388ZM87.1292 70.6398H89.1327C89.4486 70.6398 89.6816 70.5844 89.8316 70.4738C89.9824 70.363 90.0574 70.16 90.0574 69.8648C90.0574 69.5696 90.0095 69.3371 89.9146 69.1674C89.8276 68.9976 89.6816 68.8759 89.4765 68.8021C89.2707 68.7283 88.9978 68.6914 88.6587 68.6914C88.271 68.6914 87.963 68.7467 87.734 68.8574C87.5122 68.9681 87.3542 69.1637 87.2592 69.4442C87.1723 69.7246 87.1292 70.1232 87.1292 70.6398ZM101.876 73.8724C101.449 73.8724 101.094 73.8097 100.81 73.6842C100.533 73.5513 100.328 73.341 100.193 73.0532C100.067 72.7653 100.007 72.3815 100.015 71.9018L100.063 68.8574H99.055V68.1378L100.086 67.9496L100.264 66.2891H101.2V67.9496H102.919V68.8574H101.2V71.8908C101.2 72.1195 101.224 72.3041 101.271 72.4443C101.319 72.5845 101.386 72.6915 101.473 72.7653C101.56 72.8391 101.655 72.8945 101.757 72.9314C101.86 72.9609 101.959 72.9794 102.054 72.9867L102.836 73.0532V73.8724H101.876ZM110.957 68.2928L110.85 66.3223V65.5806H112V66.3223L111.905 68.2928H110.957ZM122.422 73.9388C122.256 73.9388 122.058 73.9352 121.829 73.9277C121.6 73.9203 121.363 73.9056 121.119 73.8835C120.882 73.8687 120.66 73.8503 120.455 73.8281C120.257 73.806 120.099 73.7801 119.98 73.7506V73.0864H122.647C122.877 73.0864 123.074 73.0716 123.24 73.0421C123.406 73.0052 123.533 72.9314 123.62 72.8207C123.714 72.71 123.762 72.5476 123.762 72.3336V72.09C123.762 71.8686 123.683 71.6951 123.525 71.5697C123.367 71.4442 123.106 71.3815 122.742 71.3815H121.817C121.446 71.3815 121.115 71.3372 120.822 71.2486C120.538 71.1527 120.312 70.994 120.146 70.7726C119.988 70.5512 119.909 70.2523 119.909 69.8759V69.5548C119.909 69.1785 119.984 68.8685 120.135 68.6249C120.293 68.3814 120.542 68.2005 120.882 68.0825C121.221 67.957 121.671 67.8943 122.232 67.8943C122.469 67.8943 122.73 67.9053 123.015 67.9275C123.307 67.9423 123.592 67.9644 123.869 67.9939C124.145 68.0234 124.367 68.0567 124.533 68.0935V68.7578H122.019C121.671 68.7578 121.403 68.8131 121.214 68.9238C121.032 69.0346 120.941 69.2449 120.941 69.5548V69.7763C120.941 69.9681 120.984 70.1157 121.071 70.2191C121.158 70.3224 121.281 70.3889 121.438 70.4184C121.604 70.4479 121.798 70.4627 122.019 70.4627H122.967C123.568 70.4627 124.023 70.5955 124.331 70.8612C124.639 71.1195 124.793 71.4848 124.793 71.9572V72.4111C124.793 72.8096 124.695 73.1196 124.497 73.341C124.299 73.5624 124.023 73.7174 123.667 73.806C123.319 73.8946 122.904 73.9388 122.422 73.9388ZM143.553 73.8724V67.4182C143.553 67.0935 143.605 66.8205 143.708 66.599C143.818 66.3776 143.961 66.2042 144.134 66.0787C144.308 65.9458 144.502 65.8536 144.715 65.802C144.937 65.7429 145.154 65.7134 145.367 65.7134C145.691 65.7208 146.058 65.7282 146.469 65.7355C146.88 65.7355 147.307 65.7429 147.75 65.7577C148.2 65.7725 148.635 65.7982 149.054 65.8352V66.7429H145.663C145.371 66.7429 145.146 66.8167 144.988 66.9643C144.83 67.1119 144.751 67.326 144.751 67.6064V69.4995L148.521 69.5659V70.4295L144.751 70.4959V73.8724H143.553ZM157.58 66.9533C157.438 66.9533 157.367 66.8905 157.367 66.7651V65.8352C157.367 65.7023 157.438 65.6359 157.58 65.6359H158.457C158.52 65.6359 158.567 65.6544 158.599 65.6912C158.631 65.7282 158.647 65.7761 158.647 65.8352V66.7651C158.647 66.8905 158.583 66.9533 158.457 66.9533H157.58ZM157.414 73.8724V67.9496H158.599V73.8724H157.414ZM169.591 73.9388C169.425 73.9388 169.227 73.9352 168.999 73.9277C168.769 73.9203 168.531 73.9056 168.287 73.8835C168.05 73.8687 167.828 73.8503 167.623 73.8281C167.425 73.806 167.267 73.7801 167.149 73.7506V73.0864H169.817C170.046 73.0864 170.244 73.0716 170.41 73.0421C170.575 73.0052 170.701 72.9314 170.789 72.8207C170.883 72.71 170.931 72.5476 170.931 72.3336V72.09C170.931 71.8686 170.852 71.6951 170.694 71.5697C170.535 71.4442 170.274 71.3815 169.912 71.3815H168.987C168.614 71.3815 168.282 71.3372 167.991 71.2486C167.706 71.1527 167.481 70.994 167.315 70.7726C167.157 70.5512 167.078 70.2523 167.078 69.8759V69.5548C167.078 69.1785 167.153 68.8685 167.303 68.6249C167.461 68.3814 167.71 68.2005 168.05 68.0825C168.389 67.957 168.84 67.8943 169.402 67.8943C169.639 67.8943 169.9 67.9053 170.184 67.9275C170.476 67.9423 170.761 67.9644 171.037 67.9939C171.313 68.0234 171.535 68.0567 171.701 68.0935V68.7578H169.188C168.84 68.7578 168.572 68.8131 168.382 68.9238C168.199 69.0346 168.109 69.2449 168.109 69.5548V69.7763C168.109 69.9681 168.152 70.1157 168.24 70.2191C168.326 70.3224 168.448 70.3889 168.607 70.4184C168.773 70.4479 168.967 70.4627 169.188 70.4627H170.137C170.737 70.4627 171.191 70.5955 171.499 70.8612C171.808 71.1195 171.962 71.4848 171.962 71.9572V72.4111C171.962 72.8096 171.862 73.1196 171.665 73.341C171.467 73.5624 171.191 73.7174 170.836 73.806C170.488 73.8946 170.073 73.9388 169.591 73.9388ZM180.425 73.8724V65.4255H181.61V68.5917C181.888 68.3998 182.223 68.2301 182.618 68.0825C183.014 67.9275 183.42 67.85 183.839 67.85C184.297 67.85 184.669 67.9386 184.953 68.1157C185.246 68.2928 185.459 68.5364 185.593 68.8463C185.729 69.149 185.795 69.4921 185.795 69.8759V73.8724H184.609V70.0088C184.609 69.7799 184.558 69.5807 184.455 69.4109C184.36 69.2338 184.223 69.0973 184.04 69.0014C183.867 68.9054 183.657 68.8574 183.412 68.8574C183.175 68.8574 182.954 68.8795 182.749 68.9238C182.552 68.9681 182.362 69.0309 182.18 69.112C181.998 69.1932 181.808 69.2855 181.61 69.3888V73.8724H180.425ZM194.695 66.9533C194.553 66.9533 194.482 66.8905 194.482 66.7651V65.8352C194.482 65.7023 194.553 65.6359 194.695 65.6359H195.573C195.637 65.6359 195.684 65.6544 195.715 65.6912C195.747 65.7282 195.763 65.7761 195.763 65.8352V66.7651C195.763 66.8905 195.7 66.9533 195.573 66.9533H194.695ZM194.529 73.8724V67.9496H195.715V73.8724H194.529ZM204.49 73.8724V67.9496H205.438L205.675 68.5917C205.96 68.3998 206.296 68.2301 206.682 68.0825C207.078 67.9275 207.485 67.85 207.904 67.85C208.378 67.85 208.757 67.9459 209.042 68.1378C209.335 68.3224 209.544 68.5696 209.67 68.8795C209.796 69.1895 209.859 69.5253 209.859 69.887V73.8724H208.674V70.0198C208.674 69.7837 208.623 69.5807 208.52 69.4109C208.425 69.2338 208.291 69.0973 208.117 69.0014C207.944 68.9054 207.731 68.8574 207.477 68.8574C207.24 68.8574 207.019 68.8795 206.813 68.9238C206.616 68.9681 206.426 69.0309 206.244 69.112C206.062 69.1858 205.873 69.2781 205.675 69.3888V73.8724H204.49ZM220.171 76.5957C219.767 76.5957 219.408 76.5404 219.092 76.4297C218.784 76.3264 218.54 76.164 218.357 75.9426C218.176 75.7286 218.085 75.4629 218.085 75.1455V74.9019C218.085 74.5699 218.184 74.2894 218.381 74.0606C218.587 73.8392 218.844 73.6694 219.152 73.5513C219.459 73.4332 219.779 73.3742 220.111 73.3742L220.431 73.7838C220.218 73.7838 220.016 73.8133 219.827 73.8724C219.645 73.9388 219.495 74.0384 219.377 74.1713C219.266 74.3115 219.211 74.4887 219.211 74.7027V74.913C219.211 75.223 219.322 75.4481 219.542 75.5884C219.772 75.7286 220.084 75.7987 220.479 75.7987H221.866C222.286 75.7987 222.617 75.7212 222.862 75.5662C223.107 75.4186 223.229 75.1861 223.229 74.8688V74.6584C223.229 74.4813 223.186 74.3263 223.099 74.1934C223.02 74.0606 222.89 73.9573 222.708 73.8835C222.527 73.817 222.278 73.7838 221.961 73.7838H220.206C219.645 73.7838 219.219 73.6768 218.927 73.4627C218.635 73.2488 218.488 72.9794 218.488 72.6547C218.488 72.3594 218.579 72.1233 218.761 71.9461C218.95 71.7616 219.215 71.6361 219.554 71.5697C219.27 71.4516 219.045 71.3003 218.879 71.1158C218.721 70.9313 218.611 70.732 218.547 70.518C218.484 70.2966 218.452 70.0752 218.452 69.8537C218.452 69.4036 218.552 69.0382 218.749 68.7578C218.946 68.4773 219.231 68.2707 219.602 68.1378C219.981 68.005 220.431 67.9386 220.953 67.9386H224.367V68.5696L223.075 68.6914C223.17 68.7578 223.273 68.8463 223.383 68.9571C223.494 69.0604 223.589 69.2043 223.667 69.3888C223.747 69.5734 223.786 69.8169 223.786 70.1195C223.786 70.4368 223.711 70.732 223.561 71.0051C223.419 71.2782 223.182 71.4996 222.85 71.6694C222.527 71.8391 222.084 71.924 221.522 71.924H220.479C220.179 71.924 219.942 71.9646 219.767 72.0457C219.594 72.1269 219.507 72.2708 219.507 72.4775C219.507 72.6472 219.574 72.7653 219.708 72.8318C219.843 72.8982 219.986 72.9314 220.135 72.9314H222.139C222.621 72.9314 223.024 72.9904 223.348 73.1085C223.679 73.2266 223.928 73.4074 224.094 73.651C224.26 73.8945 224.343 74.2119 224.343 74.6031V74.8134C224.343 75.3743 224.146 75.8098 223.75 76.1197C223.364 76.4371 222.775 76.5957 221.985 76.5957H220.171ZM220.692 71.0715H221.392C221.748 71.0715 222.017 71.0236 222.198 70.9276C222.388 70.8243 222.518 70.6914 222.589 70.529C222.661 70.3667 222.696 70.1859 222.696 69.9867C222.696 69.6914 222.645 69.4589 222.542 69.2892C222.44 69.112 222.298 68.9866 222.115 68.9128C221.942 68.8316 221.729 68.791 221.475 68.791H220.811C220.408 68.791 220.092 68.8759 219.862 69.0456C219.642 69.2154 219.531 69.5069 219.531 69.9202C219.531 70.3261 219.633 70.6214 219.839 70.8058C220.045 70.983 220.329 71.0715 220.692 71.0715Z" fill="#364863"/>
<path d="M224.367 59.8403H72.7715V60.6382H224.367V59.8403Z" fill="#37AFE3"/>
<path d="M72.7715 54.7701L76.8556 19.8566H83.5994L91.6723 46.6079L99.6981 19.8566H106.395L110.526 54.7701H103.735L100.695 29.0568L101.788 29.1511L94.9021 54.7701H88.3005L81.3199 29.1511L82.5071 29.104L79.5626 54.7701H72.7715ZM120.264 55.0532C118.332 55.0532 116.765 54.487 115.562 53.3547C114.359 52.2223 113.757 50.6496 113.757 48.6367V46.372C113.757 44.4533 114.439 42.8807 115.8 41.654C117.161 40.3958 119.283 39.7667 122.164 39.7667H128.67V38.0211C128.67 37.2347 128.527 36.5899 128.242 36.0866C127.957 35.552 127.419 35.1745 126.628 34.9544C125.867 34.7027 124.696 34.5769 123.113 34.5769H115.467V30.5194C116.702 30.1419 118.127 29.8117 119.741 29.5286C121.387 29.2455 123.367 29.104 125.678 29.104C127.799 29.104 129.604 29.3556 131.092 29.8588C132.611 30.3621 133.751 31.2271 134.511 32.4538C135.302 33.6805 135.698 35.379 135.698 37.5493V54.7701H130.142L129.002 52.0808C128.781 52.3324 128.401 52.6155 127.862 52.93C127.324 53.2446 126.659 53.5749 125.867 53.9208C125.108 54.2354 124.237 54.5027 123.256 54.7229C122.306 54.9431 121.308 55.0532 120.264 55.0532ZM123.826 50.1936C124.142 50.1936 124.49 50.1621 124.87 50.0993C125.282 50.0049 125.694 49.9105 126.105 49.8162C126.548 49.6904 126.944 49.5803 127.292 49.4859C127.672 49.3601 127.973 49.25 128.195 49.1556C128.448 49.0612 128.607 48.9984 128.67 48.9669V43.0694L124.395 43.3525C123.161 43.4468 122.243 43.7614 121.641 44.296C121.071 44.8308 120.787 45.5542 120.787 46.4663V47.5043C120.787 48.1334 120.913 48.6524 121.166 49.0612C121.451 49.4701 121.815 49.769 122.259 49.9577C122.733 50.115 123.256 50.1936 123.826 50.1936ZM140.96 54.7701V29.4342H146.374L147.988 33.303C148.907 32.1392 149.936 31.1484 151.075 30.3307C152.247 29.5129 153.625 29.104 155.208 29.104C155.556 29.104 155.904 29.1197 156.252 29.1511C156.632 29.1826 156.981 29.2455 157.296 29.3399V36.5113C156.822 36.4484 156.315 36.4012 155.777 36.3697C155.271 36.3069 154.78 36.2754 154.305 36.2754C153.387 36.2754 152.548 36.3855 151.788 36.6057C151.06 36.7944 150.379 37.0932 149.746 37.5021C149.145 37.8795 148.559 38.3828 147.988 39.0119V54.7701H140.96ZM161.896 25.707C161.232 25.707 160.899 25.3924 160.899 24.7634V20.1397C160.899 19.4792 161.232 19.1489 161.896 19.1489H167.31C167.595 19.1489 167.816 19.2433 167.975 19.432C168.133 19.6207 168.212 19.8566 168.212 20.1397V24.7634C168.212 25.3924 167.911 25.707 167.31 25.707H161.896ZM161.042 54.7701V29.4342H168.07V54.7701H161.042ZM173.47 54.7701V29.4342H179.264L180.499 32.0291C181.449 31.2428 182.636 30.5508 184.061 29.9532C185.517 29.3242 187.005 29.0096 188.525 29.0096C190.614 29.0096 192.229 29.4185 193.369 30.2363C194.508 31.0541 195.3 32.155 195.744 33.539C196.218 34.8914 196.456 36.4012 196.456 38.0682V54.7701H189.427V38.9646C189.427 38.1469 189.269 37.4706 188.952 36.9359C188.667 36.4012 188.256 35.9923 187.718 35.7092C187.179 35.4262 186.531 35.2846 185.77 35.2846C185.106 35.2846 184.457 35.3632 183.823 35.5205C183.222 35.6778 182.636 35.8979 182.066 36.181C181.528 36.4641 181.005 36.7943 180.499 37.1718V54.7701H173.47ZM212.637 55.006C210.547 55.006 208.758 54.8015 207.27 54.3926C205.782 53.9523 204.564 53.2288 203.614 52.2223C202.696 51.2158 202.015 49.8791 201.572 48.2121C201.16 46.545 200.954 44.4848 200.954 42.0314C200.954 39.4522 201.16 37.3291 201.572 35.6621C202.015 33.9636 202.696 32.6425 203.614 31.6989C204.564 30.7238 205.782 30.0476 207.27 29.6701C208.79 29.2612 210.579 29.0568 212.637 29.0568C214.758 29.0568 216.563 29.2612 218.051 29.6701C219.539 30.0791 220.742 30.7711 221.66 31.7461C222.61 32.6897 223.291 34.0107 223.703 35.7092C224.145 37.3762 224.367 39.4837 224.367 42.0314C224.367 44.5477 224.161 46.6551 223.75 48.3536C223.338 50.0206 222.673 51.3416 221.755 52.3167C220.837 53.2918 219.618 53.9838 218.098 54.3926C216.61 54.8015 214.79 55.006 212.637 55.006ZM212.637 49.4387C213.492 49.4387 214.205 49.3601 214.774 49.2028C215.376 49.0455 215.851 48.731 216.199 48.2592C216.579 47.7559 216.864 47.0011 217.054 45.9945C217.244 44.988 217.339 43.667 217.339 42.0314C217.339 40.3644 217.244 39.0433 217.054 38.0682C216.864 37.0617 216.579 36.3226 216.199 35.8508C215.851 35.3475 215.376 35.0172 214.774 34.86C214.205 34.7027 213.492 34.6241 212.637 34.6241C211.814 34.6241 211.102 34.7027 210.5 34.86C209.931 35.0172 209.455 35.3475 209.075 35.8508C208.695 36.3226 208.411 37.0617 208.221 38.0682C208.062 39.0433 207.983 40.3644 207.983 42.0314C207.983 43.667 208.062 44.988 208.221 45.9945C208.411 47.0011 208.695 47.7559 209.075 48.2592C209.455 48.731 209.931 49.0455 210.5 49.2028C211.102 49.3601 211.814 49.4387 212.637 49.4387Z" fill="#010F30"/>
<path d="M65.1934 18.0901C66.3618 17.4906 67.4533 16.7628 68.596 16.1172C67.6223 16.9935 66.4949 17.8031 65.1934 18.0901Z" fill="white"/>
<path d="M44.853 18.326C44.8991 17.2242 46.1033 16.7835 47.0565 16.8963C46.4928 17.2498 45.6883 17.5624 45.6934 18.3567C45.719 19.2125 46.6721 19.4943 47.3588 19.648C46.3851 20.4116 44.7043 19.6173 44.853 18.326Z" fill="#ECF5FB"/>
<path d="M24.494 22.3741C20.251 24.2752 16.2744 26.9092 13.1998 30.4245C10.6324 33.3865 8.62883 36.9479 7.89091 40.8271C8.61854 39.5306 9.1054 38.1009 9.9612 36.871C13.497 30.9626 18.7854 26.2378 24.7707 22.9019C25.4728 22.4919 26.3388 22.2818 26.8359 21.5951C26.0057 21.6873 25.2473 22.0461 24.494 22.3741ZM44.8534 18.3257C44.7047 19.6171 46.3855 20.4114 47.3643 19.6479C46.6776 19.4942 45.7245 19.2123 45.6989 18.3565C45.6886 17.5571 46.4982 17.2497 47.0619 16.896C46.1037 16.7833 44.8995 17.224 44.8534 18.3257ZM53.1139 10.8185C55.84 10.5469 58.6636 9.97809 61.3488 10.798C62.0868 11.0184 63.0553 11.5821 62.8349 12.4993C62.7222 14.3902 60.657 15.0923 59.9396 16.6655C59.0172 18.336 58.8379 20.273 58.8071 22.1435C58.1461 22.1127 57.3621 22.0922 56.9726 21.4619C56.1116 20.1398 56.6138 18.5102 56.7266 17.0549C55.63 18.2796 55.3174 20.0527 55.5582 21.6412C55.6915 22.6815 56.6087 23.5732 57.69 23.4861C60.1959 23.4246 62.4916 22.2664 64.7668 21.3338C64.3005 23.1786 62.8195 24.5263 61.313 25.5717C59.5194 26.6888 57.444 27.5497 55.2969 27.437C54.4821 27.4063 53.7596 27.0014 53.2266 26.3967C53.2317 25.5563 53.119 24.7159 53.16 23.8755C53.2215 21.7899 54.0312 19.8426 54.5385 17.8492C52.171 21.344 52.0685 25.7613 50.2699 29.5072C49.8599 30.3425 49.2296 31.0651 48.4609 31.5877C47.4361 31.8337 46.2061 31.9003 45.3709 31.1266C44.4229 30.2759 44.3204 28.8975 44.4997 27.7189C44.7764 26.2173 45.3555 24.6852 46.529 23.65C46.2626 24.7723 45.9038 25.9611 46.2882 27.1039C46.4009 27.56 46.8826 27.7342 47.2977 27.8264C48.1176 27.8777 48.5686 27.0424 48.835 26.3916C49.3782 24.8851 49.4602 23.2606 50.0546 21.7643C50.521 20.4217 51.1922 19.1661 51.6637 17.8287C50.4851 18.5666 49.6498 19.7042 48.5429 20.5292C47.4975 21.3492 46.2266 21.9538 44.879 21.9948C44.0796 21.9589 43.562 21.2826 43.1161 20.7086C41.0049 21.5337 39.2677 23.0966 37.7868 24.7825C36.6697 25.956 36.0906 27.4934 35.5423 28.9897C35.4449 27.1039 35.8959 25.2335 36.7721 23.568C34.3893 25.2745 33.4412 28.2877 33.5078 31.1163C31.9706 30.9523 30.4024 30.8038 28.8805 31.1266C26.5694 31.6288 24.4223 32.6741 22.3674 33.822C21.0862 34.5241 19.9691 35.4874 18.6983 36.1998C20.0768 33.6478 22.4032 31.7978 24.5402 29.9069C22.0804 31.2188 19.7437 32.7767 17.7144 34.688C14.1632 37.778 11.191 41.606 9.38721 45.972C7.5117 50.2765 6.74817 55.0114 6.94289 59.6952C6.88652 61.6732 7.45021 63.5949 7.51683 65.5575C1.61862 56.7435 -0.969215 45.7773 0.327266 35.2517C0.557866 33.5453 0.870455 31.8388 1.38802 30.1939C1.63912 29.2817 2.34629 28.6105 3.02271 28.0007C4.60616 26.7042 6.47144 25.8074 8.38795 25.1207C6.59443 24.9926 4.83163 25.4231 3.13545 25.9509C3.60689 25.2693 4.31406 24.8235 4.99561 24.3931C8.03442 22.5739 11.6471 21.9128 15.1522 22.0461C14.7832 22.6047 14.281 23.0556 13.8148 23.5373C9.97652 27.6112 6.77891 32.3923 5.02636 37.737C4.34481 39.9252 3.74013 42.1953 3.84262 44.491C4.91362 37.0453 9.13101 30.3323 14.6244 25.3206C17.8989 22.2562 21.6756 19.7606 25.6778 17.7467C29.9669 15.5227 34.6557 14.2109 39.319 13.0169C43.8489 11.9049 48.4814 11.2643 53.1139 10.8185Z" fill="#010F30"/>
<path d="M65.439 19.7351C66.633 19.7505 67.8372 20.3398 68.3445 21.462C69.313 23.1582 68.5239 25.1823 67.4887 26.648C65.6285 29.2512 62.9895 31.2395 60.1045 32.582C59.7458 32.7665 59.3409 32.9152 59.0591 33.2226C56.3842 36.1384 53.0276 38.7928 49.0204 39.4539C48.8512 42.6208 47.9596 46.0387 45.3974 48.1193C42.8915 50.2357 39.3813 50.5175 36.2554 50.0307C37.5468 47.7144 39.2891 45.6749 40.5446 43.3434C39.3044 44.1324 37.9259 44.6756 36.691 45.4802C33.1244 47.6991 29.8755 50.6713 28.0204 54.494C26.7496 57.0665 26.314 60.0131 26.6573 62.8571C27.0622 62.1807 27.1647 61.3812 27.4465 60.6587C28.1281 58.7371 28.8762 56.7898 30.1164 55.1448C34.0263 59.4699 39.7708 61.9962 45.5972 62.027C43.1324 61.0738 40.5651 60.095 38.5768 58.3066C40.7546 59.0189 43.404 58.3425 44.7876 56.4669C45.7714 55.1961 46.7246 53.8894 47.8058 52.6954C50.1015 50.0922 53.1301 47.5761 56.7941 47.6222C55.4873 51.1017 54.5188 54.7554 54.4932 58.4911C54.3497 62.6009 55.4719 66.7876 57.9061 70.1286C59.6688 72.4859 61.9902 74.3973 64.5679 75.7963C64.5935 75.868 64.6396 76.0063 64.6601 76.073C60.1301 77.3746 55.2312 76.8672 50.8549 75.2428C47.1192 73.9412 43.9113 71.5276 40.2268 70.1132C38.546 69.4778 36.7269 68.5811 34.8975 69.1089C35.579 70.4771 36.8344 71.4456 37.6646 72.7165C33.0065 73.808 27.7642 73.4493 23.716 70.7128C23.388 70.4618 23.0703 70.8461 22.8448 71.0511C20.4466 73.2853 19.2987 76.4778 18.4583 79.5678C17.3771 78.6865 16.634 77.4616 15.9935 76.2421C13.9847 72.1169 13.1802 67.3922 13.8258 62.8418C14.5022 57.8454 17.0696 53.2437 20.6413 49.7334C21.8558 48.5958 23.0498 47.3762 24.5256 46.5871C20.5491 51.158 17.3104 56.8923 17.3771 63.1082C18.8119 59.1162 20.6976 55.2627 23.2547 51.8652C27.3133 46.3564 32.9194 42.052 39.1764 39.3206C36.9882 38.1266 35.0153 36.2665 34.4516 33.7504C35.9325 34.8624 37.516 35.877 39.2942 36.4458C42.4149 37.4451 45.8534 37.2657 48.9229 36.1742C50.7268 35.544 52.5101 34.7753 54.0679 33.6581C52.0642 33.9964 50.0093 34.0579 48.0057 33.6684C49.0306 33.4122 50.0862 33.3046 51.1162 33.0688C55.5232 32.085 59.7816 29.989 62.846 26.6172C64.0042 25.3003 65.2135 23.9013 65.6696 22.1693C65.9155 21.3391 65.6747 20.5141 65.439 19.7351Z" fill="#010F30"/>
<path d="M25.6681 37.5833C27.2669 36.912 28.9272 36.3996 30.5465 35.7693C28.9324 37.1888 27.19 38.4442 25.5451 39.8227C27.8152 38.6748 30.4595 37.1375 33.0422 38.2239C32.9499 38.6236 32.7398 38.9823 32.4477 39.2692C30.936 40.904 29.4602 42.6053 27.641 43.9018C26.8211 44.5065 25.8321 44.8651 24.8277 45.0035C22.0195 45.1214 19.0833 44.8805 16.6133 43.4252C17.3307 42.5643 18.1916 41.8468 19.032 41.1141C21.133 39.7356 23.3365 38.5211 25.6681 37.5833Z" fill="#010F30"/>
<path d="M48.5475 20.5292C49.6544 19.7042 50.4897 18.5614 51.6683 17.8286C51.1969 19.1661 50.5255 20.4216 50.0592 21.7642C49.1419 21.8256 48.4194 22.456 47.5585 22.7122C45.601 23.3015 43.5358 23.281 41.5168 23.1427C40.5534 23.5833 39.877 24.434 39.1545 25.177C38.437 25.8996 38.0988 26.8783 37.694 27.7853C37.0893 29.1484 37.2379 30.6756 37.2328 32.1258C37.202 33.781 38.1295 35.3234 39.2979 36.4405C37.5197 35.8717 35.9415 34.857 34.4553 33.7451C34.4092 33.4837 34.3631 33.2275 34.3221 32.9662C33.8199 32.8431 33.2921 32.6946 32.7797 32.8534C29.0081 33.7707 25.5389 35.6667 22.495 38.0496C21.3574 39.0949 19.943 39.838 19.036 41.1243C18.2007 41.857 17.3347 42.5693 16.6172 43.4354C19.0872 44.8958 22.0235 45.1315 24.8317 45.0136C23.7094 45.9361 22.2336 46.1103 20.8603 46.3716C18.9745 46.7662 17.1246 45.9002 15.2388 46.0078C14.4445 47.1352 13.4196 48.1037 12.7945 49.3438C11.7901 51.2962 10.7037 53.2281 10.1195 55.3547C9.49949 57.8401 8.58217 60.269 8.35159 62.8466C8.25936 63.9022 7.89551 64.9067 7.73665 65.952C7.68028 65.8905 7.57267 65.7676 7.52143 65.7061V65.5677C7.4548 63.5999 6.89625 61.6782 6.94749 59.7053C6.75276 55.0217 7.5163 50.2918 9.39186 45.9822C11.1956 41.611 14.1678 37.7883 17.719 34.6982C19.7534 32.7817 22.0902 31.229 24.5447 29.9171C22.4079 31.8081 20.0865 33.6579 18.7029 36.2099C19.9738 35.4925 21.0909 34.5342 22.372 33.8322C24.4269 32.6792 26.574 31.6389 28.8852 31.1367C30.4071 30.8139 31.9803 30.9625 33.5125 31.1265C33.4459 28.3029 34.399 25.2847 36.7767 23.5782C35.9004 25.2436 35.4495 27.1141 35.5468 28.9999C36.0952 27.5035 36.6742 25.9662 37.7913 24.7927C39.2723 23.1119 41.0044 21.5489 43.1208 20.7188C43.5615 21.2927 44.0841 21.9692 44.8835 22.005C46.2262 21.9538 47.5021 21.3543 48.5475 20.5292Z" fill="#37AFE3"/>
<path d="M50.2738 29.5074C52.0724 25.7615 52.175 21.3442 54.5424 17.8494C54.0402 19.8428 53.2306 21.7952 53.1639 23.8757C53.1229 24.7161 53.2357 25.5565 53.2306 26.3969C52.8718 27.8625 52.6361 29.3844 52.0314 30.7731C51.1296 32.7922 48.3009 33.2943 46.5586 32.0901C47.0403 31.5418 47.8858 31.9364 48.4598 31.5879C49.2284 31.0703 49.8639 30.3427 50.2738 29.5074Z" fill="#37AFE3"/>
<path d="M24.4938 22.3741C25.247 22.0513 26.0055 21.6874 26.8356 21.6003C26.3385 22.2819 25.4725 22.4971 24.7705 22.907C18.7851 26.243 13.4916 30.9678 9.9609 36.8762C9.10511 38.1061 8.61832 39.5307 7.89062 40.8323C8.62854 36.9531 10.6322 33.3967 13.1995 30.4297C16.2741 26.9092 20.2507 24.2753 24.4938 22.3741Z" fill="#37AFE3"/>
</g>
</g>
<defs>
<clipPath id="clip0_1_2259">
<rect width="225" height="79.7872" fill="white"/>
</clipPath>
</defs>
</svg>
