<?xml version="1.0" encoding="UTF-8"?>
<svg version="1.1" xmlns="http://www.w3.org/2000/svg" width="622" height="201">
<path d="M0 0 C7.72828214 -0.59551713 13.31578916 0.78420531 20.3125 4 C21.22894287 4.40935791 22.14538574 4.81871582 23.08959961 5.24047852 C35.21853675 10.77306994 46.38752173 17.681958 56 27 C56 27.66 56 28.32 56 29 C91.09680655 32.00361881 118.59443064 30.73043594 151.22265625 16.62890625 C153 16 153 16 156 16 C156 17.32 156 18.64 156 20 C154.86304688 20.49628906 153.72609375 20.99257813 152.5546875 21.50390625 C143.95730201 25.27852781 135.46478651 29.16401084 127.11328125 33.45703125 C123.78540021 35.10635748 120.42506291 36.56535101 117 38 C119.97 38 122.94 38 126 38 C125.67 38.99 125.34 39.98 125 41 C122.68891077 41.92260874 120.43105536 42.69478433 118.0625 43.4375 C108.68755867 46.64466084 101.18551923 51.95515298 93.10595703 57.56640625 C86.83132334 61.83775439 80.25309241 66.05876374 72.9765625 68.328125 C65.41506679 70.4798191 65.41506679 70.4798191 60.296875 76.09765625 C59.55270784 78.50571829 58.8642571 80.93165532 58.23046875 83.37109375 C56.14277773 89.52812536 51.94949181 93.82386629 47 98 C44.1875 99.296875 44.1875 99.296875 42 100 C42 98.68 42 97.36 42 96 C42.66 96 43.32 96 44 96 C45.00109515 92.68929162 45.10356134 89.69915231 45.0625 86.25 C45.05347656 85.26515625 45.04445313 84.2803125 45.03515625 83.265625 C45.02355469 82.51796875 45.01195312 81.7703125 45 81 C32.54930059 84.75181076 20.54612496 88.68081256 13 100 C13.19550722 105.27869496 14.32054003 108.20555691 18 112 C18.33 112 18.66 112 19 112 C17.515 110.02 17.515 110.02 16 108 C19.22294332 106.92568556 19.85565066 107.05250135 22.96484375 107.92578125 C28.52118379 109.2623154 33.87243966 109.25820709 39.5625 109.1875 C40.55185547 109.18685547 41.54121094 109.18621094 42.56054688 109.18554688 C48.12724567 109.15230183 53.4935738 108.81843433 59 108 C59.41958984 106.78376953 59.41958984 106.78376953 59.84765625 105.54296875 C64.32541473 93.17514066 70.20151334 80.93985164 82.6875 75.0625 C85.71550251 74.09125391 87.85755758 73.71432342 91 74 C89.86250085 77.41249744 89.09887768 77.85169728 86.3125 79.9375 C80.30825916 85.02382632 76.28570224 92.42718488 75.125 100.25 C75.08375 101.1575 75.0425 102.065 75 103 C81.40056045 100.01202338 87.45285427 96.57216755 93.5 92.9375 C103.61741048 86.89185183 112.34108784 82.82561764 124.3125 82.9375 C125.56675781 82.94652344 126.82101563 82.95554687 128.11328125 82.96484375 C129.06589844 82.97644531 130.01851562 82.98804687 131 83 C131.21432579 89.64409958 130.51233701 95.53205867 129 102 C127.9275 101.835 126.855 101.67 125.75 101.5 C108.84796336 99.47651674 95.95880925 104.08058316 80.91601562 111.19970703 C78.96438979 112.01487389 77.0617648 112.54074705 75 113 C75 113.99 75 114.98 75 116 C76.0621875 115.46890625 77.124375 114.9378125 78.21875 114.390625 C86.71875 110.140625 86.71875 110.140625 88.87060547 109.07275391 C90.26903808 108.36824658 91.65917568 107.64697726 93.03955078 106.90771484 C97.57838086 104.51028152 101.82340644 103.02532084 106.875 102.125 C107.56682373 101.99770508 108.25864746 101.87041016 108.97143555 101.73925781 C114.72635722 100.80301837 119.50379416 101.16420009 125 103 C125.99 103.33 126.98 103.66 128 104 C126.79393001 110.98688821 124.6738658 116.04566289 120.875 122 C120.1325 123.18227173 120.1325 123.18227173 119.375 124.38842773 C115.7263023 130.0936534 111.95440293 135.34586392 107 140 C106.21625 140.7425 105.4325 141.485 104.625 142.25 C97.74249235 148.3131615 90.30609951 152.44230451 81.97167969 156.12304688 C80.19519571 156.9131819 78.44332196 157.75809853 76.6953125 158.609375 C60.98396906 165.18965531 38.3586736 164.73176758 22.51953125 158.60546875 C21.35808594 158.07566406 20.19664063 157.54585937 19 157 C18.34435059 156.71592285 17.68870117 156.4318457 17.01318359 156.13916016 C5.17545338 150.97223036 -5.97742721 144.31702861 -14 134 C-14.82113281 133.20464844 -15.64226562 132.40929687 -16.48828125 131.58984375 C-19.22187505 128.77122371 -21.14718384 125.91303853 -23.1875 122.5625 C-23.86167969 121.47066406 -24.53585938 120.37882812 -25.23046875 119.25390625 C-26.88971742 116.20279335 -28.02236224 113.32396837 -29 110 C-25.67485839 110.6181353 -24.88840752 111.1039839 -22.25 113.5625 C-8.62006044 125.6231075 12.24920509 130.78961769 30.03564453 129.89794922 C40.07656662 129.18024599 49.44060812 127.12081573 59 124 C51.29409566 126.7312066 43.99039545 127.32582406 35.875 127.375 C34.9576709 127.38853516 34.0403418 127.40207031 33.09521484 127.41601562 C24.32302891 127.35949179 16.69144451 125.25053512 9 121 C9 121.66 9 122.32 9 123 C3.54775392 122.46321914 -1.35578854 121.50245311 -6.5 119.5625 C-7.52105835 119.18085693 -7.52105835 119.18085693 -8.56274414 118.79150391 C-15.37167597 116.09729416 -21.30952403 112.26569109 -27.41796875 108.27734375 C-36.86017641 102.15019089 -46.23139832 99.42192614 -57.49609375 101.44921875 C-59.34466977 101.91383411 -61.1752669 102.44913718 -63 103 C-63.4375 100.4375 -63.4375 100.4375 -63 97 C-58.84805346 91.14278971 -53.49467527 87.88646908 -46.46484375 86.5 C-37.00410306 85.22260041 -29.4894779 88.12436879 -21 92 C-21.16008545 91.42507812 -21.3201709 90.85015625 -21.48510742 90.2578125 C-23.8607067 79.84077025 -23.13249147 66.36146367 -18 57 C-13.24721457 49.790652 -7.9175674 43.21253318 -1 38 C-0.34 38 0.32 38 1 38 C1.28875 37.278125 1.5775 36.55625 1.875 35.8125 C2.55938604 34.10153489 3.26914731 32.40006858 4.0234375 30.71875 C6.73686882 23.16455722 6.80771668 14.48724449 4 7 C1.9884805 4.19195735 1.9884805 4.19195735 0 2 C0 1.34 0 0.68 0 0 Z M48 30 C52 31 52 31 52 31 Z M42 31 C46 32 46 32 46 32 Z M19.53125 39.1328125 C5.12569021 46.59656268 -4.90424295 58.02344144 -10.1328125 73.3125 C-11.07509944 77.31934177 -11.19773819 80.82779204 -11.125 84.9375 C-11.11597656 85.62134766 -11.10695312 86.30519531 -11.09765625 87.00976562 C-11.07438958 88.67333287 -11.03853167 90.33671631 -11 92 C-10.67 92 -10.34 92 -10 92 C-9.98582031 91.15179688 -9.97164062 90.30359375 -9.95703125 89.4296875 C-9.45277186 77.02763228 -6.7435298 66.18669052 1.64453125 56.671875 C3.20992412 55.09979265 3.20992412 55.09979265 3 53 C3.90492187 52.58621094 3.90492187 52.58621094 4.828125 52.1640625 C7.26138731 50.9842528 7.26138731 50.9842528 9.75 48.375 C13.45174466 45.10686534 17.54615986 42.99604488 21.9375 40.8125 C22.60555664 40.47976074 23.27361328 40.14702148 23.96191406 39.80419922 C28.55022322 37.57715789 33.20308199 35.73117823 38 34 C32.00040831 32.0001361 25.05546167 36.59796854 19.53125 39.1328125 Z M85 39 C85.99 39.99 86.98 40.98 88 42 C88.33 41.01 88.66 40.02 89 39 C87.68 39 86.36 39 85 39 Z M71.3125 43.875 C70.27899414 44.13603516 70.27899414 44.13603516 69.22460938 44.40234375 C67.46444161 44.86964493 65.72914224 45.42848616 64 46 C63.67 46.66 63.34 47.32 63 48 C64.63455248 52.04336666 66.06025367 54.97688702 70 57 C76.94661389 58.70618587 82.29065179 57.18300484 89 55 C89 54.67 89 54.34 89 54 C87.35 54 85.7 54 84 54 C85 51 85 51 86.70703125 49.97265625 C87.40183594 49.67230469 88.09664062 49.37195313 88.8125 49.0625 C92.19450179 47.48989953 94.53999221 45.87000909 97 43 C92.27934033 44.54269924 87.58335908 46.07794619 83 48 C83 47.01 83 46.02 83 45 C83.66 44.67 84.32 44.34 85 44 C84.34 43.34 83.68 42.68 83 42 C78.83498925 42 75.29249226 42.80710484 71.3125 43.875 Z M51 51 C51 51.33 51 51.66 51 52 C55.455 52.99 55.455 52.99 60 54 C59.34 52.35 58.68 50.7 58 49 C55.3534665 49 53.4191837 49.98139634 51 51 Z M61 57 C59.02 58.32 57.04 59.64 55 61 C57.78823655 62.0326802 58.8677274 62.04509293 61.75 61.0625 C62.4925 60.711875 63.235 60.36125 64 60 C63.01 59.01 62.02 58.02 61 57 Z M11.69140625 74.1484375 C5.19711487 81.21534382 1.70929746 88.81021734 1.765625 98.4140625 C2.1010721 102.11516215 3.28949065 104.72152375 5 108 C5.33 108 5.66 108 6 108 C6.08636719 107.2265625 6.17273438 106.453125 6.26171875 105.65625 C7.09356907 99.48987329 8.12375082 94.80356593 11.78125 89.71875 C13.08045253 88.01209602 13.08045253 88.01209602 13.90625 85.90625 C15.27655939 83.51799648 16.51536468 83.09286591 19 82 C20.09951697 81.14542493 21.18184058 80.26846045 22.25 79.375 C31.85247291 72.04773989 43.83576273 67.39803286 55 63 C52.04802536 61.42470031 49.14184078 60.33195245 45.9375 59.375 C45.08027344 59.11460938 44.22304687 58.85421875 43.33984375 58.5859375 C32.14619707 55.78285402 19.37266064 67.00006201 11.69140625 74.1484375 Z M-21 92 C-20 95 -20 95 -20 95 Z M-10 93 C-9 96 -9 96 -9 96 Z M-9 97 C-8 99 -8 99 -8 99 Z M-18 99 C-17.67 99.99 -17.34 100.98 -17 102 C-17 101.01 -17 100.02 -17 99 C-17.33 99 -17.66 99 -18 99 Z M-8 100 C-7.67 101.65 -7.34 103.3 -7 105 C-6.67 104.34 -6.34 103.68 -6 103 C-6.66 102.01 -7.32 101.02 -8 100 Z M-15 103 C-14.67 103.99 -14.34 104.98 -14 106 C-14 105.01 -14 104.02 -14 103 C-14.33 103 -14.66 103 -15 103 Z M-6 105 C-5 107 -5 107 -5 107 Z M73 106 C73 107.98 73 109.96 73 112 C73.33 112 73.66 112 74 112 C74 110.02 74 108.04 74 106 C73.67 106 73.34 106 73 106 Z M-11 107 C-10.67 107.66 -10.34 108.32 -10 109 C-9.34 109 -8.68 109 -8 109 C-8 108.34 -8 107.68 -8 107 C-8.99 107 -9.98 107 -11 107 Z M6 108 C7 110 7 110 7 110 Z M58 110 C59 113 59 113 59 113 Z M-1 112 C0.04874998 114.62187494 0.64931313 115.79371361 3.125 117.25 C3.74375 117.4975 4.3625 117.745 5 118 C3.35830472 115.97945196 1.69088222 113.97956942 0 112 C-0.33 112 -0.66 112 -1 112 Z M57 113 C58 115 58 115 58 115 Z M55 115 C54.34 115.66 53.68 116.32 53 117 C54.32 117 55.64 117 57 117 C57 116.34 57 115.68 57 115 C56.34 115 55.68 115 55 115 Z M26 116 C32.4238556 120.2825704 40.88096993 120.49371241 48.3125 119.125 C49.88004626 118.77168715 51.44503253 118.40510175 53 118 C53 117.67 53 117.34 53 117 C51.88882813 117.01160156 50.77765625 117.02320313 49.6328125 117.03515625 C41.67698604 117.09238598 33.90800301 117.00419086 26 116 Z M77 122 C78 124 78 124 78 124 Z " fill="#11598E" transform="translate(98,21)"/>
<path d="M0 0 C7.72828214 -0.59551713 13.31578916 0.78420531 20.3125 4 C21.22894287 4.40935791 22.14538574 4.81871582 23.08959961 5.24047852 C35.44275845 10.87534824 45.82916827 18.05699841 56 27 C55.505 28.485 55.505 28.485 55 30 C53.43765625 30.22042969 53.43765625 30.22042969 51.84375 30.4453125 C32.42253932 33.40051554 13.09438818 40.12148655 -0.11328125 55.453125 C-4.11221059 60.89920436 -6.90612617 66.58328987 -9 73 C-9.29003906 73.88171875 -9.29003906 73.88171875 -9.5859375 74.78125 C-11.59699808 85.55749914 -10.94590727 97.76215857 -5.04296875 107.09375 C-0.91072334 112.8943807 3.0172118 117.18119902 9 121 C9 121.66 9 122.32 9 123 C3.54775392 122.46321914 -1.35578854 121.50245311 -6.5 119.5625 C-7.52105835 119.18085693 -7.52105835 119.18085693 -8.56274414 118.79150391 C-15.37167597 116.09729416 -21.30952403 112.26569109 -27.41796875 108.27734375 C-36.86017641 102.15019089 -46.23139832 99.42192614 -57.49609375 101.44921875 C-59.34466977 101.91383411 -61.1752669 102.44913718 -63 103 C-63.4375 100.4375 -63.4375 100.4375 -63 97 C-58.84805346 91.14278971 -53.49467527 87.88646908 -46.46484375 86.5 C-37.00410306 85.22260041 -29.4894779 88.12436879 -21 92 C-21.16008545 91.42507812 -21.3201709 90.85015625 -21.48510742 90.2578125 C-23.8607067 79.84077025 -23.13249147 66.36146367 -18 57 C-13.24721457 49.790652 -7.9175674 43.21253318 -1 38 C-0.34 38 0.32 38 1 38 C1.28875 37.278125 1.5775 36.55625 1.875 35.8125 C2.55938604 34.10153489 3.26914731 32.40006858 4.0234375 30.71875 C6.73686882 23.16455722 6.80771668 14.48724449 4 7 C1.9884805 4.19195735 1.9884805 4.19195735 0 2 C0 1.34 0 0.68 0 0 Z M-21 92 C-20 95 -20 95 -20 95 Z M-18 99 C-17.67 99.99 -17.34 100.98 -17 102 C-17 101.01 -17 100.02 -17 99 C-17.33 99 -17.66 99 -18 99 Z M-15 103 C-14.67 103.99 -14.34 104.98 -14 106 C-14 105.01 -14 104.02 -14 103 C-14.33 103 -14.66 103 -15 103 Z M-11 107 C-10.67 107.66 -10.34 108.32 -10 109 C-9.34 109 -8.68 109 -8 109 C-8 108.34 -8 107.68 -8 107 C-8.99 107 -9.98 107 -11 107 Z " fill="#1174BB" transform="translate(98,21)"/>
<path d="M0 0 C1.65322266 0.01740234 1.65322266 0.01740234 3.33984375 0.03515625 C4.44457031 0.04417969 5.54929687 0.05320312 6.6875 0.0625 C7.54214844 0.07410156 8.39679687 0.08570312 9.27734375 0.09765625 C9.30261023 7.62735277 9.32017516 15.15703845 9.33227539 22.68676758 C9.33731745 25.25057382 9.34415089 27.81437716 9.3527832 30.37817383 C9.36485439 34.05420646 9.37057317 37.73020123 9.375 41.40625 C9.38016129 42.56039902 9.38532257 43.71454803 9.39064026 44.90367126 C9.39071579 45.96469559 9.39079132 47.02571991 9.39086914 48.11889648 C9.39308975 49.05821518 9.39531036 49.99753387 9.39759827 50.96531677 C9.27734375 53.09765625 9.27734375 53.09765625 8.27734375 54.09765625 C6.3515625 54.265625 6.3515625 54.265625 3.96484375 54.28515625 C3.18496094 54.29933594 2.40507813 54.31351563 1.6015625 54.328125 C-0.92797033 54.07729738 -2.48549583 53.2450411 -4.72265625 52.09765625 C-6.06511937 52.74574189 -7.39698426 53.41588209 -8.72265625 54.09765625 C-13.92295284 54.57916519 -17.42859599 54.15121021 -21.72265625 51.09765625 C-27.18594491 43.90911854 -26.75730953 34.76121228 -25.72265625 26.09765625 C-24.58856493 21.57403355 -22.83888398 18.92833735 -19.03515625 16.09765625 C-13.82607963 14.52510482 -8.90069495 14.37164335 -3.72265625 16.09765625 C-3.73425781 15.02644531 -3.74585938 13.95523438 -3.7578125 12.8515625 C-3.76718924 11.45442882 -3.77628956 10.05729326 -3.78515625 8.66015625 C-3.79353516 7.95310547 -3.80191406 7.24605469 -3.81054688 6.51757812 C-3.81919213 4.71072066 -3.77485636 2.90378022 -3.72265625 1.09765625 C-2.72265625 0.09765625 -2.72265625 0.09765625 0 0 Z M-10.72265625 25.09765625 C-13.12006271 28.69376594 -12.96253317 30.39857952 -12.91015625 34.66015625 C-12.90371094 35.81644531 -12.89726562 36.97273438 -12.890625 38.1640625 C-12.92036801 41.03169427 -12.92036801 41.03169427 -11.72265625 43.09765625 C-9.08265625 43.09765625 -6.44265625 43.09765625 -3.72265625 43.09765625 C-3.69581313 40.28509344 -3.67589437 37.47278384 -3.66015625 34.66015625 C-3.65177734 33.85771484 -3.64339844 33.05527344 -3.63476562 32.22851562 C-3.62614195 30.18470404 -3.67037475 28.14081723 -3.72265625 26.09765625 C-4.83524216 24.77020459 -4.83524216 24.77020459 -7.66015625 24.84765625 C-8.67078125 24.93015625 -9.68140625 25.01265625 -10.72265625 25.09765625 Z " fill="#1376BC" transform="translate(520.72265625,110.90234375)"/>
<path d="M0 0 C1.65322266 0.01740234 1.65322266 0.01740234 3.33984375 0.03515625 C4.44457031 0.04417969 5.54929687 0.05320313 6.6875 0.0625 C7.54214844 0.07410156 8.39679688 0.08570313 9.27734375 0.09765625 C9.30261023 7.62735277 9.32017516 15.15703845 9.33227539 22.68676758 C9.33731745 25.25057382 9.34415089 27.81437716 9.3527832 30.37817383 C9.36485439 34.05420646 9.37057317 37.73020123 9.375 41.40625 C9.38016129 42.56039902 9.38532257 43.71454803 9.39064026 44.90367126 C9.39071579 45.96469559 9.39079132 47.02571991 9.39086914 48.11889648 C9.39308975 49.05821518 9.39531036 49.99753387 9.39759827 50.96531677 C9.27734375 53.09765625 9.27734375 53.09765625 8.27734375 54.09765625 C6.3515625 54.265625 6.3515625 54.265625 3.96484375 54.28515625 C3.18496094 54.29933594 2.40507812 54.31351563 1.6015625 54.328125 C-0.92797033 54.07729738 -2.48549583 53.2450411 -4.72265625 52.09765625 C-6.06511937 52.74574189 -7.39698426 53.41588209 -8.72265625 54.09765625 C-13.92295284 54.57916519 -17.42859599 54.15121021 -21.72265625 51.09765625 C-27.18594491 43.90911854 -26.75730953 34.76121228 -25.72265625 26.09765625 C-24.58856493 21.57403355 -22.83888398 18.92833735 -19.03515625 16.09765625 C-13.82607963 14.52510482 -8.90069495 14.37164335 -3.72265625 16.09765625 C-3.73425781 15.02644531 -3.74585938 13.95523438 -3.7578125 12.8515625 C-3.76718924 11.45442882 -3.77628956 10.05729326 -3.78515625 8.66015625 C-3.79353516 7.95310547 -3.80191406 7.24605469 -3.81054688 6.51757812 C-3.81919213 4.71072066 -3.77485636 2.90378022 -3.72265625 1.09765625 C-2.72265625 0.09765625 -2.72265625 0.09765625 0 0 Z M-10.72265625 25.09765625 C-13.12006271 28.69376594 -12.96253317 30.39857952 -12.91015625 34.66015625 C-12.90371094 35.81644531 -12.89726562 36.97273438 -12.890625 38.1640625 C-12.92036801 41.03169427 -12.92036801 41.03169427 -11.72265625 43.09765625 C-9.08265625 43.09765625 -6.44265625 43.09765625 -3.72265625 43.09765625 C-3.69581313 40.28509344 -3.67589437 37.47278384 -3.66015625 34.66015625 C-3.65177734 33.85771484 -3.64339844 33.05527344 -3.63476562 32.22851562 C-3.62614195 30.18470404 -3.67037475 28.14081723 -3.72265625 26.09765625 C-4.83524216 24.77020459 -4.83524216 24.77020459 -7.66015625 24.84765625 C-8.67078125 24.93015625 -9.68140625 25.01265625 -10.72265625 25.09765625 Z " fill="#125B90" transform="translate(360.72265625,36.90234375)"/>
<path d="M0 0 C0 3.3 0 6.6 0 10 C-2.76565382 10.92188461 -4.38283702 11.11785222 -7.23046875 11.09765625 C-8.03291016 11.09443359 -8.83535156 11.09121094 -9.66210938 11.08789062 C-10.91217773 11.07532227 -10.91217773 11.07532227 -12.1875 11.0625 C-13.4549707 11.05573242 -13.4549707 11.05573242 -14.74804688 11.04882812 C-16.83206155 11.03705403 -18.91603977 11.0191189 -21 11 C-21 13.31 -21 15.62 -21 18 C-20.05898438 18.03738281 -19.11796875 18.07476562 -18.1484375 18.11328125 C-16.28058594 18.21189453 -16.28058594 18.21189453 -14.375 18.3125 C-13.14523437 18.37050781 -11.91546875 18.42851562 -10.6484375 18.48828125 C-5.71967525 19.17957446 -2.37920266 20.3408746 0.84765625 24.22265625 C2.31539974 27.76016683 2.43364801 30.61247153 2.4375 34.4375 C2.45683594 35.71496094 2.47617187 36.99242187 2.49609375 38.30859375 C1.92221091 42.57882435 0.72227792 44.6971646 -2 48 C-10.17946662 52.62988677 -20.97577354 52.22046342 -29.9375 50 C-30.948125 49.67 -31.95875 49.34 -33 49 C-33 45.7 -33 42.4 -33 39 C-25.41 38.67 -17.82 38.34 -10 38 C-10.33 36.02 -10.66 34.04 -11 32 C-11.7734375 31.97421875 -12.546875 31.9484375 -13.34375 31.921875 C-25.84054504 31.24135646 -25.84054504 31.24135646 -31 27 C-34.43618432 21.630962 -34.74509604 16.27290311 -34 10 C-33.10154872 6.51687366 -31.78226104 3.81019894 -29.25 1.1875 C-19.68740713 -3.85942401 -10.11786682 -2.11813287 0 0 Z " fill="#1376BC" transform="translate(308,114)"/>
<path d="M0 0 C3.59432258 2.89542653 5.10842224 5.49951172 5.60644531 10.11816406 C5.59709961 11.34245117 5.58775391 12.56673828 5.578125 13.828125 C5.57625183 14.48455994 5.57437866 15.14099487 5.57244873 15.81732178 C5.56575921 17.19564951 5.5519067 18.57395927 5.53125 19.95214844 C5.49989132 22.06983931 5.49025534 24.18678667 5.484375 26.3046875 C5.41370461 36.64879539 5.41370461 36.64879539 4.25 37.8125 C2.41884117 37.91101171 0.58380067 37.94222629 -1.25 37.9375 C-2.2503125 37.94007812 -3.250625 37.94265625 -4.28125 37.9453125 C-6.75 37.8125 -6.75 37.8125 -7.75 36.8125 C-7.90786308 34.96075294 -8.00107356 33.1034089 -8.06640625 31.24609375 C-8.10830078 30.12138672 -8.15019531 28.99667969 -8.19335938 27.83789062 C-8.23267578 26.65388672 -8.27199219 25.46988281 -8.3125 24.25 C-8.35568359 23.06212891 -8.39886719 21.87425781 -8.44335938 20.65039062 C-8.54983546 17.70455216 -8.65184841 14.7586257 -8.75 11.8125 C-11.39 11.8125 -14.03 11.8125 -16.75 11.8125 C-16.74476318 12.5645874 -16.73952637 13.3166748 -16.73413086 14.09155273 C-16.71342773 17.47769342 -16.70036123 20.86382084 -16.6875 24.25 C-16.67912109 25.43400391 -16.67074219 26.61800781 -16.66210938 27.83789062 C-16.65888672 28.96259766 -16.65566406 30.08730469 -16.65234375 31.24609375 C-16.64710693 32.28822021 -16.64187012 33.33034668 -16.63647461 34.40405273 C-16.75 36.8125 -16.75 36.8125 -17.75 37.8125 C-19.58115883 37.91101171 -21.41619933 37.94222629 -23.25 37.9375 C-24.2503125 37.94007812 -25.250625 37.94265625 -26.28125 37.9453125 C-28.75 37.8125 -28.75 37.8125 -29.75 36.8125 C-29.83858646 34.07355915 -29.86523479 31.3599673 -29.84765625 28.62109375 C-29.8462413 27.80125504 -29.84482635 26.98141632 -29.84336853 26.13673401 C-29.83775289 23.50778618 -29.82519779 20.87892227 -29.8125 18.25 C-29.80748701 16.47200643 -29.80292376 14.69401154 -29.79882812 12.91601562 C-29.78777839 8.54814455 -29.77050331 4.18033652 -29.75 -0.1875 C-27.95866022 -0.24141993 -26.16686101 -0.28025571 -24.375 -0.3125 C-23.37726563 -0.33570313 -22.37953125 -0.35890625 -21.3515625 -0.3828125 C-18.75 -0.1875 -18.75 -0.1875 -16.75 1.8125 C-15.739375 1.3175 -14.72875 0.8225 -13.6875 0.3125 C-8.92086053 -1.70971068 -4.84434567 -2.09187654 0 0 Z " fill="#125B90" transform="translate(444.75,53.1875)"/>
<path d="M0 0 C3.59432258 2.89542653 5.10842224 5.49951172 5.60644531 10.11816406 C5.59709961 11.34245117 5.58775391 12.56673828 5.578125 13.828125 C5.57625183 14.48455994 5.57437866 15.14099487 5.57244873 15.81732178 C5.56575921 17.19564951 5.5519067 18.57395927 5.53125 19.95214844 C5.49989132 22.06983931 5.49025534 24.18678667 5.484375 26.3046875 C5.41370461 36.64879539 5.41370461 36.64879539 4.25 37.8125 C2.41884117 37.91101171 0.58380067 37.94222629 -1.25 37.9375 C-2.2503125 37.94007812 -3.250625 37.94265625 -4.28125 37.9453125 C-6.75 37.8125 -6.75 37.8125 -7.75 36.8125 C-7.90786308 34.96075294 -8.00107356 33.1034089 -8.06640625 31.24609375 C-8.10830078 30.12138672 -8.15019531 28.99667969 -8.19335938 27.83789062 C-8.23267578 26.65388672 -8.27199219 25.46988281 -8.3125 24.25 C-8.35568359 23.06212891 -8.39886719 21.87425781 -8.44335938 20.65039062 C-8.54983546 17.70455216 -8.65184841 14.7586257 -8.75 11.8125 C-11.39 11.8125 -14.03 11.8125 -16.75 11.8125 C-16.74476318 12.5645874 -16.73952637 13.3166748 -16.73413086 14.09155273 C-16.71342773 17.47769342 -16.70036123 20.86382084 -16.6875 24.25 C-16.67912109 25.43400391 -16.67074219 26.61800781 -16.66210938 27.83789062 C-16.65888672 28.96259766 -16.65566406 30.08730469 -16.65234375 31.24609375 C-16.64710693 32.28822021 -16.64187012 33.33034668 -16.63647461 34.40405273 C-16.75 36.8125 -16.75 36.8125 -17.75 37.8125 C-19.58115883 37.91101171 -21.41619933 37.94222629 -23.25 37.9375 C-24.2503125 37.94007812 -25.250625 37.94265625 -26.28125 37.9453125 C-28.75 37.8125 -28.75 37.8125 -29.75 36.8125 C-29.83858646 34.07355915 -29.86523479 31.3599673 -29.84765625 28.62109375 C-29.8462413 27.80125504 -29.84482635 26.98141632 -29.84336853 26.13673401 C-29.83775289 23.50778618 -29.82519779 20.87892227 -29.8125 18.25 C-29.80748701 16.47200643 -29.80292376 14.69401154 -29.79882812 12.91601562 C-29.78777839 8.54814455 -29.77050331 4.18033652 -29.75 -0.1875 C-27.95866022 -0.24141993 -26.16686101 -0.28025571 -24.375 -0.3125 C-23.37726563 -0.33570313 -22.37953125 -0.35890625 -21.3515625 -0.3828125 C-18.75 -0.1875 -18.75 -0.1875 -16.75 1.8125 C-15.739375 1.3175 -14.72875 0.8225 -13.6875 0.3125 C-8.92086053 -1.70971068 -4.84434567 -2.09187654 0 0 Z " fill="#125B90" transform="translate(324.75,53.1875)"/>
<path d="M0 0 C3.63202573 2.21744729 5.11497269 4.2243218 6.375 8.375 C7.63817227 15.78275603 8.02366013 23.22886252 5.375 30.375 C2.25611861 34.53350852 -0.5530632 36.34182769 -5.625 37.375 C-12.32489043 37.94261553 -17.77096081 37.83963544 -23.625 34.375 C-28.71001765 29.1561661 -28.82336897 24.5347278 -28.875 17.5 C-28.895625 16.80519531 -28.91625 16.11039063 -28.9375 15.39453125 C-28.97351088 10.61408651 -28.14595819 7.42653995 -25.625 3.375 C-18.81834807 -2.92115303 -8.49025823 -3.81033935 0 0 Z M-15.625 10.375 C-15.72475032 12.88636104 -15.76382183 15.36403415 -15.75 17.875 C-15.75386719 18.57753906 -15.75773437 19.28007812 -15.76171875 20.00390625 C-16.06890931 23.47928808 -16.06890931 23.47928808 -14.625 26.375 C-11.125 26.54166667 -11.125 26.54166667 -7.625 26.375 C-5.86940058 24.61940058 -6.49278081 22.33917558 -6.48828125 20.00390625 C-6.49214844 19.30136719 -6.49601562 18.59882813 -6.5 17.875 C-6.49613281 17.17246094 -6.49226563 16.46992188 -6.48828125 15.74609375 C-6.18109069 12.27071192 -6.18109069 12.27071192 -7.625 9.375 C-11.9412525 8.83233887 -11.9412525 8.83233887 -15.625 10.375 Z " fill="#1376BC" transform="translate(484.625,127.625)"/>
<path d="M0 0 C3.63202573 2.21744729 5.11497269 4.2243218 6.375 8.375 C7.63817227 15.78275603 8.02366013 23.22886252 5.375 30.375 C2.25611861 34.53350852 -0.5530632 36.34182769 -5.625 37.375 C-12.32489043 37.94261553 -17.77096081 37.83963544 -23.625 34.375 C-28.71001765 29.1561661 -28.82336897 24.5347278 -28.875 17.5 C-28.895625 16.80519531 -28.91625 16.11039063 -28.9375 15.39453125 C-28.97351088 10.61408651 -28.14595819 7.42653995 -25.625 3.375 C-18.81834807 -2.92115303 -8.49025823 -3.81033935 0 0 Z M-15.625 10.375 C-15.72475032 12.88636104 -15.76382183 15.36403415 -15.75 17.875 C-15.75386719 18.57753906 -15.75773437 19.28007812 -15.76171875 20.00390625 C-16.06890931 23.47928808 -16.06890931 23.47928808 -14.625 26.375 C-11.125 26.54166667 -11.125 26.54166667 -7.625 26.375 C-5.86940058 24.61940058 -6.49278081 22.33917558 -6.48828125 20.00390625 C-6.49214844 19.30136719 -6.49601562 18.59882813 -6.5 17.875 C-6.49613281 17.17246094 -6.49226563 16.46992188 -6.48828125 15.74609375 C-6.18109069 12.27071192 -6.18109069 12.27071192 -7.625 9.375 C-11.9412525 8.83233887 -11.9412525 8.83233887 -15.625 10.375 Z " fill="#1376BC" transform="translate(445.625,127.625)"/>
<path d="M0 0 C3.63202573 2.21744729 5.11497269 4.2243218 6.375 8.375 C7.63817227 15.78275603 8.02366013 23.22886252 5.375 30.375 C2.25611861 34.53350852 -0.5530632 36.34182769 -5.625 37.375 C-12.32489043 37.94261553 -17.77096081 37.83963544 -23.625 34.375 C-28.71001765 29.1561661 -28.82336897 24.5347278 -28.875 17.5 C-28.895625 16.80519531 -28.91625 16.11039063 -28.9375 15.39453125 C-28.97351088 10.61408651 -28.14595819 7.42653995 -25.625 3.375 C-18.81834807 -2.92115303 -8.49025823 -3.81033935 0 0 Z M-15.625 10.375 C-15.72475032 12.88636104 -15.76382183 15.36403415 -15.75 17.875 C-15.75386719 18.57753906 -15.75773437 19.28007813 -15.76171875 20.00390625 C-16.06890931 23.47928808 -16.06890931 23.47928808 -14.625 26.375 C-11.125 26.54166667 -11.125 26.54166667 -7.625 26.375 C-5.86940058 24.61940058 -6.49278081 22.33917558 -6.48828125 20.00390625 C-6.49214844 19.30136719 -6.49601562 18.59882812 -6.5 17.875 C-6.49613281 17.17246094 -6.49226563 16.46992187 -6.48828125 15.74609375 C-6.18109069 12.27071192 -6.18109069 12.27071192 -7.625 9.375 C-11.9412525 8.83233887 -11.9412525 8.83233887 -15.625 10.375 Z " fill="#125B90" transform="translate(403.625,53.625)"/>
<path d="M0 0 C1.97026205 1.63683309 2.58545162 2.86423166 3.5234375 5.265625 C3.76635742 8.45776367 3.76635742 8.45776367 3.75390625 12.18359375 C3.75344803 12.84144363 3.75298981 13.49929352 3.7525177 14.17707825 C3.74950661 15.56134862 3.74165461 16.94561594 3.72924805 18.32983398 C3.71090979 20.45633835 3.70873907 22.58240892 3.70898438 24.70898438 C3.67098567 35.11807683 3.67098567 35.11807683 2.5234375 36.265625 C-4.99895056 36.50443097 -4.99895056 36.50443097 -7.4765625 35.265625 C-7.4765625 34.605625 -7.4765625 33.945625 -7.4765625 33.265625 C-8.6315625 33.760625 -9.7865625 34.255625 -10.9765625 34.765625 C-16.03018493 36.65625325 -20.49172852 37.07233689 -25.7890625 35.640625 C-29.36522626 32.72671379 -30.37321752 29.23017814 -30.8515625 24.765625 C-30.4255976 20.78995265 -29.78367321 18.54023375 -27.4765625 15.265625 C-21.68755145 11.6474931 -16.15576545 11.93951563 -9.4765625 12.265625 C-9.8065625 11.275625 -10.1365625 10.285625 -10.4765625 9.265625 C-11.61996094 9.20503906 -12.76335937 9.14445313 -13.94140625 9.08203125 C-15.43230555 8.99764072 -16.92319025 8.91299198 -18.4140625 8.828125 C-19.16880859 8.78880859 -19.92355469 8.74949219 -20.70117188 8.70898438 C-26.36328125 8.37890625 -26.36328125 8.37890625 -27.4765625 7.265625 C-27.51749187 4.93265067 -27.51897973 2.59857275 -27.4765625 0.265625 C-18.39839179 -3.58572015 -8.94244772 -4.75421271 0 0 Z M-16.4765625 20.265625 C-17.15614853 22.66281932 -17.15614853 22.66281932 -17.4765625 25.265625 C-16.8165625 25.925625 -16.1565625 26.585625 -15.4765625 27.265625 C-12.37729431 26.94363534 -12.37729431 26.94363534 -9.4765625 26.265625 C-9.4765625 23.955625 -9.4765625 21.645625 -9.4765625 19.265625 C-13.37115324 19.05480649 -13.37115324 19.05480649 -16.4765625 20.265625 Z " fill="#1376BC" transform="translate(380.4765625,128.734375)"/>
<path d="M0 0 C1.97026205 1.63683309 2.58545162 2.86423166 3.5234375 5.265625 C3.76635742 8.45776367 3.76635742 8.45776367 3.75390625 12.18359375 C3.75344803 12.84144363 3.75298981 13.49929352 3.7525177 14.17707825 C3.74950661 15.56134862 3.74165461 16.94561594 3.72924805 18.32983398 C3.71090979 20.45633835 3.70873907 22.58240892 3.70898438 24.70898438 C3.67098567 35.11807683 3.67098567 35.11807683 2.5234375 36.265625 C-4.99895056 36.50443097 -4.99895056 36.50443097 -7.4765625 35.265625 C-7.4765625 34.605625 -7.4765625 33.945625 -7.4765625 33.265625 C-8.6315625 33.760625 -9.7865625 34.255625 -10.9765625 34.765625 C-16.03018493 36.65625325 -20.49172852 37.07233689 -25.7890625 35.640625 C-29.36522626 32.72671379 -30.37321752 29.23017814 -30.8515625 24.765625 C-30.4255976 20.78995265 -29.78367321 18.54023375 -27.4765625 15.265625 C-21.68755145 11.6474931 -16.15576545 11.93951563 -9.4765625 12.265625 C-9.8065625 11.275625 -10.1365625 10.285625 -10.4765625 9.265625 C-11.61996094 9.20503906 -12.76335938 9.14445312 -13.94140625 9.08203125 C-15.43230555 8.99764072 -16.92319025 8.91299198 -18.4140625 8.828125 C-19.16880859 8.78880859 -19.92355469 8.74949219 -20.70117188 8.70898438 C-26.36328125 8.37890625 -26.36328125 8.37890625 -27.4765625 7.265625 C-27.51749187 4.93265067 -27.51897973 2.59857275 -27.4765625 0.265625 C-18.39839179 -3.58572015 -8.94244772 -4.75421271 0 0 Z M-16.4765625 20.265625 C-17.15614853 22.66281932 -17.15614853 22.66281932 -17.4765625 25.265625 C-16.8165625 25.925625 -16.1565625 26.585625 -15.4765625 27.265625 C-12.37729431 26.94363534 -12.37729431 26.94363534 -9.4765625 26.265625 C-9.4765625 23.955625 -9.4765625 21.645625 -9.4765625 19.265625 C-13.37115324 19.05480649 -13.37115324 19.05480649 -16.4765625 20.265625 Z " fill="#125B90" transform="translate(574.4765625,54.734375)"/>
<path d="M0 0 C3.48341738 2.75006636 5.03130277 5.44047796 5.65625 9.8671875 C5.860651 14.38104282 5.24814922 17.38617595 2.375 20.875 C-1.14103098 23.21902065 -4.22766792 23.08294664 -8.375 23 C-9.54546875 22.98195312 -10.7159375 22.96390625 -11.921875 22.9453125 C-12.81390625 22.92210937 -13.7059375 22.89890625 -14.625 22.875 C-14.22449543 24.97088857 -14.22449543 24.97088857 -12.625 26.875 C-9.8241524 27.31440725 -7.37016152 27.52591015 -4.5625 27.5625 C3.28636566 27.78636566 3.28636566 27.78636566 4.375 28.875 C4.625 31.8125 4.625 31.8125 4.375 34.875 C-1.56999403 38.83832935 -8.69134268 38.38077076 -15.625 37.875 C-20.70928422 36.72606033 -23.7845176 34.24497293 -26.625 29.875 C-28.95919251 22.87242247 -29.08049173 11.8743145 -26.0625 5 C-19.85693429 -2.95585347 -9.11943658 -2.83016997 0 0 Z M-14.625 9.875 C-14.66563832 11.54117115 -14.667721 13.20888095 -14.625 14.875 C-11.985 14.875 -9.345 14.875 -6.625 14.875 C-6.582279 13.20888095 -6.58436168 11.54117115 -6.625 9.875 C-7.74336224 8.53095225 -7.74336224 8.53095225 -10.625 8.75 C-13.50663776 8.53095225 -13.50663776 8.53095225 -14.625 9.875 Z " fill="#1376BC" transform="translate(342.625,127.125)"/>
<path d="M0 0 C3.48341738 2.75006636 5.03130277 5.44047796 5.65625 9.8671875 C5.860651 14.38104282 5.24814922 17.38617595 2.375 20.875 C-1.14103098 23.21902065 -4.22766792 23.08294664 -8.375 23 C-9.54546875 22.98195313 -10.7159375 22.96390625 -11.921875 22.9453125 C-12.81390625 22.92210938 -13.7059375 22.89890625 -14.625 22.875 C-14.22449543 24.97088857 -14.22449543 24.97088857 -12.625 26.875 C-9.8241524 27.31440725 -7.37016152 27.52591015 -4.5625 27.5625 C3.28636566 27.78636566 3.28636566 27.78636566 4.375 28.875 C4.625 31.8125 4.625 31.8125 4.375 34.875 C-1.56999403 38.83832935 -8.69134268 38.38077076 -15.625 37.875 C-20.70928422 36.72606033 -23.7845176 34.24497293 -26.625 29.875 C-28.95919251 22.87242247 -29.08049173 11.8743145 -26.0625 5 C-19.85693429 -2.95585347 -9.11943658 -2.83016997 0 0 Z M-14.625 9.875 C-14.66563832 11.54117115 -14.667721 13.20888095 -14.625 14.875 C-11.985 14.875 -9.345 14.875 -6.625 14.875 C-6.582279 13.20888095 -6.58436168 11.54117115 -6.625 9.875 C-7.74336224 8.53095225 -7.74336224 8.53095225 -10.625 8.75 C-13.50663776 8.53095225 -13.50663776 8.53095225 -14.625 9.875 Z " fill="#125B90" transform="translate(482.625,53.125)"/>
<path d="M0 0 C0 2.64 0 5.28 0 8 C-5.94 8 -11.88 8 -18 8 C-18 9.32 -18 10.64 -18 12 C-17.28714844 11.96519531 -16.57429688 11.93039063 -15.83984375 11.89453125 C-9.74310479 11.72221427 -5.29543475 11.84527292 0 15 C2.98910175 19.55913499 2.62221087 24.75787345 2 30 C0.13637981 33.51220728 -1.05851652 34.61663335 -4.71484375 36.10546875 C-12.52603392 38.23241589 -21.42482278 37.8857818 -29 35 C-29 32.36 -29 29.72 -29 27 C-22.4 27 -15.8 27 -9 27 C-9 25.68 -9 24.36 -9 23 C-9.79664063 23.03480469 -10.59328125 23.06960937 -11.4140625 23.10546875 C-22.72943995 23.39454774 -22.72943995 23.39454774 -27 20 C-30.28999443 14.58742852 -30.44082789 10.95542196 -29 5 C-26.97321357 1.41414709 -25.62663857 0.25802765 -21.8125 -1.3125 C-14.13570553 -2.69683999 -7.5082814 -1.98800831 0 0 Z " fill="#125B90" transform="translate(521,54)"/>
<path d="M0 0 C0.66 0.33 1.32 0.66 2 1 C2.02689216 2.47906892 2.04634621 3.95827483 2.0625 5.4375 C2.07410156 6.26121094 2.08570313 7.08492188 2.09765625 7.93359375 C2 10 2 10 1 11 C-1.33297433 11.04092937 -3.66705225 11.04241723 -6 11 C-6 12.65 -6 14.3 -6 16 C-3.36 16 -0.72 16 2 16 C2 19.3 2 22.6 2 26 C-0.64 26 -3.28 26 -6 26 C-5.99214478 27.21901001 -5.99214478 27.21901001 -5.98413086 28.46264648 C-5.96343006 32.12092322 -5.95036197 35.77918767 -5.9375 39.4375 C-5.92912109 40.71689453 -5.92074219 41.99628906 -5.91210938 43.31445312 C-5.90727539 45.13686523 -5.90727539 45.13686523 -5.90234375 46.99609375 C-5.89448853 48.68496704 -5.89448853 48.68496704 -5.88647461 50.40795898 C-6 53 -6 53 -7 54 C-8.83115883 54.09851171 -10.66619933 54.12972629 -12.5 54.125 C-13.5003125 54.12757813 -14.500625 54.13015625 -15.53125 54.1328125 C-18 54 -18 54 -19 53 C-19.08758003 51.00035018 -19.10696576 48.9976389 -19.09765625 46.99609375 C-19.09443359 45.78115234 -19.09121094 44.56621094 -19.08789062 43.31445312 C-19.07951172 42.03505859 -19.07113281 40.75566406 -19.0625 39.4375 C-19.05798828 38.15423828 -19.05347656 36.87097656 -19.04882812 35.54882812 C-19.03699545 32.36583978 -19.02051068 29.18294238 -19 26 C-19.804375 26.020625 -20.60875 26.04125 -21.4375 26.0625 C-24 26 -24 26 -25 25 C-25.04092937 22.66702567 -25.04241723 20.33294775 -25 18 C-23.02 17.34 -21.04 16.68 -19 16 C-19.061875 14.783125 -19.12375 13.56625 -19.1875 12.3125 C-19.17360929 8.38142889 -18.57113962 6.10309954 -16 3 C-11.47556323 -1.10027082 -5.76305185 -0.48257439 0 0 Z " fill="#1376BC" transform="translate(412,111)"/>
<path d="M0 0 C1.25425781 0.00902344 2.50851563 0.01804687 3.80078125 0.02734375 C4.75339844 0.03894531 5.70601562 0.05054687 6.6875 0.0625 C6.90182579 6.70659958 6.19983701 12.59455867 4.6875 19.0625 C3.615 18.8975 2.5425 18.7325 1.4375 18.5625 C-15.46453664 16.53901674 -28.35369075 21.14308316 -43.39648438 28.26220703 C-45.36426141 29.08412002 -47.21338363 29.68314841 -49.3125 30.0625 C-50.3125 29.0625 -50.3125 29.0625 -50.41015625 27.21484375 C-50.37760417 25.1640625 -50.34505208 23.11328125 -50.3125 21.0625 C-49.71566406 20.74539062 -49.11882812 20.42828125 -48.50390625 20.1015625 C-43.24431311 17.27247971 -38.08169508 14.34122619 -32.96362305 11.26489258 C-22.16353413 4.78865089 -12.86015098 -0.12018833 0 0 Z " fill="#1174BA" transform="translate(222.3125,103.9375)"/>
<path d="M0 0 C1.093125 0.00257812 2.18625 0.00515625 3.3125 0.0078125 C4.405625 0.00523438 5.49875 0.00265625 6.625 0 C9.3125 0.1328125 9.3125 0.1328125 10.3125 1.1328125 C10.41096967 2.69280298 10.44048618 4.25721794 10.44189453 5.8203125 C10.44504669 6.81804688 10.44819885 7.81578125 10.45144653 8.84375 C10.4494223 9.92914063 10.44739807 11.01453125 10.4453125 12.1328125 C10.44626923 13.23882812 10.44722595 14.34484375 10.44821167 15.484375 C10.44889367 17.82812558 10.44703804 20.17187803 10.44287109 22.515625 C10.43752314 26.11723038 10.44281547 29.71871103 10.44921875 33.3203125 C10.44855797 35.59114611 10.44727682 37.86197964 10.4453125 40.1328125 C10.44733673 41.21820313 10.44936096 42.30359375 10.45144653 43.421875 C10.44829437 44.41960937 10.44514221 45.41734375 10.44189453 46.4453125 C10.44070114 47.76982422 10.44070114 47.76982422 10.43948364 49.12109375 C10.3125 51.1328125 10.3125 51.1328125 9.3125 52.1328125 C7.31450428 52.23155066 5.31292842 52.26253049 3.3125 52.2578125 C2.219375 52.26039062 1.12625 52.26296875 0 52.265625 C-2.6875 52.1328125 -2.6875 52.1328125 -3.6875 51.1328125 C-3.78596967 49.57282202 -3.81548618 48.00840706 -3.81689453 46.4453125 C-3.82004669 45.44757813 -3.82319885 44.44984375 -3.82644653 43.421875 C-3.8244223 42.33648437 -3.82239807 41.25109375 -3.8203125 40.1328125 C-3.82126923 39.02679688 -3.82222595 37.92078125 -3.82321167 36.78125 C-3.82389367 34.43749942 -3.82203804 32.09374697 -3.81787109 29.75 C-3.81252314 26.14839462 -3.81781547 22.54691397 -3.82421875 18.9453125 C-3.82355797 16.67447889 -3.82227682 14.40364536 -3.8203125 12.1328125 C-3.82233673 11.04742187 -3.82436096 9.96203125 -3.82644653 8.84375 C-3.82329437 7.84601562 -3.82014221 6.84828125 -3.81689453 5.8203125 C-3.81609894 4.93730469 -3.81530334 4.05429687 -3.81448364 3.14453125 C-3.61731526 0.02092161 -3.15846093 0.15608673 0 0 Z " fill="#125B90" transform="translate(278.6875,38.8671875)"/>
<path d="M0 0 C4.29 0 8.58 0 13 0 C13.02464928 5.25105442 13.04283568 10.50207545 13.05493164 15.75317383 C13.05997218 17.54094021 13.06680454 19.32870245 13.07543945 21.11645508 C13.0875173 23.68051168 13.09323094 26.24451397 13.09765625 28.80859375 C13.10281754 29.6127623 13.10797882 30.41693085 13.11329651 31.24546814 C13.11349215 33.16401715 13.06201983 35.08245368 13 37 C12 38 12 38 9.53125 38.1328125 C8.03078125 38.12894531 8.03078125 38.12894531 6.5 38.125 C5.4996875 38.12757812 4.499375 38.13015625 3.46875 38.1328125 C1 38 1 38 0 37 C-0.08858646 34.26105915 -0.11523479 31.5474673 -0.09765625 28.80859375 C-0.0962413 27.98875504 -0.09482635 27.16891632 -0.09336853 26.32423401 C-0.08775289 23.69528618 -0.07519779 21.06642227 -0.0625 18.4375 C-0.05748701 16.65950643 -0.05292376 14.88151154 -0.04882812 13.10351562 C-0.03777839 8.73564455 -0.02050331 4.36783652 0 0 Z " fill="#125B90" transform="translate(528,53)"/>
<path d="M0 0 C0.98770386 0.21329956 0.98770386 0.21329956 1.99536133 0.4309082 C8.97152499 1.83252588 15.584142 2.27729628 22.6875 2.1875 C23.66783203 2.18685547 24.64816406 2.18621094 25.65820312 2.18554688 C31.19199805 2.15218843 36.52586614 1.81170431 42 1 C40.53846154 7.57692308 40.53846154 7.57692308 38.25 9.375 C27.90441467 12.2487737 17.05632006 11.80773284 7 8 C4.09057657 6.23820738 1.51511742 4.28579789 -1 2 C-0.67 1.34 -0.34 0.68 0 0 Z " fill="#1072B7" transform="translate(115,128)"/>
<path d="M0 0 C0 3.96 0 7.92 0 12 C-1.03898437 12.09796875 -2.07796875 12.1959375 -3.1484375 12.296875 C-10.59683523 13.07094346 -17.22661115 13.96229166 -24.08203125 17.1953125 C-26 18 -26 18 -29 18 C-25.1776816 9.17926524 -16.34590309 4.8140816 -8.015625 1.03125 C-5 0 -5 0 0 0 Z " fill="#1174BB" transform="translate(229,90)"/>
<path d="M0 0 C0.89847656 0.00257812 1.79695312 0.00515625 2.72265625 0.0078125 C3.61855469 0.00523438 4.51445313 0.00265625 5.4375 0 C7.78515625 0.1328125 7.78515625 0.1328125 9.78515625 1.1328125 C9.81203776 2.77855816 9.83149748 4.42442663 9.84765625 6.0703125 C9.85925781 6.98683594 9.87085938 7.90335938 9.8828125 8.84765625 C9.78515625 11.1328125 9.78515625 11.1328125 8.78515625 12.1328125 C6.95399742 12.23132421 5.11895692 12.26253879 3.28515625 12.2578125 C2.28484375 12.26039062 1.28453125 12.26296875 0.25390625 12.265625 C-2.21484375 12.1328125 -2.21484375 12.1328125 -3.21484375 11.1328125 C-3.31308312 9.46852199 -3.34458006 7.79999319 -3.33984375 6.1328125 C-3.34242188 5.2253125 -3.345 4.3178125 -3.34765625 3.3828125 C-3.16964199 0.36704157 -3.01431943 0.18075284 0 0 Z " fill="#125B90" transform="translate(531.21484375,36.8671875)"/>
<path d="M0 0 C0 1.32 0 2.64 0 4 C-4.455 5.485 -4.455 5.485 -9 7 C-6.72853261 2.45706522 -5.25384285 0 0 0 Z " fill="#0E5485" transform="translate(254,37)"/>
</svg>
