<svg width="141" height="50" viewBox="0 0 141 50" fill="none" xmlns="http://www.w3.org/2000/svg">
<mask id="mask0_1_159" style="mask-type:luminance" maskUnits="userSpaceOnUse" x="0" y="0" width="141" height="50">
<path d="M141 0H0V50H141V0Z" fill="white"/>
</mask>
<g mask="url(#mask0_1_159)">
<path d="M41.5536 11.3134C42.714 11.1363 43.7189 10.6397 44.5869 10.0956C43.5682 10.491 42.5952 10.9433 41.5536 11.3134ZM91.5935 0.7236C96.7925 0.166907 102.091 -0.2601 107.34 0.185885C109.565 0.407297 111.913 0.79635 113.585 1.90973C114.777 2.69732 115.212 3.91825 114.905 5.02215C114.462 6.8029 112.863 8.30535 111.214 9.65595C109.957 10.6791 108.601 11.6406 107.166 12.5425C105.962 13.2994 103.402 14.6883 103.402 14.6883C103.402 14.6883 97.8065 17.2409 94.6545 18C97.61 16.8391 103.037 13.9924 103.037 13.9924C103.037 13.9924 108.327 10.7757 110.543 8.88735C111.603 7.98275 112.608 7.018 113.211 5.9236C113.677 5.1518 113.932 4.26302 113.521 3.45329C113.192 2.7163 112.265 2.20073 111.301 1.86861C109.542 1.2455 107.555 1.05572 105.614 0.941845C100.269 0.69513 94.942 1.26448 89.652 1.7326C76.0665 3.07056 62.6175 5.16765 49.5937 8.182C49.1277 8.28635 48.6115 8.3781 48.3511 8.69755C48.0177 9.0961 47.2959 9.03915 46.7294 9.01385C45.2859 10.4088 43.1114 11.2976 40.9278 12.0472C41.042 11.8385 41.1562 11.6328 41.2704 11.4272C40.9369 11.4842 40.6035 11.5443 40.27 11.5981C40.9461 11.0351 41.7455 10.5448 42.6134 10.1241C41.3709 10.5226 40.2654 11.0983 39 11.4621C39.539 10.9307 40.2289 10.453 41.0923 10.1778C40.6857 10.1399 40.1969 10.1431 39.909 9.90585C39.4614 9.5484 39.539 8.93795 40.1055 8.66595C40.6125 8.4287 41.2064 8.3022 41.7866 8.17565C41.4166 8.4477 41.0785 8.8209 40.4846 8.8494C39.9547 8.87155 40.0095 9.35865 40.1055 9.61485C40.3659 9.8584 40.8684 10.0166 41.2933 9.8932C42.0653 9.75085 42.7322 9.45035 43.422 9.17835C43.2028 9.03285 43.0063 8.87155 42.8601 8.6849C43.3717 8.6343 43.8926 8.59 44.3996 8.52045C43.8652 8.4983 43.0246 8.6881 43.02 8.1219C43.55 8.11555 44.0844 8.1472 44.6143 8.11555C44.1986 8.05865 43.7555 8.0871 43.3581 7.9827C43.3398 7.8752 43.2987 7.66325 43.2758 7.5557C44.4498 7.6443 45.5417 7.9922 46.5056 8.45085C47.136 7.83725 48.2552 8.20415 49.082 7.8752C57.4555 5.5978 66.2355 4.14599 75.011 2.83333C80.5205 2.02676 86.0525 1.33406 91.5935 0.7236Z" fill="#37AFE3"/>
<path d="M46.7624 46.2934C46.5296 46.2934 46.3241 46.261 46.1458 46.1963C45.9725 46.1269 45.8388 46.0136 45.7447 45.8563C45.6506 45.6944 45.6035 45.4794 45.6035 45.2111V41.1804H46.3538V45.1071C46.3538 45.2551 46.3811 45.3706 46.4355 45.4539C46.49 45.5325 46.5618 45.5857 46.651 45.6135C46.7401 45.6412 46.8367 45.6551 46.9407 45.6551H48.835V46.2934H46.7624ZM55.5665 46.335C55.146 46.335 54.809 46.2771 54.5565 46.1615C54.309 46.0459 54.1305 45.8517 54.0215 45.5788C53.9175 45.3013 53.8655 44.9197 53.8655 44.4341C53.8655 43.9392 53.9175 43.5554 54.0215 43.2825C54.1305 43.005 54.309 42.8107 54.5565 42.6997C54.804 42.5887 55.1385 42.5332 55.5595 42.5332C55.926 42.5332 56.2205 42.5702 56.4435 42.6442C56.671 42.7136 56.837 42.8407 56.941 43.0257C57.05 43.2061 57.1045 43.4582 57.1045 43.782C57.1045 44.0086 57.055 44.189 56.956 44.3231C56.862 44.4572 56.7255 44.5543 56.5475 44.6144C56.374 44.6746 56.166 44.7047 55.9235 44.7047H54.6085C54.6135 44.9729 54.6455 45.188 54.705 45.3498C54.7695 45.5071 54.881 45.6228 55.0395 45.6968C55.2025 45.7661 55.4405 45.8008 55.7525 45.8008H56.993V46.217C56.78 46.2448 56.562 46.2703 56.3395 46.2934C56.1165 46.3211 55.859 46.335 55.5665 46.335ZM54.601 44.2676H55.8565C56.0545 44.2676 56.2005 44.2329 56.2945 44.1636C56.389 44.0942 56.436 43.967 56.436 43.782C56.436 43.597 56.406 43.4512 56.3465 43.3449C56.292 43.2385 56.2005 43.1622 56.072 43.116C55.943 43.0697 55.772 43.0466 55.5595 43.0466C55.3165 43.0466 55.1235 43.0812 54.98 43.1507C54.841 43.22 54.742 43.3426 54.6825 43.5183C54.628 43.6941 54.601 43.9439 54.601 44.2676ZM63.8425 46.2934C63.575 46.2934 63.352 46.254 63.174 46.1754C63.0005 46.0921 62.872 45.9603 62.7875 45.78C62.7085 45.5996 62.671 45.3591 62.676 45.0584L62.706 43.1507H62.0745V42.6997L62.7205 42.5817L62.832 41.5411H63.419V42.5817H64.496V43.1507H63.419V45.0516C63.419 45.1949 63.434 45.3105 63.4635 45.3984C63.4935 45.4863 63.5355 45.5534 63.59 45.5996C63.6445 45.6459 63.704 45.6806 63.768 45.7037C63.8325 45.7222 63.8945 45.7337 63.954 45.7383L64.444 45.78V46.2934H63.8425ZM69.533 42.7968L69.466 41.562V41.0971H70.1865V41.562L70.127 42.7968H69.533ZM76.718 46.335C76.614 46.335 76.49 46.3327 76.3465 46.328C76.203 46.3234 76.0545 46.3142 75.901 46.3003C75.7525 46.2911 75.6135 46.2795 75.485 46.2656C75.361 46.2517 75.262 46.2355 75.1875 46.217V45.8008H76.859C77.003 45.8008 77.1265 45.7915 77.2305 45.773C77.3345 45.7499 77.414 45.7036 77.4685 45.6343C77.5275 45.5649 77.5575 45.4631 77.5575 45.329V45.1764C77.5575 45.0376 77.508 44.9289 77.409 44.8503C77.31 44.7717 77.1465 44.7324 76.9185 44.7324H76.339C76.1065 44.7324 75.8985 44.7047 75.715 44.6492C75.537 44.5891 75.3955 44.4896 75.2915 44.3508C75.1925 44.2121 75.143 44.0248 75.143 43.7889V43.5877C75.143 43.3518 75.19 43.1576 75.2845 43.005C75.3835 42.8524 75.5395 42.739 75.7525 42.665C75.9655 42.5864 76.2475 42.5471 76.599 42.5471C76.7475 42.5471 76.911 42.554 77.0895 42.5679C77.2725 42.5772 77.451 42.591 77.6245 42.6095C77.7975 42.628 77.9365 42.6489 78.0405 42.672V43.0882H76.4655C76.2475 43.0882 76.079 43.1229 75.9605 43.1922C75.8465 43.2616 75.7895 43.3934 75.7895 43.5877V43.7265C75.7895 43.8467 75.8165 43.9392 75.871 44.0039C75.9255 44.0687 76.0025 44.1103 76.1015 44.1288C76.2055 44.1473 76.327 44.1566 76.4655 44.1566H77.0595C77.436 44.1566 77.721 44.2398 77.914 44.4063C78.107 44.5682 78.2035 44.7972 78.2035 45.0932V45.3776C78.2035 45.6274 78.142 45.8216 78.018 45.9604C77.894 46.0991 77.721 46.1963 77.498 46.2518C77.28 46.3073 77.02 46.335 76.718 46.335ZM89.96 46.2934V42.2487C89.96 42.0452 89.9925 41.8742 90.057 41.7354C90.126 41.5967 90.2155 41.488 90.324 41.4093C90.433 41.3261 90.5545 41.2683 90.688 41.2359C90.827 41.1989 90.963 41.1804 91.097 41.1804C91.3 41.185 91.53 41.1896 91.7875 41.1942C92.045 41.1942 92.3125 41.1989 92.59 41.2081C92.872 41.2174 93.1445 41.2335 93.407 41.2567V41.8256H91.2825C91.0995 41.8256 90.958 41.8718 90.859 41.9643C90.76 42.0568 90.7105 42.1909 90.7105 42.3667V43.553L93.073 43.5947V44.1358L90.7105 44.1774V46.2934H89.96ZM98.75 41.9574C98.661 41.9574 98.6165 41.9181 98.6165 41.8395V41.2567C98.6165 41.1734 98.661 41.1318 98.75 41.1318H99.3C99.3395 41.1318 99.369 41.1434 99.389 41.1665C99.409 41.1897 99.419 41.2197 99.419 41.2567V41.8395C99.419 41.9181 99.379 41.9574 99.3 41.9574H98.75ZM98.646 46.2934V42.5817H99.389V46.2934H98.646ZM106.277 46.335C106.173 46.335 106.049 46.3327 105.906 46.328C105.762 46.3234 105.613 46.3142 105.46 46.3003C105.312 46.2911 105.173 46.2795 105.044 46.2656C104.92 46.2517 104.821 46.2355 104.747 46.217V45.8008H106.419C106.562 45.8008 106.686 45.7915 106.79 45.773C106.894 45.7499 106.973 45.7036 107.028 45.6343C107.087 45.5649 107.117 45.4631 107.117 45.329V45.1764C107.117 45.0376 107.067 44.9289 106.968 44.8503C106.869 44.7717 106.705 44.7324 106.478 44.7324H105.899C105.665 44.7324 105.457 44.7047 105.275 44.6492C105.096 44.5891 104.955 44.4896 104.851 44.3508C104.752 44.2121 104.703 44.0248 104.703 43.7889V43.5877C104.703 43.3518 104.749 43.1576 104.844 43.005C104.943 42.8524 105.099 42.739 105.312 42.665C105.524 42.5864 105.807 42.5471 106.159 42.5471C106.307 42.5471 106.471 42.554 106.649 42.5679C106.832 42.5772 107.01 42.591 107.184 42.6095C107.357 42.628 107.496 42.6489 107.6 42.672V43.0882H106.025C105.807 43.0882 105.639 43.1229 105.52 43.1922C105.405 43.2616 105.349 43.3934 105.349 43.5877V43.7265C105.349 43.8467 105.376 43.9392 105.431 44.0039C105.485 44.0687 105.561 44.1103 105.661 44.1288C105.765 44.1473 105.886 44.1566 106.025 44.1566H106.619C106.995 44.1566 107.28 44.2398 107.473 44.4063C107.667 44.5682 107.763 44.7972 107.763 45.0932V45.3776C107.763 45.6274 107.701 45.8216 107.577 45.9604C107.453 46.0991 107.28 46.1963 107.057 46.2518C106.839 46.3073 106.579 46.335 106.277 46.335ZM113.067 46.2934V41H113.809V42.9841C113.983 42.8639 114.193 42.7575 114.441 42.665C114.689 42.5679 114.944 42.5193 115.206 42.5193C115.493 42.5193 115.726 42.5748 115.904 42.6858C116.088 42.7968 116.221 42.9494 116.305 43.1437C116.39 43.3333 116.432 43.5484 116.432 43.7889V46.2934H115.689V43.8722C115.689 43.7288 115.657 43.6039 115.592 43.4975C115.533 43.3865 115.447 43.3009 115.332 43.2408C115.224 43.1807 115.092 43.1507 114.939 43.1507C114.79 43.1507 114.652 43.1645 114.523 43.1922C114.399 43.22 114.28 43.2593 114.166 43.3102C114.052 43.3611 113.933 43.4189 113.809 43.4837V46.2934H113.067ZM122.009 41.9574C121.92 41.9574 121.876 41.9181 121.876 41.8395V41.2567C121.876 41.1734 121.92 41.1318 122.009 41.1318H122.559C122.599 41.1318 122.629 41.1434 122.648 41.1665C122.668 41.1897 122.678 41.2197 122.678 41.2567V41.8395C122.678 41.9181 122.639 41.9574 122.559 41.9574H122.009ZM121.905 46.2934V42.5817H122.648V46.2934H121.905ZM128.147 46.2934V42.5817H128.741L128.89 42.9841C129.068 42.8639 129.279 42.7575 129.521 42.665C129.769 42.5679 130.024 42.5193 130.287 42.5193C130.584 42.5193 130.821 42.5794 131 42.6997C131.183 42.8153 131.315 42.9703 131.393 43.1645C131.473 43.3588 131.512 43.5692 131.512 43.7958V46.2934H130.769V43.8791C130.769 43.7311 130.737 43.6039 130.673 43.4975C130.613 43.3865 130.529 43.3009 130.42 43.2408C130.312 43.1807 130.178 43.1507 130.019 43.1507C129.871 43.1507 129.732 43.1645 129.603 43.1922C129.48 43.22 129.361 43.2593 129.247 43.3102C129.133 43.3564 129.014 43.4143 128.89 43.4837V46.2934H128.147ZM137.974 48C137.721 48 137.496 47.9653 137.298 47.896C137.105 47.8312 136.952 47.7294 136.837 47.5907C136.724 47.4566 136.667 47.2901 136.667 47.0912V46.9385C136.667 46.7304 136.729 46.5547 136.852 46.4113C136.981 46.2726 137.142 46.1662 137.335 46.0922C137.528 46.0182 137.729 45.9812 137.937 45.9812L138.137 46.2379C138.004 46.2379 137.877 46.2564 137.759 46.2934C137.645 46.335 137.551 46.3974 137.476 46.4807C137.407 46.5686 137.372 46.6796 137.372 46.8137V46.9455C137.372 47.1397 137.442 47.2808 137.58 47.3687C137.724 47.4566 137.92 47.5005 138.167 47.5005H139.036C139.299 47.5005 139.507 47.452 139.66 47.3548C139.814 47.2623 139.891 47.1167 139.891 46.9178V46.7859C139.891 46.6749 139.864 46.5778 139.809 46.4945C139.76 46.4113 139.678 46.3466 139.564 46.3003C139.45 46.2587 139.294 46.2379 139.096 46.2379H137.996C137.645 46.2379 137.377 46.1708 137.194 46.0367C137.011 45.9026 136.919 45.7338 136.919 45.5303C136.919 45.3452 136.976 45.1973 137.09 45.0862C137.209 44.9706 137.375 44.8919 137.588 44.8503C137.409 44.7763 137.268 44.6815 137.164 44.5659C137.065 44.4503 136.996 44.3254 136.956 44.1913C136.917 44.0525 136.897 43.9138 136.897 43.775C136.897 43.4929 136.959 43.2639 137.083 43.0882C137.207 42.9124 137.385 42.7829 137.617 42.6997C137.855 42.6164 138.137 42.5748 138.464 42.5748H140.604V42.9702L139.794 43.0466C139.853 43.0882 139.918 43.1437 139.987 43.2131C140.057 43.2779 140.116 43.368 140.165 43.4837C140.215 43.5993 140.24 43.7519 140.24 43.9416C140.24 44.1404 140.193 44.3254 140.099 44.4966C140.009 44.6677 139.861 44.8064 139.653 44.9128C139.45 45.0191 139.173 45.0723 138.821 45.0723H138.167C137.979 45.0723 137.831 45.0978 137.721 45.1487C137.613 45.1996 137.558 45.2897 137.558 45.4193C137.558 45.5256 137.6 45.5996 137.684 45.6413C137.769 45.6829 137.858 45.7037 137.952 45.7037H139.207C139.509 45.7037 139.762 45.7407 139.965 45.8147C140.173 45.8887 140.329 46.002 140.433 46.1546C140.537 46.3072 140.589 46.5062 140.589 46.7513V46.883C140.589 47.2345 140.465 47.5074 140.217 47.7017C139.975 47.9006 139.606 48 139.111 48H137.974ZM138.301 44.5382H138.739C138.962 44.5382 139.131 44.5081 139.244 44.4479C139.363 44.3832 139.445 44.3 139.489 44.1982C139.534 44.0965 139.556 43.9831 139.556 43.8583C139.556 43.6732 139.524 43.5276 139.46 43.4212C139.396 43.3102 139.307 43.2316 139.192 43.1853C139.084 43.1344 138.95 43.109 138.791 43.109H138.375C138.123 43.109 137.925 43.1622 137.781 43.2686C137.643 43.375 137.573 43.5577 137.573 43.8167C137.573 44.0711 137.637 44.2561 137.766 44.3717C137.895 44.4827 138.073 44.5382 138.301 44.5382Z" fill="#37AFE3"/>
<path d="M140.604 37.5H45.6035V38H140.604V37.5Z" fill="#37AFE3"/>
<path d="M45.6035 34.3226L48.1629 12.4435H52.389L57.448 29.2076L62.4775 12.4435H66.674L69.263 34.3226H65.0075L63.1025 18.209L63.787 18.268L59.472 34.3226H55.335L50.9605 18.268L51.7045 18.2385L49.8593 34.3226H45.6035ZM75.3655 34.5C74.155 34.5 73.173 34.1452 72.419 33.4356C71.665 32.726 71.288 31.7404 71.288 30.479V29.0598C71.288 27.8574 71.715 26.8719 72.568 26.1031C73.421 25.3147 74.7505 24.9205 76.556 24.9205H80.633V23.8265C80.633 23.3337 80.5435 22.9297 80.365 22.6143C80.1865 22.2793 79.8495 22.0427 79.3535 21.9048C78.877 21.7471 78.143 21.6682 77.151 21.6682H72.3595V19.1255C73.1335 18.8889 74.026 18.682 75.038 18.5046C76.0695 18.3272 77.31 18.2385 78.758 18.2385C80.0875 18.2385 81.2185 18.3962 82.151 18.7115C83.103 19.0269 83.8175 19.569 84.2935 20.3377C84.7895 21.1065 85.0375 22.1708 85.0375 23.5309V34.3226H81.5555L80.8415 32.6373C80.7025 32.795 80.4645 32.9724 80.127 33.1695C79.79 33.3666 79.373 33.5736 78.877 33.7904C78.401 33.9875 77.8555 34.155 77.2405 34.293C76.645 34.431 76.02 34.5 75.3655 34.5ZM77.5975 31.4547C77.796 31.4547 78.014 31.4349 78.252 31.3955C78.51 31.3364 78.768 31.2772 79.026 31.2181C79.3035 31.1393 79.5515 31.0703 79.77 31.0112C80.008 30.9324 80.1965 30.8633 80.3355 30.8042C80.494 30.745 80.5935 30.7056 80.633 30.6859V26.9902L77.9545 27.1675C77.181 27.2267 76.6055 27.4238 76.2285 27.7589C75.8715 28.094 75.693 28.5473 75.693 29.1189V29.7694C75.693 30.1636 75.772 30.4888 75.931 30.7451C76.1095 31.0013 76.3375 31.1886 76.6155 31.3069C76.913 31.4054 77.2405 31.4547 77.5975 31.4547ZM88.335 34.3226V18.4454H91.728L92.7395 20.8699C93.315 20.1406 93.96 19.5197 94.674 19.0072C95.408 18.4948 96.2715 18.2385 97.2635 18.2385C97.4815 18.2385 97.7 18.2483 97.918 18.268C98.156 18.2878 98.3745 18.3272 98.5725 18.3864V22.8804C98.275 22.841 97.9575 22.8115 97.6205 22.7917C97.303 22.7523 96.9955 22.7326 96.698 22.7326C96.1225 22.7326 95.5965 22.8016 95.1205 22.9396C94.664 23.0578 94.2375 23.2451 93.841 23.5013C93.464 23.7379 93.097 24.0532 92.7395 24.4475V34.3226H88.335ZM101.455 16.1098C101.039 16.1098 100.83 15.9126 100.83 15.5184V12.6209C100.83 12.207 101.039 12 101.455 12H104.848C105.027 12 105.165 12.0591 105.265 12.1774C105.364 12.2956 105.413 12.4435 105.413 12.6209V15.5184C105.413 15.9126 105.225 16.1098 104.848 16.1098H101.455ZM100.92 34.3226V18.4454H105.324V34.3226H100.92ZM108.708 34.3226V18.4454H112.339L113.113 20.0716C113.708 19.5788 114.452 19.1452 115.345 18.7707C116.258 18.3765 117.19 18.1793 118.143 18.1793C119.452 18.1793 120.464 18.4356 121.178 18.9481C121.892 19.4606 122.388 20.1504 122.666 21.0177C122.964 21.8653 123.113 22.8115 123.113 23.8561V34.3226H118.708V24.4179C118.708 23.9054 118.609 23.4816 118.41 23.1465C118.232 22.8115 117.974 22.5552 117.637 22.3778C117.299 22.2004 116.893 22.1117 116.416 22.1117C116 22.1117 115.593 22.1609 115.196 22.2596C114.819 22.3581 114.452 22.4961 114.095 22.6735C113.758 22.8509 113.43 23.0578 113.113 23.2943V34.3226H108.708ZM133.253 34.4705C131.943 34.4705 130.822 34.3423 129.89 34.086C128.957 33.8101 128.194 33.3568 127.598 32.726C127.023 32.0953 126.596 31.2575 126.319 30.2129C126.061 29.1682 125.932 27.8772 125.932 26.3397C125.932 24.7234 126.061 23.3929 126.319 22.3482C126.596 21.2838 127.023 20.456 127.598 19.8647C128.194 19.2536 128.957 18.8298 129.89 18.5933C130.842 18.337 131.963 18.209 133.253 18.209C134.582 18.209 135.713 18.337 136.646 18.5933C137.578 18.8495 138.332 19.2832 138.907 19.8942C139.503 20.4855 139.929 21.3134 140.187 22.3778C140.465 23.4225 140.604 24.7431 140.604 26.3397C140.604 27.9166 140.475 29.2372 140.217 30.3016C139.959 31.3462 139.542 32.1741 138.967 32.7851C138.392 33.3962 137.628 33.8298 136.675 34.086C135.743 34.3423 134.602 34.4705 133.253 34.4705ZM133.253 30.9816C133.789 30.9816 134.235 30.9324 134.592 30.8337C134.969 30.7352 135.267 30.5381 135.485 30.2425C135.723 29.9271 135.902 29.454 136.021 28.8232C136.14 28.1925 136.199 27.3647 136.199 26.3397C136.199 25.295 136.14 24.4671 136.021 23.8561C135.902 23.2254 135.723 22.7621 135.485 22.4665C135.267 22.1511 134.969 21.9441 134.592 21.8456C134.235 21.7471 133.789 21.6978 133.253 21.6978C132.737 21.6978 132.291 21.7471 131.914 21.8456C131.557 21.9441 131.259 22.1511 131.021 22.4665C130.783 22.7621 130.604 23.2254 130.485 23.8561C130.386 24.4671 130.336 25.295 130.336 26.3397C130.336 27.3647 130.386 28.1925 130.485 28.8232C130.604 29.454 130.783 29.9271 131.021 30.2425C131.259 30.5381 131.557 30.7352 131.914 30.8337C132.291 30.9324 132.737 30.9816 133.253 30.9816Z" fill="#010F30"/>
<path d="M40.8535 11.3364C41.5857 10.9607 42.2697 10.5047 42.9858 10.1001C42.3757 10.6492 41.6692 11.1566 40.8535 11.3364Z" fill="white"/>
<path d="M28.1074 11.4843C28.1363 10.7939 28.8909 10.5177 29.4882 10.5884C29.135 10.8099 28.6308 11.0058 28.634 11.5036C28.6501 12.0399 29.2474 12.2165 29.6777 12.3128C29.0675 12.7913 28.0142 12.2936 28.1074 11.4843Z" fill="#ECF5FB"/>
<path d="M15.3496 14.0211C12.6906 15.2125 10.1987 16.8631 8.2719 19.0661C6.663 20.9222 5.4074 23.1541 4.94497 25.585C5.40095 24.7726 5.70605 23.8766 6.24235 23.1059C8.45815 19.4033 11.7722 16.4424 15.523 14.3519C15.9629 14.095 16.5056 13.9633 16.8172 13.533C16.2969 13.5908 15.8216 13.8156 15.3496 14.0211ZM28.1081 11.4842C28.015 12.2934 29.0683 12.7912 29.6817 12.3127C29.2513 12.2164 28.654 12.0397 28.638 11.5035C28.6316 11.0025 29.1389 10.8098 29.4921 10.5882C28.8916 10.5176 28.137 10.7938 28.1081 11.4842ZM33.2847 6.7796C34.9931 6.6094 36.7626 6.25295 38.4453 6.76675C38.9077 6.90485 39.5146 7.2581 39.3765 7.8329C39.3059 9.0179 38.0117 9.45785 37.5621 10.4437C36.9841 11.4906 36.8717 12.7045 36.8525 13.8766C36.4382 13.8573 35.9469 13.8445 35.7028 13.4495C35.1633 12.621 35.478 11.5998 35.5486 10.6878C34.8615 11.4553 34.6656 12.5664 34.8165 13.5619C34.9 14.2138 35.4748 14.7726 36.1524 14.718C37.7228 14.6794 39.1614 13.9537 40.5872 13.3692C40.295 14.5253 39.3669 15.3699 38.4228 16.025C37.2988 16.725 35.9982 17.2645 34.6527 17.1939C34.1421 17.1746 33.6894 16.9209 33.3554 16.542C33.3586 16.0153 33.2879 15.4887 33.3136 14.962C33.3521 13.655 33.8595 12.4347 34.1774 11.1855C32.6938 13.3756 32.6296 16.1438 31.5025 18.4912C31.2456 19.0147 30.8506 19.4675 30.3689 19.795C29.7266 19.9492 28.9558 19.9909 28.4324 19.506C27.8383 18.9729 27.7741 18.1091 27.8865 17.3705C28.0599 16.4296 28.4228 15.4694 29.1582 14.8207C28.9912 15.524 28.7664 16.269 29.0072 16.9851C29.0779 17.271 29.3797 17.3801 29.6399 17.4379C30.1537 17.4701 30.4363 16.9466 30.6033 16.5388C30.9437 15.5947 30.9951 14.5767 31.3675 13.639C31.6598 12.7976 32.0805 12.0108 32.3759 11.1727C31.6373 11.6351 31.1138 12.348 30.4202 12.865C29.7651 13.3789 28.9687 13.7578 28.1241 13.7835C27.6232 13.761 27.2988 13.3371 27.0194 12.9774C25.6964 13.4945 24.6077 14.4739 23.6797 15.5304C22.9797 16.2658 22.6167 17.2292 22.2731 18.1669C22.2121 16.9851 22.4947 15.813 23.0438 14.7693C21.5506 15.8387 20.9565 17.727 20.9982 19.4996C20.0349 19.3968 19.0522 19.3037 18.0984 19.506C16.6502 19.8207 15.3047 20.4758 14.0169 21.1952C13.2141 21.6351 12.514 22.2388 11.7176 22.6852C12.5814 21.086 14.0394 19.9267 15.3785 18.7417C13.837 19.5638 12.3727 20.5401 11.1011 21.7379C8.8756 23.6743 7.01305 26.0731 5.88265 28.8092C4.70733 31.5067 4.22885 34.4739 4.35088 37.409C4.31556 38.6486 4.6688 39.8528 4.71055 41.0827C1.01434 35.5593 -0.607375 28.6871 0.205087 22.0911C0.349596 21.0218 0.545485 19.9524 0.869825 18.9216C1.02718 18.3499 1.47034 17.9293 1.89423 17.5471C2.88653 16.7347 4.05544 16.1727 5.25645 15.7424C4.13251 15.6621 3.02782 15.9318 1.96488 16.2626C2.26032 15.8355 2.70348 15.5561 3.13058 15.2864C5.0349 14.1464 7.29885 13.7321 9.4954 13.8156C9.26415 14.1656 8.94945 14.4482 8.65725 14.7501C6.25195 17.3031 4.24812 20.2992 3.14985 23.6486C2.72275 25.0198 2.34382 26.4424 2.40804 27.8811C3.0792 23.2151 5.7221 19.0083 9.1646 15.8676C11.2167 13.9473 13.5834 12.3833 16.0914 11.1213C18.7793 9.7276 21.7176 8.9055 24.6399 8.15725C27.4786 7.4604 30.3817 7.059 33.2847 6.7796Z" fill="#010F30"/>
<path d="M41.0084 12.3672C41.7567 12.3768 42.5113 12.7461 42.8292 13.4494C43.4362 14.5123 42.9416 15.7808 42.2929 16.6992C41.1272 18.3306 39.4734 19.5766 37.6655 20.4179C37.4407 20.5335 37.187 20.6267 37.0104 20.8193C35.3341 22.6466 33.2306 24.31 30.7194 24.7243C30.6134 26.7089 30.0547 28.8508 28.449 30.1546C26.8787 31.4809 24.679 31.6575 22.7201 31.3524C23.5293 29.9009 24.6212 28.6228 25.4079 27.1617C24.6308 27.6562 23.7669 27.9966 22.993 28.5008C20.758 29.8913 18.722 31.7538 17.5595 34.1494C16.7631 35.7615 16.4901 37.608 16.7053 39.3903C16.959 38.9664 17.0232 38.4654 17.1998 38.0126C17.6269 36.8084 18.0958 35.5881 18.8729 34.5573C21.3231 37.2676 24.923 38.8508 28.5743 38.8701C27.0296 38.2728 25.4208 37.6594 24.1748 36.5387C25.5396 36.985 27.1998 36.5611 28.0669 35.3858C28.6834 34.5894 29.2808 33.7705 29.9583 33.0223C31.397 31.3909 33.2949 29.8142 35.591 29.8431C34.7721 32.0236 34.1651 34.3132 34.1491 36.6543C34.0592 39.2297 34.7624 41.8534 36.2878 43.9471C37.3925 45.4243 38.8472 46.6221 40.4625 47.4988C40.4786 47.5438 40.5075 47.6305 40.5203 47.6722C37.6815 48.4879 34.6115 48.17 31.8691 47.152C29.528 46.3363 27.5177 44.8238 25.2088 43.9375C24.1555 43.5393 23.0155 42.9773 21.8691 43.3081C22.2962 44.1655 23.0829 44.7724 23.6032 45.5688C20.6841 46.2528 17.3989 46.0281 14.862 44.3132C14.6565 44.1559 14.4574 44.3967 14.3161 44.5252C12.8132 45.9253 12.0939 47.9259 11.5672 49.8623C10.8896 49.31 10.424 48.5425 10.0226 47.7782C8.76375 45.1931 8.2596 42.2323 8.6642 39.3807C9.0881 36.2496 10.6969 33.3659 12.9352 31.1661C13.6963 30.4532 14.4445 29.6889 15.3694 29.1944C12.8774 32.0589 10.8479 35.6523 10.8896 39.5476C11.7888 37.046 12.9705 34.6311 14.573 32.502C17.1163 29.0499 20.6295 26.3524 24.5505 24.6408C23.1793 23.8925 21.9429 22.7268 21.5897 21.1501C22.5177 21.8469 23.51 22.4828 24.6244 22.8392C26.58 23.4654 28.7348 23.353 30.6584 22.669C31.7888 22.2741 32.9063 21.7924 33.8825 21.0923C32.6269 21.3042 31.3392 21.3428 30.0836 21.0987C30.7258 20.9382 31.3874 20.8707 32.0328 20.723C34.7946 20.1064 37.4631 18.793 39.3835 16.68C40.1093 15.8547 40.8671 14.978 41.1529 13.8926C41.3071 13.3723 41.1561 12.8553 41.0084 12.3672Z" fill="#010F30"/>
<path d="M16.0845 23.5523C17.0865 23.1316 18.1269 22.8105 19.1417 22.4155C18.1301 23.3051 17.0383 24.0918 16.0075 24.9557C17.4301 24.2363 19.0871 23.2729 20.7056 23.9537C20.6478 24.2042 20.5161 24.429 20.3331 24.6088C19.3858 25.6333 18.4609 26.6994 17.3209 27.5119C16.8071 27.8908 16.1873 28.1156 15.5579 28.2023C13.7981 28.2762 11.958 28.1252 10.4102 27.2132C10.8598 26.6737 11.3992 26.2241 11.9259 25.7649C13.2425 24.9011 14.6234 24.14 16.0845 23.5523Z" fill="#010F30"/>
<path d="M30.4238 12.8647C31.1174 12.3477 31.6409 11.6316 32.3795 11.1724C32.084 12.0105 31.6633 12.7973 31.3711 13.6387C30.7963 13.6772 30.3435 14.0722 29.804 14.2328C28.5773 14.6021 27.2831 14.5892 26.0179 14.5025C25.4141 14.7787 24.9902 15.3118 24.5375 15.7774C24.0879 16.2302 23.8759 16.8435 23.6222 17.4119C23.2433 18.2661 23.3364 19.2231 23.3332 20.1319C23.3139 21.1692 23.8952 22.1358 24.6274 22.8358C23.513 22.4794 22.524 21.8435 21.5927 21.1467C21.5638 20.9829 21.5349 20.8223 21.5092 20.6586C21.1945 20.5815 20.8637 20.4884 20.5426 20.5879C18.1791 21.1627 16.005 22.3509 14.0975 23.8442C13.3846 24.4993 12.4983 24.9649 11.9299 25.771C11.4064 26.2302 10.8637 26.6765 10.4141 27.2193C11.962 28.1345 13.8021 28.2822 15.5619 28.2083C14.8586 28.7864 13.9337 28.8956 13.0731 29.0593C11.8913 29.3066 10.7321 28.7639 9.55034 28.8313C9.05259 29.5378 8.41029 30.1448 8.01854 30.9219C7.38914 32.1454 6.70834 33.3561 6.34224 34.6887C5.95369 36.2462 5.37884 37.7684 5.23434 39.3837C5.17654 40.0452 4.94853 40.6746 4.84898 41.3297C4.81366 41.2912 4.74621 41.2141 4.7141 41.1756V41.0889C4.67235 39.8557 4.32232 38.6515 4.35443 37.4151C4.23241 34.48 4.71089 31.516 5.88624 28.8153C7.01659 26.076 8.87914 23.6804 11.1046 21.744C12.3795 20.543 13.8438 19.5699 15.382 18.7478C14.0429 19.9328 12.5882 21.0921 11.7211 22.6913C12.5176 22.2417 13.2176 21.6412 14.0204 21.2013C15.3082 20.4787 16.6537 19.8268 18.102 19.5121C19.0558 19.3098 20.0416 19.4029 21.0018 19.5057C20.9601 17.7363 21.5574 15.8448 23.0474 14.7755C22.4983 15.8191 22.2157 16.9913 22.2767 18.173C22.6203 17.2353 22.9832 16.2719 23.6832 15.5365C24.6113 14.4832 25.6967 13.5038 27.023 12.9836C27.2992 13.3432 27.6267 13.7671 28.1277 13.7896C28.9691 13.7575 29.7687 13.3818 30.4238 12.8647Z" fill="#37AFE3"/>
<path d="M31.5059 18.4912C32.6331 16.1438 32.6973 13.3756 34.1809 11.1855C33.8662 12.4347 33.3588 13.6582 33.3171 14.962C33.2914 15.4887 33.362 16.0153 33.3588 16.542C33.134 17.4604 32.9863 18.4142 32.6074 19.2844C32.0422 20.5497 30.2696 20.8644 29.1777 20.1097C29.4796 19.7661 30.0094 20.0134 30.3691 19.795C30.8508 19.4707 31.249 19.0147 31.5059 18.4912Z" fill="#37AFE3"/>
<path d="M15.3499 14.021C15.822 13.8187 16.2973 13.5907 16.8175 13.5361C16.506 13.9632 15.9633 14.0981 15.5233 14.355C11.7725 16.4455 8.45529 19.4064 6.24269 23.109C5.70639 23.8797 5.40134 24.7725 4.94531 25.5881C5.40774 23.1572 6.66334 20.9285 8.27224 19.0692C10.199 16.863 12.691 15.2124 15.3499 14.021Z" fill="#37AFE3"/>
</g>
</svg>
