<svg width="225" height="80" viewBox="0 0 225 80" fill="none" xmlns="http://www.w3.org/2000/svg">
<g clip-path="url(#clip0_766_2286)">
<mask id="mask0_766_2286" style="mask-type:luminance" maskUnits="userSpaceOnUse" x="0" y="0" width="225" height="80">
<path d="M225 0H0V80H225V0Z" fill="white"/>
</mask>
<g mask="url(#mask0_766_2286)">
<path d="M66.3093 18.1014C68.1609 17.818 69.7646 17.0234 71.1496 16.153C69.5241 16.7856 67.9713 17.5093 66.3093 18.1014ZM146.16 1.15776C154.456 0.267051 162.912 -0.416161 171.288 0.297416C174.838 0.651675 178.585 1.27416 181.253 3.05557C183.156 4.31571 183.848 6.26919 183.359 8.03544C182.652 10.8846 180.101 13.2886 177.469 15.4495C175.464 17.0866 173.3 18.625 171.01 20.068C169.089 21.279 165.004 23.5013 165.004 23.5013C165.004 23.5013 156.075 27.5854 151.045 28.8C155.761 26.9426 164.421 22.3879 164.421 22.3879C164.421 22.3879 172.863 17.241 176.398 14.2198C178.089 12.7724 179.693 11.2288 180.655 9.47776C181.399 8.24288 181.807 6.82082 181.151 5.52526C180.626 4.34608 179.147 3.52117 177.608 2.98978C174.801 1.99279 171.631 1.68914 168.533 1.50695C160.003 1.11221 151.504 2.02316 143.062 2.77216C121.383 4.91289 99.9219 8.26824 79.1391 13.0912C78.3956 13.2582 77.5719 13.405 77.1563 13.9161C76.6242 14.5538 75.4724 14.4626 74.5685 14.4222C72.265 16.654 68.7951 18.0761 65.3107 19.2755C65.4929 18.9415 65.6751 18.6126 65.8574 18.2836C65.3252 18.3747 64.7931 18.4709 64.2609 18.5569C65.3398 17.6561 66.6155 16.8716 68.0005 16.1986C66.0177 16.8362 64.2536 17.7573 62.2344 18.3393C63.0946 17.489 64.1953 16.7249 65.5731 16.2846C64.9242 16.2238 64.1442 16.2289 63.685 15.8494C62.9707 15.2774 63.0946 14.3007 63.9985 13.8655C64.8076 13.4859 65.7553 13.2835 66.6811 13.081C66.0906 13.5163 65.5512 14.1134 64.6035 14.159C63.7579 14.1945 63.8454 14.9738 63.9985 15.3838C64.414 15.7734 65.2159 16.0265 65.8938 15.8291C67.1257 15.6014 68.19 15.1206 69.2908 14.6854C68.9409 14.4526 68.6274 14.1945 68.3942 13.8958C69.2106 13.8149 70.0416 13.744 70.8508 13.6327C69.9979 13.5973 68.6566 13.901 68.6493 12.995C69.4949 12.9849 70.3478 13.0355 71.1934 12.9849C70.53 12.8938 69.8229 12.9394 69.1887 12.7723C69.1596 12.6003 69.094 12.2612 69.0575 12.0891C70.9309 12.2309 72.6732 12.7875 74.2113 13.5214C75.2173 12.5396 77.0032 13.1266 78.3227 12.6003C91.6846 8.95648 105.695 6.63358 119.699 4.53333C128.49 3.24282 137.318 2.1345 146.16 1.15776Z" fill="#37AFE3"/>
<path d="M74.6207 74.0695C74.2493 74.0695 73.9214 74.0177 73.6369 73.9141C73.3602 73.8031 73.1469 73.6218 72.9967 73.3702C72.8466 73.1111 72.7715 72.7671 72.7715 72.3379V65.8887H73.9688V72.1714C73.9688 72.4082 74.0123 72.5931 74.0991 72.7263C74.1861 72.8522 74.3007 72.9373 74.4429 72.9817C74.5852 73.0261 74.7393 73.0483 74.9052 73.0483H77.9281V74.0695H74.6207ZM88.6699 74.1361C87.9989 74.1361 87.4611 74.0435 87.0582 73.8586C86.6632 73.6735 86.3784 73.3627 86.2045 72.9262C86.0385 72.4822 85.9555 71.8716 85.9555 71.0947C85.9555 70.3028 86.0385 69.6887 86.2045 69.252C86.3784 68.808 86.6632 68.4972 87.0582 68.3196C87.4531 68.142 87.9869 68.0532 88.6587 68.0532C89.2436 68.0532 89.7135 68.1124 90.0694 68.2308C90.4324 68.3419 90.6973 68.5453 90.8632 68.8413C91.0372 69.1299 91.1241 69.5332 91.1241 70.0512C91.1241 70.4139 91.0452 70.7024 90.8872 70.9171C90.7372 71.1316 90.5194 71.2871 90.2353 71.3832C89.9585 71.4795 89.6265 71.5275 89.2396 71.5275H87.1412C87.1491 71.9567 87.2002 72.3009 87.2952 72.5599C87.3981 72.8115 87.576 72.9965 87.8289 73.1149C88.089 73.2259 88.4688 73.2814 88.9667 73.2814H90.9462V73.9474C90.6063 73.9918 90.2585 74.0325 89.9034 74.0695C89.5475 74.1139 89.1366 74.1361 88.6699 74.1361ZM87.1292 70.8283H89.1327C89.4486 70.8283 89.6816 70.7727 89.8316 70.6618C89.9824 70.5507 90.0574 70.3472 90.0574 70.0512C90.0574 69.7552 90.0095 69.5221 89.9146 69.3519C89.8276 69.1817 89.6816 69.0596 89.4765 68.9856C89.2707 68.9116 88.9978 68.8747 88.6587 68.8747C88.271 68.8747 87.963 68.9301 87.734 69.0411C87.5122 69.1521 87.3542 69.3483 87.2592 69.6295C87.1723 69.9107 87.1292 70.3103 87.1292 70.8283ZM101.876 74.0695C101.449 74.0695 101.094 74.0066 100.81 73.8807C100.533 73.7475 100.328 73.5367 100.193 73.2481C100.067 72.9595 100.007 72.5747 100.015 72.0936L100.063 69.0411H99.055V68.3196L100.086 68.1309L100.264 66.4659H101.2V68.1309H102.919V69.0411H101.2V72.0826C101.2 72.3119 101.224 72.497 101.271 72.6375C101.319 72.7782 101.386 72.8855 101.473 72.9595C101.56 73.0335 101.655 73.089 101.757 73.1259C101.86 73.1555 101.959 73.1741 102.054 73.1815L102.836 73.2481V74.0695H101.876ZM110.957 68.4751L110.85 66.4992V65.7555H112V66.4992L111.905 68.4751H110.957ZM122.422 74.1361C122.256 74.1361 122.058 74.1324 121.829 74.125C121.6 74.1175 121.363 74.1027 121.119 74.0806C120.882 74.0658 120.66 74.0473 120.455 74.0251C120.257 74.0029 120.099 73.977 119.98 73.9474V73.2814H122.647C122.877 73.2814 123.074 73.2666 123.24 73.237C123.406 73.1999 123.533 73.1259 123.62 73.015C123.714 72.9039 123.762 72.7411 123.762 72.5266V72.2823C123.762 72.0603 123.683 71.8864 123.525 71.7607C123.367 71.6348 123.106 71.5719 122.742 71.5719H121.817C121.446 71.5719 121.115 71.5275 120.822 71.4387C120.538 71.3426 120.312 71.1835 120.146 70.9615C119.988 70.7395 119.909 70.4398 119.909 70.0623V69.7404C119.909 69.3631 119.984 69.0523 120.135 68.808C120.293 68.5639 120.542 68.3825 120.882 68.2641C121.221 68.1383 121.671 68.0755 122.232 68.0755C122.469 68.0755 122.73 68.0865 123.015 68.1087C123.307 68.1235 123.592 68.1457 123.869 68.1753C124.145 68.2049 124.367 68.2383 124.533 68.2752V68.9412H122.019C121.671 68.9412 121.403 68.9967 121.214 69.1077C121.032 69.2187 120.941 69.4296 120.941 69.7404V69.9624C120.941 70.1548 120.984 70.3028 121.071 70.4064C121.158 70.51 121.281 70.5767 121.438 70.6063C121.604 70.6359 121.798 70.6507 122.019 70.6507H122.967C123.568 70.6507 124.023 70.7839 124.331 71.0503C124.639 71.3092 124.793 71.6755 124.793 72.1491V72.6043C124.793 73.0039 124.695 73.3147 124.497 73.5367C124.299 73.7587 124.023 73.9141 123.667 74.0029C123.319 74.0917 122.904 74.1361 122.422 74.1361ZM143.553 74.0695V67.5981C143.553 67.2725 143.605 66.9987 143.708 66.7767C143.818 66.5547 143.961 66.3808 144.134 66.255C144.308 66.1218 144.502 66.0293 144.715 65.9775C144.937 65.9183 145.154 65.8887 145.367 65.8887C145.691 65.8961 146.058 65.9035 146.469 65.9109C146.88 65.9109 147.307 65.9183 147.75 65.9331C148.2 65.9479 148.635 65.9738 149.054 66.0108V66.921H145.663C145.371 66.921 145.146 66.995 144.988 67.143C144.83 67.291 144.751 67.5056 144.751 67.7868V69.6849L148.521 69.7515V70.6174L144.751 70.6839V74.0695H143.553ZM157.58 67.1319C157.438 67.1319 157.367 67.069 157.367 66.9432V66.0108C157.367 65.8776 157.438 65.811 157.58 65.811H158.457C158.52 65.811 158.567 65.8295 158.599 65.8665C158.631 65.9035 158.647 65.9516 158.647 66.0108V66.9432C158.647 67.069 158.583 67.1319 158.457 67.1319H157.58ZM157.414 74.0695V68.1309H158.599V74.0695H157.414ZM169.591 74.1361C169.425 74.1361 169.227 74.1324 168.999 74.125C168.769 74.1175 168.531 74.1027 168.287 74.0806C168.05 74.0658 167.828 74.0473 167.623 74.0251C167.425 74.0029 167.267 73.977 167.149 73.9474V73.2814H169.817C170.046 73.2814 170.244 73.2666 170.41 73.237C170.575 73.1999 170.701 73.1259 170.789 73.015C170.883 72.9039 170.931 72.7411 170.931 72.5266V72.2823C170.931 72.0603 170.852 71.8864 170.694 71.7607C170.535 71.6348 170.274 71.5719 169.912 71.5719H168.987C168.614 71.5719 168.282 71.5275 167.991 71.4387C167.706 71.3426 167.481 71.1835 167.315 70.9615C167.157 70.7395 167.078 70.4398 167.078 70.0623V69.7404C167.078 69.3631 167.153 69.0523 167.303 68.808C167.461 68.5639 167.71 68.3825 168.05 68.2641C168.389 68.1383 168.84 68.0755 169.402 68.0755C169.639 68.0755 169.9 68.0865 170.184 68.1087C170.476 68.1235 170.761 68.1457 171.037 68.1753C171.313 68.2049 171.535 68.2383 171.701 68.2752V68.9412H169.188C168.84 68.9412 168.572 68.9967 168.382 69.1077C168.199 69.2187 168.109 69.4296 168.109 69.7404V69.9624C168.109 70.1548 168.152 70.3028 168.24 70.4064C168.326 70.51 168.448 70.5767 168.607 70.6063C168.773 70.6359 168.967 70.6507 169.188 70.6507H170.137C170.737 70.6507 171.191 70.7839 171.499 71.0503C171.808 71.3092 171.962 71.6755 171.962 72.1491V72.6043C171.962 73.0039 171.862 73.3147 171.665 73.5367C171.467 73.7587 171.191 73.9141 170.836 74.0029C170.488 74.0917 170.073 74.1361 169.591 74.1361ZM180.425 74.0695V65.6001H181.61V68.7747C181.888 68.5823 182.223 68.4121 182.618 68.2641C183.014 68.1087 183.42 68.0311 183.839 68.0311C184.297 68.0311 184.669 68.1199 184.953 68.2975C185.246 68.4751 185.459 68.7192 185.593 69.03C185.729 69.3335 185.795 69.6775 185.795 70.0623V74.0695H184.609V70.1955C184.609 69.9661 184.558 69.7663 184.455 69.5961C184.36 69.4185 184.223 69.2816 184.04 69.1855C183.867 69.0892 183.657 69.0411 183.412 69.0411C183.175 69.0411 182.954 69.0633 182.749 69.1077C182.552 69.1521 182.362 69.2151 182.18 69.2964C181.998 69.3779 181.808 69.4703 181.61 69.5739V74.0695H180.425ZM194.695 67.1319C194.553 67.1319 194.482 67.069 194.482 66.9432V66.0108C194.482 65.8776 194.553 65.811 194.695 65.811H195.573C195.637 65.811 195.684 65.8295 195.715 65.8665C195.747 65.9035 195.763 65.9516 195.763 66.0108V66.9432C195.763 67.069 195.7 67.1319 195.573 67.1319H194.695ZM194.529 74.0695V68.1309H195.715V74.0695H194.529ZM204.49 74.0695V68.1309H205.438L205.675 68.7747C205.96 68.5823 206.296 68.4121 206.682 68.2641C207.078 68.1087 207.485 68.0311 207.904 68.0311C208.378 68.0311 208.757 68.1272 209.042 68.3196C209.335 68.5047 209.544 68.7525 209.67 69.0633C209.796 69.3741 209.859 69.7108 209.859 70.0735V74.0695H208.674V70.2067C208.674 69.9699 208.623 69.7663 208.52 69.5961C208.425 69.4185 208.291 69.2816 208.117 69.1855C207.944 69.0892 207.731 69.0411 207.477 69.0411C207.24 69.0411 207.019 69.0633 206.813 69.1077C206.616 69.1521 206.426 69.2151 206.244 69.2964C206.062 69.3704 205.873 69.4629 205.675 69.5739V74.0695H204.49ZM220.171 76.8001C219.767 76.8001 219.408 76.7446 219.092 76.6336C218.784 76.53 218.54 76.3672 218.357 76.1452C218.176 75.9307 218.085 75.6642 218.085 75.346V75.1018C218.085 74.7688 218.184 74.4876 218.381 74.2582C218.587 74.0362 218.844 73.8659 219.152 73.7475C219.459 73.6291 219.779 73.5699 220.111 73.5699L220.431 73.9807C220.218 73.9807 220.016 74.0103 219.827 74.0695C219.645 74.1361 219.495 74.2359 219.377 74.3691C219.266 74.5098 219.211 74.6874 219.211 74.902V75.1129C219.211 75.4237 219.322 75.6494 219.542 75.79C219.772 75.9307 220.084 76.0009 220.479 76.0009H221.866C222.286 76.0009 222.617 75.9232 222.862 75.7678C223.107 75.6198 223.229 75.3867 223.229 75.0685V74.8576C223.229 74.68 223.186 74.5246 223.099 74.3914C223.02 74.2582 222.89 74.1546 222.708 74.0806C222.527 74.0139 222.278 73.9807 221.961 73.9807H220.206C219.645 73.9807 219.219 73.8734 218.927 73.6587C218.635 73.4442 218.488 73.1741 218.488 72.8485C218.488 72.5524 218.579 72.3157 218.761 72.138C218.95 71.9531 219.215 71.8272 219.554 71.7607C219.27 71.6423 219.045 71.4906 218.879 71.3055C218.721 71.1206 218.611 70.9207 218.547 70.7062C218.484 70.4842 218.452 70.2622 218.452 70.0401C218.452 69.5887 218.552 69.2224 218.749 68.9412C218.946 68.66 219.231 68.4528 219.602 68.3196C219.981 68.1864 220.431 68.1199 220.953 68.1199H224.367V68.7525L223.075 68.8747C223.17 68.9412 223.273 69.03 223.383 69.1411C223.494 69.2447 223.589 69.3889 223.667 69.5739C223.747 69.759 223.786 70.0031 223.786 70.3066C223.786 70.6247 223.711 70.9207 223.561 71.1946C223.419 71.4683 223.182 71.6903 222.85 71.8606C222.527 72.0307 222.084 72.1159 221.522 72.1159H220.479C220.179 72.1159 219.942 72.1566 219.767 72.2379C219.594 72.3194 219.507 72.4636 219.507 72.6709C219.507 72.8411 219.574 72.9595 219.708 73.0261C219.843 73.0927 219.986 73.1259 220.135 73.1259H222.139C222.621 73.1259 223.024 73.1851 223.348 73.3035C223.679 73.4219 223.928 73.6033 224.094 73.8475C224.26 74.0917 224.343 74.4099 224.343 74.8021V75.013C224.343 75.5754 224.146 76.012 223.75 76.3228C223.364 76.6411 222.775 76.8001 221.985 76.8001H220.171ZM220.692 71.2611H221.392C221.748 71.2611 222.017 71.2131 222.198 71.1168C222.388 71.0132 222.518 70.88 222.589 70.7172C222.661 70.5544 222.696 70.3731 222.696 70.1734C222.696 69.8773 222.645 69.6443 222.542 69.474C222.44 69.2964 222.298 69.1707 222.115 69.0967C221.942 69.0152 221.729 68.9745 221.475 68.9745H220.811C220.408 68.9745 220.092 69.0596 219.862 69.2299C219.642 69.4 219.531 69.6923 219.531 70.1067C219.531 70.5138 219.633 70.8098 219.839 70.9947C220.045 71.1723 220.329 71.2611 220.692 71.2611Z" fill="white"/>
<path d="M224.367 60H72.7715V60.8H224.367V60Z" fill="#37AFE3"/>
<path d="M72.7715 54.9164L76.8556 19.9098H83.5994L91.6723 46.7324L99.6981 19.9098H106.395L110.526 54.9164H103.735L100.695 29.1345L101.788 29.2291L94.9021 54.9164H88.3005L81.3199 29.2291L82.5071 29.1818L79.5626 54.9164H72.7715ZM120.264 55.2002C118.332 55.2002 116.765 54.6325 115.562 53.4972C114.359 52.3618 113.757 50.7849 113.757 48.7666V46.4959C113.757 44.572 114.439 42.9952 115.8 41.7652C117.161 40.5037 119.283 39.873 122.164 39.873H128.67V38.1227C128.67 37.3342 128.527 36.6877 128.242 36.1831C127.957 35.647 127.419 35.2685 126.628 35.0478C125.867 34.7955 124.696 34.6693 123.113 34.6693H115.467V30.601C116.702 30.2225 118.127 29.8914 119.741 29.6076C121.387 29.3237 123.367 29.1818 125.678 29.1818C127.799 29.1818 129.604 29.4341 131.092 29.9387C132.611 30.4433 133.751 31.3106 134.511 32.5405C135.302 33.7705 135.698 35.4736 135.698 37.6496V54.9164H130.142L129.002 52.2199C128.781 52.4722 128.401 52.756 127.862 53.0714C127.324 53.3868 126.659 53.718 125.867 54.0648C125.108 54.3802 124.237 54.6483 123.256 54.8691C122.306 55.0898 121.308 55.2002 120.264 55.2002ZM123.826 50.3276C124.142 50.3276 124.49 50.2961 124.87 50.2331C125.282 50.1384 125.694 50.0438 126.105 49.9492C126.548 49.8231 126.944 49.7127 127.292 49.618C127.672 49.492 127.973 49.3816 128.195 49.2869C128.448 49.1923 128.607 49.1292 128.67 49.0977V43.1844L124.395 43.4683C123.161 43.5629 122.243 43.8783 121.641 44.4144C121.071 44.9505 120.787 45.6759 120.787 46.5904V47.6312C120.787 48.262 120.913 48.7824 121.166 49.1923C121.451 49.6023 121.815 49.9019 122.259 50.0912C122.733 50.2488 123.256 50.3276 123.826 50.3276ZM140.96 54.9164V29.5129H146.374L147.988 33.392C148.907 32.2252 149.936 31.2317 151.075 30.4118C152.247 29.5918 153.625 29.1818 155.208 29.1818C155.556 29.1818 155.904 29.1976 156.252 29.2291C156.632 29.2607 156.981 29.3237 157.296 29.4184V36.6088C156.822 36.5458 156.315 36.4985 155.777 36.4669C155.271 36.4039 154.78 36.3724 154.305 36.3724C153.387 36.3724 152.548 36.4828 151.788 36.7035C151.06 36.8927 150.379 37.1923 149.746 37.6023C149.145 37.9808 148.559 38.4853 147.988 39.1161V54.9164H140.96ZM161.896 25.7758C161.232 25.7758 160.899 25.4604 160.899 24.8296V20.1936C160.899 19.5313 161.232 19.2002 161.896 19.2002H167.31C167.595 19.2002 167.816 19.2948 167.975 19.484C168.133 19.6732 168.212 19.9098 168.212 20.1936V24.8296C168.212 25.4604 167.911 25.7758 167.31 25.7758H161.896ZM161.042 54.9164V29.5129H168.07V54.9164H161.042ZM173.47 54.9164V29.5129H179.264L180.499 32.1148C181.449 31.3264 182.636 30.6325 184.061 30.0333C185.517 29.4026 187.005 29.0872 188.525 29.0872C190.614 29.0872 192.229 29.4972 193.369 30.3172C194.508 31.1372 195.3 32.2409 195.744 33.6286C196.218 34.9847 196.456 36.4985 196.456 38.17V54.9164H189.427V39.0688C189.427 38.2488 189.269 37.5708 188.952 37.0346C188.667 36.4985 188.256 36.0885 187.718 35.8047C187.179 35.5208 186.531 35.3789 185.77 35.3789C185.106 35.3789 184.457 35.4577 183.823 35.6155C183.222 35.7732 182.636 35.9939 182.066 36.2777C181.528 36.5616 181.005 36.8927 180.499 37.2712V54.9164H173.47ZM212.637 55.1529C210.547 55.1529 208.758 54.9479 207.27 54.5379C205.782 54.0964 204.564 53.371 203.614 52.3618C202.696 51.3526 202.015 50.0123 201.572 48.3408C201.16 46.6693 200.954 44.6036 200.954 42.1437C200.954 39.5576 201.16 37.4288 201.572 35.7574C202.015 34.0544 202.696 32.7298 203.614 31.7836C204.564 30.806 205.782 30.128 207.27 29.7495C208.79 29.3395 210.579 29.1345 212.637 29.1345C214.758 29.1345 216.563 29.3395 218.051 29.7495C219.539 30.1595 220.742 30.8533 221.66 31.8309C222.61 32.7771 223.291 34.1016 223.703 35.8047C224.145 37.4761 224.367 39.5892 224.367 42.1437C224.367 44.6667 224.161 46.7797 223.75 48.4828C223.338 50.1542 222.673 51.4788 221.755 52.4564C220.837 53.4341 219.618 54.128 218.098 54.5379C216.61 54.9479 214.79 55.1529 212.637 55.1529ZM212.637 49.5708C213.492 49.5708 214.205 49.492 214.774 49.3342C215.376 49.1765 215.851 48.8612 216.199 48.3881C216.579 47.8835 216.864 47.1266 217.054 46.1174C217.244 45.1082 217.339 43.7836 217.339 42.1437C217.339 40.4722 217.244 39.1476 217.054 38.17C216.864 37.1608 216.579 36.4196 216.199 35.9466C215.851 35.442 215.376 35.1108 214.774 34.9532C214.205 34.7955 213.492 34.7166 212.637 34.7166C211.814 34.7166 211.102 34.7955 210.5 34.9532C209.931 35.1108 209.455 35.442 209.075 35.9466C208.695 36.4196 208.411 37.1608 208.221 38.17C208.062 39.1476 207.983 40.4722 207.983 42.1437C207.983 43.7836 208.062 45.1082 208.221 46.1174C208.411 47.1266 208.695 47.8835 209.075 48.3881C209.455 48.8612 209.931 49.1765 210.5 49.3342C211.102 49.492 211.814 49.5708 212.637 49.5708Z" fill="white"/>
<path d="M65.1934 18.1393C66.3618 17.5382 67.4533 16.8085 68.596 16.1611C67.6223 17.0398 66.4949 17.8515 65.1934 18.1393Z" fill="white"/>
<path d="M44.853 18.374C44.8991 17.2693 46.1033 16.8275 47.0565 16.9405C46.4928 17.295 45.6883 17.6084 45.6934 18.4048C45.719 19.2629 46.6721 19.5455 47.3588 19.6996C46.3851 20.4652 44.7043 19.6688 44.853 18.374Z" fill="#ECF5FB"/>
<path d="M24.494 22.4337C20.251 24.3399 16.2744 26.9809 13.1998 30.5056C10.6324 33.4754 8.62883 37.0464 7.89091 40.9359C8.61854 39.636 9.1054 38.2025 9.9612 36.9693C13.497 31.0451 18.7854 26.3077 24.7707 22.9629C25.4728 22.5518 26.3388 22.3412 26.8359 21.6526C26.0057 21.7451 25.2473 22.1048 24.494 22.4337ZM44.8534 18.3745C44.7047 19.6693 46.3855 20.4657 47.3643 19.7002C46.6776 19.5461 45.7245 19.2634 45.6989 18.4054C45.6886 17.6038 46.4982 17.2956 47.0619 16.941C46.1037 16.828 44.8995 17.2699 44.8534 18.3745ZM53.1139 10.8473C55.84 10.5749 58.6636 10.0046 61.3488 10.8267C62.0868 11.0477 63.0553 11.6129 62.8349 12.5325C62.7222 14.4285 60.657 15.1325 59.9396 16.7098C59.0172 18.3849 58.8379 20.327 58.8071 22.2025C58.1461 22.1716 57.3621 22.151 56.9726 21.5191C56.1116 20.1934 56.6138 18.5595 56.7266 17.1003C55.63 18.3283 55.3174 20.1061 55.5582 21.6989C55.6915 22.7419 56.6087 23.636 57.69 23.5486C60.1959 23.4869 62.4916 22.3257 64.7668 21.3906C64.3005 23.2403 62.8195 24.5917 61.313 25.6398C59.5194 26.7599 57.444 27.6231 55.2969 27.5101C54.4821 27.4793 53.7596 27.0733 53.2266 26.467C53.2317 25.6244 53.119 24.7817 53.16 23.9391C53.2215 21.8479 54.0312 19.8954 54.5385 17.8967C52.171 21.4009 52.0685 25.8299 50.2699 29.5858C49.8599 30.4233 49.2296 31.1478 48.4609 31.6719C47.4361 31.9185 46.2061 31.9853 45.3709 31.2095C44.4229 30.3565 44.3204 28.9745 44.4997 27.7927C44.7764 26.2872 45.3555 24.7509 46.529 23.713C46.2626 24.8383 45.9038 26.0303 46.2882 27.1761C46.4009 27.6334 46.8826 27.8081 47.2977 27.9005C48.1176 27.952 48.5686 27.1145 48.835 26.4619C49.3782 24.9513 49.4602 23.3225 50.0546 21.8222C50.521 20.4761 51.1922 19.2172 51.6637 17.8761C50.4851 18.6161 49.6498 19.7567 48.5429 20.5839C47.4975 21.4061 46.2266 22.0123 44.879 22.0534C44.0796 22.0174 43.562 21.3393 43.1161 20.7637C41.0049 21.591 39.2677 23.1581 37.7868 24.8485C36.6697 26.0252 36.0906 27.5666 35.5423 29.0669C35.4449 27.1761 35.8959 25.3007 36.7721 23.6308C34.3893 25.3418 33.4412 28.363 33.5078 31.1992C31.9706 31.0348 30.4024 30.8858 28.8805 31.2095C26.5694 31.713 24.4223 32.7612 22.3674 33.9121C21.0862 34.6161 19.9691 35.582 18.6983 36.2962C20.0768 33.7374 22.4032 31.8825 24.5402 29.9866C22.0804 31.302 19.7437 32.864 17.7144 34.7805C14.1632 37.8787 11.191 41.7169 9.38721 46.0945C7.5117 50.4105 6.74817 55.1581 6.94289 59.8543C6.88652 61.8376 7.45021 63.7644 7.51683 65.7323C1.61862 56.8948 -0.969215 45.8993 0.327266 35.3457C0.557866 33.6347 0.870455 31.9237 1.38802 30.2744C1.63912 29.3597 2.34629 28.6867 3.02271 28.0753C4.60616 26.7753 6.47144 25.8761 8.38795 25.1877C6.59443 25.0592 4.83163 25.4908 3.13545 26.0201C3.60689 25.3366 4.31406 24.8897 4.99561 24.4581C8.03442 22.6341 11.6471 21.9712 15.1522 22.1048C14.7832 22.6649 14.281 23.117 13.8148 23.6C9.97652 27.6848 6.77891 32.4786 5.02636 37.8376C4.34481 40.0316 3.74013 42.3077 3.84262 44.6096C4.91362 37.144 9.13101 30.4131 14.6244 25.3881C17.8989 22.3155 21.6756 19.8132 25.6778 17.794C29.9669 15.5641 34.6557 14.2487 39.319 13.0515C43.8489 11.9365 48.4814 11.2943 53.1139 10.8473Z" fill="white"/>
<path d="M65.439 19.7876C66.633 19.803 67.8372 20.3939 68.3445 21.5191C69.313 23.2198 68.5239 25.2494 67.4887 26.7189C65.6285 29.329 62.9895 31.3226 60.1045 32.6688C59.7458 32.8538 59.3409 33.0028 59.0591 33.311C56.3842 36.2346 53.0276 38.8962 49.0204 39.559C48.8512 42.7343 47.9596 46.1614 45.3974 48.2474C42.8915 50.3695 39.3813 50.6521 36.2554 50.164C37.5468 47.8415 39.2891 45.7966 40.5446 43.4588C39.3044 44.25 37.9259 44.7946 36.691 45.6014C33.1244 47.8262 29.8755 50.8062 28.0204 54.6392C26.7496 57.2186 26.314 60.173 26.6573 63.0246C27.0622 62.3464 27.1647 61.5448 27.4465 60.8203C28.1281 58.8936 28.8762 56.9411 30.1164 55.2918C34.0263 59.6283 39.7708 62.1614 45.5972 62.1922C43.1324 61.2366 40.5651 60.2551 38.5768 58.462C40.7546 59.1762 43.404 58.4979 44.7876 56.6174C45.7714 55.3431 46.7246 54.033 47.8058 52.8358C50.1015 50.2256 53.1301 47.7028 56.7941 47.749C55.4873 51.2378 54.5188 54.9013 54.4932 58.647C54.3497 62.7677 55.4719 66.9655 57.9061 70.3155C59.6688 72.679 61.9902 74.5955 64.5679 75.9982C64.5935 76.0702 64.6396 76.2089 64.6601 76.2757C60.1301 77.5808 55.2312 77.0721 50.8549 75.4434C47.1192 74.1382 43.9113 71.7182 40.2268 70.3001C38.546 69.663 36.7269 68.7638 34.8975 69.293C35.579 70.6649 36.8344 71.636 37.6646 72.9102C33.0065 74.0046 27.7642 73.645 23.716 70.9013C23.388 70.6495 23.0703 71.0349 22.8448 71.2404C20.4466 73.4806 19.2987 76.6816 18.4583 79.7798C17.3771 78.8962 16.634 77.6681 15.9935 76.4453C13.9847 72.3091 13.1802 67.5718 13.8258 63.0092C14.5022 57.9995 17.0696 53.3855 20.6413 49.8659C21.8558 48.7253 23.0498 47.5024 24.5256 46.7112C20.5491 51.2943 17.3104 57.0438 17.3771 63.2763C18.8119 59.2738 20.6976 55.4099 23.2547 52.0034C27.3133 46.4799 32.9194 42.164 39.1764 39.4254C36.9882 38.2282 35.0153 36.363 34.4516 33.8402C35.9325 34.9552 37.516 35.9726 39.2942 36.5429C42.4149 37.5448 45.8534 37.365 48.9229 36.2706C50.7268 35.6386 52.5101 34.8679 54.0679 33.7478C52.0642 34.0869 50.0093 34.1486 48.0057 33.7581C49.0306 33.5012 50.0862 33.3933 51.1162 33.1569C55.5232 32.1704 59.7816 30.0689 62.846 26.6881C64.0042 25.3676 65.2135 23.9649 65.6696 22.2282C65.9155 21.3958 65.6747 20.5686 65.439 19.7876Z" fill="white"/>
<path d="M25.6681 37.6831C27.2669 37.01 28.9272 36.4963 30.5465 35.8643C28.9324 37.2875 27.19 38.5463 25.5451 39.9285C27.8152 38.7775 30.4595 37.2361 33.0422 38.3254C32.9499 38.7262 32.7398 39.0859 32.4477 39.3735C30.936 41.0127 29.4602 42.7185 27.641 44.0184C26.8211 44.6247 25.8321 44.9843 24.8277 45.1231C22.0195 45.2413 19.0833 44.9998 16.6133 43.5406C17.3307 42.6774 18.1916 41.958 19.032 41.2233C21.133 39.8411 23.3365 38.6234 25.6681 37.6831Z" fill="white"/>
<path d="M48.5475 20.5842C49.6544 19.757 50.4897 18.6112 51.6683 17.8765C51.1969 19.2175 50.5255 20.4764 50.0592 21.8225C49.1419 21.8841 48.4194 22.5161 47.5585 22.7731C45.601 23.364 43.5358 23.3434 41.5168 23.2047C40.5534 23.6465 39.877 24.4995 39.1545 25.2445C38.437 25.9689 38.0988 26.9503 37.694 27.8597C37.0893 29.2265 37.2379 30.7577 37.2328 32.2117C37.202 33.8713 38.1295 35.4179 39.2979 36.538C37.5197 35.9677 35.9415 34.9503 34.4553 33.8353C34.4092 33.5733 34.3631 33.3164 34.3221 33.0544C33.8199 32.931 33.2921 32.7821 32.7797 32.9413C29.0081 33.861 25.5389 35.7621 22.495 38.1513C21.3574 39.1995 19.943 39.9445 19.036 41.2342C18.2007 41.9689 17.3347 42.6831 16.6172 43.5515C19.0872 45.0158 22.0235 45.2521 24.8317 45.134C23.7094 46.0589 22.2336 46.2336 20.8603 46.4956C18.9745 46.8913 17.1246 46.0229 15.2388 46.1308C14.4445 47.2612 13.4196 48.2323 12.7945 49.4757C11.7901 51.4333 10.7037 53.3704 10.1195 55.5026C9.49949 57.9946 8.58217 60.4301 8.35159 63.0145C8.25936 64.0729 7.89551 65.0801 7.73665 66.1282C7.68028 66.0665 7.57267 65.9433 7.52143 65.8816V65.7429C7.4548 63.7698 6.89625 61.843 6.94749 59.8649C6.75276 55.1687 7.5163 50.4262 9.39186 46.1051C11.1956 41.7223 14.1678 37.8893 17.719 34.791C19.7534 32.8694 22.0902 31.3125 24.5447 29.9972C22.4079 31.8932 20.0865 33.748 18.7029 36.3068C19.9738 35.5874 21.0909 34.6266 22.372 33.9227C24.4269 32.7666 26.574 31.7236 28.8852 31.2201C30.4071 30.8964 31.9803 31.0453 33.5125 31.2098C33.4459 28.3787 34.399 25.3524 36.7767 23.6414C35.9004 25.3113 35.4495 27.1867 35.5468 29.0775C36.0952 27.5772 36.6742 26.0357 37.7913 24.8591C39.2723 23.1738 41.0044 21.6067 43.1208 20.7744C43.5615 21.3498 44.0841 22.0281 44.8835 22.064C46.2262 22.0126 47.5021 21.4115 48.5475 20.5842Z" fill="#37AFE3"/>
<path d="M50.2738 29.5861C52.0724 25.8302 52.175 21.4011 54.5424 17.897C54.0402 19.8957 53.2306 21.8533 53.1639 23.9394C53.1229 24.782 53.2357 25.6247 53.2306 26.4673C52.8718 27.9368 52.6361 29.4628 52.0314 30.8552C51.1296 32.8796 48.3009 33.3831 46.5586 32.1757C47.0403 31.6259 47.8858 32.0215 48.4598 31.6722C49.2284 31.1532 49.8639 30.4236 50.2738 29.5861Z" fill="#37AFE3"/>
<path d="M24.4938 22.4336C25.247 22.1099 26.0055 21.745 26.8356 21.6577C26.3385 22.3411 25.4725 22.5568 24.7705 22.9679C18.7851 26.3128 13.4916 31.0501 9.9609 36.9743C9.10511 38.2075 8.61832 39.6359 7.89062 40.9409C8.62854 37.0514 10.6322 33.4856 13.1995 30.5106C16.2741 26.9808 20.2507 24.3398 24.4938 22.4336Z" fill="#37AFE3"/>
</g>
</g>
<defs>
<clipPath id="clip0_766_2286">
<rect width="225" height="80" fill="white"/>
</clipPath>
</defs>
</svg>
