<svg width="40" height="40" viewBox="0 0 40 40" fill="none" xmlns="http://www.w3.org/2000/svg">
<g clip-path="url(#clip0_1_10174)">
<path d="M18.6207 21.3794H16.6104C16.732 21.9816 16.9725 22.5535 17.3177 23.0617C17.6628 23.5699 18.1058 24.0043 18.6207 24.3394V21.3794Z" fill="white"/>
<path d="M11.0342 33.7931H17.9307V33.1035C17.9336 32.8704 17.9663 32.6386 18.028 32.4138L11.0342 30.5518V33.7931Z" fill="white"/>
<path d="M14.2481 26.8965C13.5611 26.896 12.8921 27.116 12.3394 27.524C11.7867 27.9321 11.3795 28.5067 11.1777 29.1634L18.7233 31.1723C18.9152 30.9804 19.1343 30.8178 19.3736 30.6896L16.5191 27.8351C15.9146 27.2363 15.0989 26.8992 14.2481 26.8965Z" fill="white"/>
<path d="M32.6768 32.2325L32.5643 31.4483C32.5147 31.1035 32.4471 30.7587 32.3671 30.4173C32.363 30.4014 32.3609 30.3869 32.3568 30.3711L32.3333 30.2849L32.2878 30.1269C32.2188 29.8566 32.1437 29.5863 32.0547 29.3228L31.9768 29.1235C31.8795 28.8538 31.7774 28.5821 31.6588 28.3194L31.594 28.1876C31.4637 27.9069 31.3271 27.6297 31.1754 27.3601L31.1705 27.3525L31.1637 27.3449C31.1402 27.3042 31.1188 27.2704 31.0947 27.2311C30.9423 26.969 30.783 26.7076 30.6119 26.4559C30.2329 25.9472 29.818 25.4663 29.3705 25.0166C28.876 26.941 27.7538 28.6455 26.1816 29.8604C24.6093 31.0753 22.6768 31.7312 20.6899 31.7242C20.324 31.7242 19.9732 31.8695 19.7145 32.1282C19.4559 32.3868 19.3105 32.7377 19.3105 33.1035V36.5518C19.3105 36.9176 19.4559 37.2684 19.7145 37.5271C19.9732 37.7858 20.324 37.9311 20.6899 37.9311C25.2172 37.9447 29.5652 36.1628 32.7809 32.9759L32.6768 32.2325Z" fill="white"/>
<path d="M12.041 39.1105C12.6349 39.6802 13.4256 39.9989 14.2486 40.0002H15.0624C15.499 39.9974 15.9308 39.908 16.3327 39.7374L18.9031 38.634C18.6263 38.3971 18.3993 38.1076 18.2355 37.7822L12.041 39.1105Z" fill="white"/>
<path d="M5.14338 12.2172C5.65883 12.0152 6.1016 11.6629 6.41413 11.206C6.72666 10.7491 6.89449 10.2087 6.89579 9.65509V7.87164L6.00407 8.76337L5.0289 7.7882L7.09786 5.71923C7.19431 5.62281 7.31718 5.55715 7.45094 5.53055C7.5847 5.50395 7.72335 5.51761 7.84935 5.5698C7.97535 5.62198 8.08305 5.71036 8.15883 5.82374C8.23461 5.93713 8.27507 6.07044 8.2751 6.20682V9.65509C8.27374 10.5165 8.00382 11.3559 7.50295 12.0567C7.00207 12.7575 6.29515 13.2846 5.48062 13.5647L5.9151 15.3034L12.2165 9.52751L11.8792 8.29164C11.5611 7.10108 10.8591 6.04873 9.88202 5.29773C8.90496 4.54673 7.70744 4.13903 6.4751 4.13785C6.10275 4.13092 5.73425 4.21424 5.4011 4.3807C5.06794 4.54716 4.78004 4.79179 4.562 5.09371C4.26421 5.5243 4.06861 6.01716 3.99009 6.53477C3.91157 7.05238 3.9522 7.58108 4.1089 8.08061L5.14338 12.2172Z" fill="white"/>
<path d="M36.7681 4.82755C35.4925 3.93229 33.9726 3.45077 32.4143 3.44824H27.7246C28.6671 3.83268 29.5764 4.29401 30.4432 4.82755H36.7681Z" fill="white"/>
<path d="M13.7244 15.0137L12.6278 11.0227L4.40229 18.5613C4.27547 18.7134 4.20636 18.9054 4.20712 19.1034C4.20546 19.221 4.2273 19.3378 4.27133 19.4468C4.31537 19.5559 4.38073 19.6551 4.46358 19.7386C4.54643 19.8221 4.64511 19.8882 4.75384 19.9331C4.86256 19.978 4.97915 20.0007 5.09677 19.9999C8.22505 19.9999 10.8968 18.4593 13.7244 15.0137Z" fill="white"/>
<path d="M25.0169 22.1048C25.0169 22.1048 24.959 22.0903 24.9114 22.0744C24.6245 21.9723 24.3438 21.8737 24.0631 21.7985C23.9942 21.7861 23.8852 21.7627 23.7673 21.7296C23.5817 21.6834 23.3817 21.6385 23.1824 21.5972C22.8365 22.8874 22.9349 24.2565 23.4617 25.4841L25.319 22.2344C25.2162 22.191 25.1204 22.1448 25.0169 22.1048Z" fill="white"/>
<path d="M17.9307 35.1724H11.0342V36.7862C11.0376 37.1572 11.106 37.5249 11.2362 37.8724L17.9307 36.4386V35.1724Z" fill="white"/>
<path d="M15.8617 6.20686C16.6235 6.20686 17.241 5.58932 17.241 4.82755C17.241 4.06578 16.6235 3.44824 15.8617 3.44824C15.1 3.44824 14.4824 4.06578 14.4824 4.82755C14.4824 5.58932 15.1 6.20686 15.8617 6.20686Z" fill="white"/>
<path d="M38.6748 15.8622H40.0003V14.4829H38.25C38.4141 14.9381 38.5521 15.3981 38.6748 15.8622Z" fill="white"/>
<path d="M39.3103 20.6897C39.3103 20.7518 39.3035 20.8118 39.3028 20.8732C39.7603 19.7989 39.9974 18.6436 40 17.4759V17.2415H38.9883C39.202 18.3784 39.3099 19.5328 39.3103 20.6897Z" fill="white"/>
<path d="M36.6051 14.0579C35.3018 10.9118 33.0932 8.22365 30.2597 6.3347C27.4261 4.44576 24.0953 3.44112 20.6899 3.44828C19.8999 3.45036 19.1109 3.50635 18.3285 3.61587C18.5183 3.99177 18.6184 4.40652 18.6209 4.82759C18.6209 5.55922 18.3303 6.26089 17.813 6.77823C17.2956 7.29557 16.5939 7.58621 15.8623 7.58621C15.1307 7.58621 14.429 7.29557 13.9117 6.77823C13.3943 6.26089 13.1037 5.55922 13.1037 4.82759C13.1066 4.59446 13.1395 4.36267 13.2016 4.13794H10.6299C11.8948 5.07377 12.8048 6.41099 13.2113 7.93104L15.1478 14.9883C15.1768 15.0933 15.1804 15.2037 15.1585 15.3103C15.1365 15.417 15.0896 15.517 15.0216 15.6021C13.7056 17.3524 12.0764 18.8436 10.2168 20H10.3451C11.3299 20 12.3034 19.7895 13.2002 19.3826C14.097 18.9757 14.8965 18.3818 15.5451 17.6407L16.2292 16.8586C16.7336 16.2821 17.091 15.5922 17.2712 14.8476C17.4513 14.1031 17.4487 13.3261 17.2637 12.5828L18.6016 12.249C18.8408 13.2079 18.8445 14.2104 18.6125 15.1711C18.3805 16.1318 17.9196 17.0221 17.2692 17.7662L16.5837 18.5517C16.091 19.1077 15.5257 19.5949 14.903 20H17.2416C18.6683 20.0009 20.0517 19.5102 21.159 18.6107C22.2663 17.7112 23.0299 16.4576 23.3214 15.0611C23.6128 13.6645 23.4143 12.2102 22.7591 10.9429C22.104 9.67552 21.0323 8.67256 19.7244 8.10276L20.2761 6.83863C21.5146 7.37854 22.5862 8.23958 23.3802 9.33266C24.1742 10.4257 24.6617 11.7111 24.7922 13.0558C24.9228 14.4005 24.6916 15.7557 24.1226 16.9811C23.5537 18.2064 22.6676 19.2575 21.5561 20.0255C21.7513 20.0345 21.9485 20.0359 22.1409 20.0504C22.2954 20.0669 22.4237 20.0869 22.5547 20.1076L22.752 20.1379L22.783 20.1421H22.7996L22.9465 20.16C23.0651 20.1738 23.1851 20.1876 23.3051 20.209C23.5809 20.2614 23.852 20.3269 24.1127 20.3917C24.212 20.4179 24.2961 20.4359 24.3851 20.4538C24.7465 20.5524 25.0582 20.6607 25.3637 20.7697L25.4485 20.7945L25.5175 20.8179C25.8375 20.9435 26.1568 21.0759 26.4644 21.2207C26.4992 21.2328 26.533 21.2473 26.5658 21.2641C27.5722 21.7414 28.513 22.3461 29.3651 23.0635L29.3982 23.0952L29.4085 23.1028L29.4623 23.1566L30.5989 24.2462C31.009 24.6847 31.3868 25.1523 31.7292 25.6455L31.7492 25.6759C31.7699 25.7069 31.7885 25.7414 31.8092 25.7724C31.9871 26.0352 32.154 26.3041 32.3285 26.6048L32.3665 26.6669C32.374 26.68 32.3837 26.691 32.3906 26.7048C32.5451 26.9807 32.6982 27.2917 32.843 27.6014C32.8809 27.6703 32.9016 27.7131 32.9196 27.7559C33.0478 28.04 33.1658 28.3476 33.2747 28.6524L33.3478 28.8338C33.4582 29.1786 33.5444 29.4697 33.6237 29.7703L33.6485 29.8593C33.6582 29.8931 33.6671 29.9283 33.6761 29.9655C33.683 29.989 33.6906 30.0117 33.6961 30.0345C33.7154 30.1152 33.7251 30.1979 33.743 30.2793C33.8161 30.6062 33.8851 30.9283 33.9292 31.24L33.9865 31.6483C35.9159 29.3243 37.192 26.5286 37.6837 23.5483C37.8498 22.6045 37.9327 21.6479 37.9313 20.6897C37.9345 18.4427 37.4976 16.2169 36.6451 14.1379C36.63 14.1122 36.6166 14.0855 36.6051 14.0579ZM27.1727 6.51173C29.4106 7.47757 31.3422 9.03644 32.7589 11.02L32.9754 11.3235L31.8527 12.1248L31.6361 11.8214C30.3641 10.0419 28.6299 8.64394 26.6209 7.77863L27.1727 6.51173ZM25.3196 7.30345C24.68 7.11141 24.0255 6.973 23.363 6.88966L23.534 5.52138C24.2726 5.61399 25.0022 5.76762 25.7154 5.98069L25.3196 7.30345ZM35.4809 18.5517L34.8602 18.8628C33.8825 19.3534 32.8038 19.6094 31.7099 19.6103C30.6842 19.6182 29.6705 19.3891 28.7478 18.9409C27.8251 18.4926 27.0184 17.8374 26.3906 17.0262L26.3416 16.9621L27.4561 16.1483C28.1937 17.0927 29.2233 17.7664 30.3841 18.0639C31.545 18.3615 32.7717 18.2663 33.8727 17.7931L28.5423 13.6483L29.3892 12.5586L35.5961 17.3862C35.6883 17.4577 35.7608 17.5515 35.8069 17.6587C35.853 17.7658 35.8711 17.883 35.8596 17.9991C35.8481 18.1152 35.8073 18.2264 35.7411 18.3225C35.6749 18.4186 35.5854 18.4962 35.4809 18.5483V18.5517Z" fill="white"/>
<path d="M36.999 11.7241C37.2439 12.1724 37.4735 12.631 37.6839 13.1034H39.9997V11.7241H36.999Z" fill="white"/>
<path d="M31.6806 38.1675C32.5766 37.1781 33.081 35.8959 33.0992 34.5613C32.6049 35.0052 32.0874 35.4226 31.5488 35.8116C31.7324 36.5828 31.777 37.3806 31.6806 38.1675Z" fill="white"/>
<path d="M36.1631 10.3446H39.968C39.9261 9.87803 39.8411 9.41629 39.7142 8.96533H35.1562C35.5128 9.40671 35.8459 9.86878 36.1631 10.3446Z" fill="white"/>
<path d="M26.207 39.3102C26.207 39.4932 26.2797 39.6686 26.409 39.7979C26.5384 39.9272 26.7138 39.9999 26.8967 39.9999H27.0898C27.3144 39.348 27.4778 38.6766 27.5781 37.9944C27.127 38.1737 26.6712 38.3392 26.207 38.484V39.3102Z" fill="white"/>
<path d="M29.0147 37.3502C28.9801 38.2182 28.831 39.0778 28.5713 39.9068C29.0955 39.8118 29.6029 39.6405 30.0775 39.3985C30.308 38.4983 30.3847 37.5656 30.3044 36.6399C29.8837 36.8964 29.4527 37.1302 29.0147 37.3502Z" fill="white"/>
<path d="M33.9252 7.58634H39.1728C38.9209 7.09456 38.6156 6.632 38.2625 6.20703H32.4004C32.9338 6.63823 33.4429 7.09871 33.9252 7.58634Z" fill="white"/>
<path d="M1.37931 9.65517V0H0V9.65517C0.00109547 10.7523 0.437407 11.8041 1.21318 12.5799C1.98896 13.3557 3.04082 13.792 4.13793 13.7931V12.4138C3.4063 12.4138 2.70463 12.1232 2.18729 11.6058C1.66995 11.0885 1.37931 10.3868 1.37931 9.65517Z" fill="white"/>
</g>
<defs>
<clipPath id="clip0_1_10174">
<rect width="40" height="40" fill="white"/>
</clipPath>
</defs>
</svg>
