<svg width="24" height="22" viewBox="0 0 24 22" fill="none" xmlns="http://www.w3.org/2000/svg">
<path d="M17.5901 9.98619C17.6219 10.2481 17.6361 10.5101 17.6361 10.7756C17.6361 14.5633 14.5669 17.6325 10.7791 17.6325C6.99139 17.6325 3.92222 14.5634 3.92222 10.7756C3.92222 6.98787 6.99139 3.91871 10.7791 3.91871C10.8252 3.91871 10.8783 3.91871 10.9243 3.91871C12.4146 2.6514 14.2695 1.80181 16.305 1.5611C14.6767 0.56991 12.7686 0 10.7261 0C4.80018 0 0 4.80018 0 10.7261C0 16.6519 4.80018 21.4521 10.7261 21.4521C16.652 21.4521 21.4592 16.6519 21.4592 10.7261C21.4592 9.70655 21.314 8.72245 21.0556 7.7879L17.5901 9.98619Z" fill="#37AFE3"/>
<path d="M23.6575 3.97884L18.0609 0.424684C17.6042 0.137971 17.2326 0.339725 17.2326 0.881361V2.15575C12.5739 2.18055 8.80746 5.96474 8.80746 10.6268C8.80746 11.4445 8.92426 12.234 9.14022 12.9774C10.1526 9.45508 13.3917 6.878 17.2326 6.85676V8.13114C17.2326 8.67278 17.6042 8.87453 18.0609 8.58782L23.6575 5.0337C24.1142 4.73639 24.1142 4.26556 23.6575 3.97884Z" fill="#37AFE3"/>
</svg>
