<svg width="70" height="70" viewBox="0 0 70 70" fill="none" xmlns="http://www.w3.org/2000/svg">
<path d="M23.5115 37.8134L22.6275 36.9839C22.3965 36.7666 22.1216 36.5942 21.8189 36.4766C21.516 36.3589 21.1913 36.2983 20.8633 36.2983C20.5353 36.2983 20.2105 36.3589 19.9078 36.4766C19.605 36.5942 19.3302 36.7666 19.099 36.9839L13.799 41.9504C13.3293 42.392 13.0657 42.9889 13.0657 43.6111C13.0657 44.2333 13.3293 44.8302 13.799 45.2719L14.6817 46.099C14.9126 46.3162 15.1873 46.4886 15.4901 46.6062C15.7927 46.7238 16.1174 46.7845 16.4452 46.7845C16.7732 46.7845 17.0979 46.7238 17.4005 46.6062C17.7031 46.4886 17.9779 46.3162 18.2089 46.099L23.5102 41.1325C23.9797 40.6913 24.2431 40.0949 24.2433 39.4732C24.2436 38.8515 23.9805 38.2548 23.5115 37.8134Z" fill="white"/>
<path d="M27.0508 57.691C27.5244 58.1148 28.1555 58.3516 28.8119 58.3516C29.4682 58.3516 30.0992 58.1148 30.5729 57.691V57.6852L35.8743 52.7245L35.8819 52.7187C36.35 52.2777 36.6128 51.6821 36.6128 51.0614C36.6128 50.4406 36.35 49.845 35.8819 49.4042L34.999 48.5747C34.5247 48.1495 33.8926 47.9121 33.2348 47.9121C32.5772 47.9121 31.9449 48.1495 31.4707 48.5747L26.1705 53.5412C25.7004 53.982 25.4365 54.5787 25.4365 55.2007C25.4365 55.8227 25.7004 56.4193 26.1705 56.8603L27.0508 57.691Z" fill="white"/>
<path d="M33.2391 63.4835C33.4701 63.7003 33.7447 63.8724 34.0472 63.9898C34.3496 64.1072 34.6739 64.1676 35.0015 64.1676C35.3291 64.1676 35.6534 64.1072 35.956 63.9898C36.2584 63.8724 36.533 63.7003 36.7639 63.4835L42.0615 58.5182C42.5312 58.0774 42.7947 57.4812 42.7947 56.8598C42.7947 56.2383 42.5312 55.642 42.0615 55.2013L41.1862 54.366C40.7167 53.93 40.0807 53.6858 39.4183 53.687C39.0931 53.6867 38.7711 53.7462 38.4707 53.8624C38.1703 53.9784 37.8975 54.1488 37.6678 54.3637L32.3678 59.329C31.8995 59.7699 31.6367 60.3655 31.6367 60.9863C31.6367 61.6069 31.8995 62.2025 32.3678 62.6435L33.2391 63.4835Z" fill="white"/>
<path d="M22.6302 52.5811C22.9585 52.5819 23.2838 52.5216 23.5869 52.4037C23.89 52.286 24.1648 52.1131 24.3956 51.8951L29.6958 46.9297C30.1655 46.4882 30.4289 45.8912 30.4289 45.269C30.4289 44.6469 30.1655 44.0499 29.6958 43.6082L28.813 42.7787C28.5816 42.562 28.3066 42.3899 28.0037 42.2725C27.7009 42.1552 27.3762 42.0947 27.0481 42.0947C26.7202 42.0947 26.3955 42.1552 26.0926 42.2725C25.7898 42.3899 25.5148 42.562 25.2833 42.7787L19.9831 47.7464C19.5136 48.1881 19.25 48.7851 19.25 49.4072C19.25 50.0293 19.5136 50.6263 19.9831 51.0679L20.8671 51.8951C21.0977 52.1128 21.3722 52.2856 21.6748 52.4034C21.9774 52.5211 22.3022 52.5815 22.6302 52.5811Z" fill="white"/>
<path d="M42.0707 28.7145L56.2069 41.9608C56.6808 42.3864 57.3129 42.6241 57.9705 42.6241C58.6282 42.6241 59.2603 42.3864 59.734 41.9608L60.618 41.1325C61.0878 40.6914 61.3515 40.0948 61.3515 39.4729C61.3515 38.8511 61.0878 38.2545 60.618 37.8133L41.1804 19.6017C40.9444 19.3884 40.6287 19.2692 40.3002 19.2692C39.9716 19.2692 39.6559 19.3884 39.4199 19.6017L29.7024 28.7017C29.0071 29.3535 28.1806 29.8708 27.2704 30.2238C26.3601 30.5767 25.3842 30.7585 24.3985 30.7585C23.4128 30.7585 22.4369 30.5767 21.5266 30.2238C20.6164 29.8708 19.7899 29.3535 19.0946 28.7017C18.3932 28.0425 17.9996 27.1514 17.9996 26.2225C17.9996 25.2936 18.3932 24.4025 19.0946 23.7433L33.192 10.5378C29.3935 7.37744 24.4405 5.69673 19.3536 5.84193C14.2666 5.98714 9.43308 7.9472 5.84862 11.3183C2.10219 14.8424 0 19.6049 0 24.5688C0 29.5325 2.10219 34.2951 5.84862 37.8192L10.7537 42.4158C10.9697 41.6188 11.409 40.8895 12.0265 40.303L17.3266 35.3365C17.7903 34.9016 18.3414 34.5565 18.9484 34.3209C19.5554 34.0854 20.2064 33.9642 20.8639 33.9642C21.5213 33.9642 22.1722 34.0854 22.7792 34.3209C23.3863 34.5565 23.9374 34.9016 24.401 35.3365L25.2838 36.166C25.7913 36.6449 26.1814 37.2209 26.4271 37.8542C26.6727 38.4874 26.7681 39.1629 26.7066 39.834C27.4143 39.7812 28.126 39.8695 28.7944 40.0932C29.4627 40.3169 30.0722 40.6707 30.5827 41.1313L31.4666 41.9608C31.9683 42.4347 32.3551 43.0036 32.601 43.6289C32.8469 44.2543 32.9461 44.9215 32.892 45.5857C33.0058 45.5787 33.1158 45.5553 33.2309 45.5553C33.8884 45.5541 34.5398 45.6747 35.1469 45.9102C35.7541 46.1458 36.3052 46.4915 36.768 46.9273L37.6508 47.7568C38.1585 48.2359 38.5487 48.812 38.7944 49.4455C39.0401 50.079 39.1353 50.7547 39.0737 51.426C39.781 51.3741 40.4921 51.4625 41.1602 51.6855C41.8283 51.9084 42.4381 52.261 42.9497 52.7198L43.8074 53.5365C43.8149 53.5423 43.8249 53.5447 43.8311 53.5505C44.0622 53.7677 44.3371 53.9402 44.6398 54.0578C44.9426 54.1754 45.2674 54.236 45.5953 54.236C45.9234 54.236 46.2481 54.1754 46.5508 54.0578C46.8537 53.9402 47.1286 53.7677 47.3596 53.5505L48.2435 52.721C48.7123 52.2799 48.9753 51.6838 48.9753 51.0626C48.9753 50.4413 48.7123 49.8453 48.2435 49.4042L34.1136 36.1567C33.9976 36.0481 33.9058 35.9191 33.8433 35.7774C33.7807 35.6356 33.7486 35.4839 33.749 35.3306C33.7493 35.1773 33.7821 35.0255 33.8452 34.884C33.9085 34.7426 34.0009 34.614 34.1173 34.5058C34.2337 34.3977 34.3719 34.3119 34.5238 34.2536C34.6757 34.1953 34.8384 34.1654 35.0027 34.1656C35.3345 34.1663 35.6524 34.29 35.8866 34.5093L50.0228 47.7568C50.4971 48.1816 51.1289 48.4188 51.7864 48.4188C52.4438 48.4188 53.0756 48.1816 53.5499 47.7568L54.4327 46.9285C54.9023 46.487 55.1657 45.8903 55.1657 45.2683C55.1657 44.6464 54.9023 44.0496 54.4327 43.6082L40.2977 30.3618C40.0636 30.1425 39.9324 29.8452 39.9331 29.5357C39.9338 29.2261 40.0664 28.9294 40.3015 28.711C40.5365 28.4926 40.855 28.3702 41.1868 28.3708C41.5186 28.3715 41.8366 28.4952 42.0707 28.7145Z" fill="white"/>
<path d="M63.6644 38.2778L64.1508 37.8216C67.8971 34.2978 69.9993 29.5353 69.9993 24.5718C69.9993 19.6083 67.8971 14.8457 64.1508 11.322C62.2993 9.58422 60.0979 8.20515 57.6731 7.26411C55.2484 6.32307 52.6482 5.83862 50.0221 5.83862C47.396 5.83862 44.7957 6.32307 42.371 7.26411C39.9463 8.20515 37.7448 9.58422 35.8933 11.322L20.8706 25.3954C20.6353 25.6166 20.5032 25.9156 20.5032 26.2273C20.5032 26.539 20.6353 26.838 20.8706 27.0591C21.8201 27.9102 23.0857 28.3855 24.4022 28.3855C25.7188 28.3855 26.9843 27.9102 27.9337 27.0591L37.6513 17.9591C38.3649 17.3202 39.3156 16.9636 40.3045 16.9636C41.2935 16.9636 42.2441 17.3202 42.9577 17.9591L62.3903 36.1684C63.0081 36.7537 63.4478 37.4818 63.6644 38.2778Z" fill="white"/>
</svg>
