<svg width="70" height="70" viewBox="0 0 70 70" fill="none" xmlns="http://www.w3.org/2000/svg">
<g clip-path="url(#clip0_30_745)">
<mask id="mask0_30_745" style="mask-type:luminance" maskUnits="userSpaceOnUse" x="0" y="0" width="70" height="70">
<path d="M70 0H0V70H70V0Z" fill="white"/>
</mask>
<g mask="url(#mask0_30_745)">
<path d="M19.3985 36.9688H12.5394C12.5202 36.9688 12.5011 36.9769 12.4848 36.992C12.4697 37.007 12.4573 37.0275 12.4573 37.0508V43.91C12.4573 43.9291 12.4683 43.9482 12.4848 43.9647C12.4998 43.9797 12.5202 43.992 12.5394 43.992H19.3985C19.4219 43.992 19.441 43.981 19.4573 43.9647C19.4724 43.9496 19.4807 43.9291 19.4807 43.91V37.0508C19.4807 37.0275 19.4724 37.0084 19.4573 36.992C19.441 36.9769 19.4219 36.9688 19.3985 36.9688Z" fill="white"/>
<path d="M19.3985 22.3042H12.5394C12.5202 22.3042 12.5011 22.3166 12.4848 22.3274C12.4697 22.3425 12.4573 22.3658 12.4573 22.3862V29.2454C12.4573 29.2687 12.4683 29.2879 12.4848 29.3042C12.4998 29.3192 12.5202 29.3274 12.5394 29.3274H19.3985C19.4219 29.3274 19.441 29.3192 19.4573 29.3042C19.4724 29.2891 19.4807 29.27 19.4807 29.2454V22.3862C19.4807 22.3671 19.4724 22.3439 19.4573 22.3274C19.441 22.3152 19.4219 22.3042 19.3985 22.3042Z" fill="white"/>
<path d="M19.3985 7.63843H12.5394C12.5202 7.63843 12.5011 7.64937 12.4848 7.66577C12.4697 7.68081 12.4573 7.70132 12.4573 7.72046V14.5797C12.4573 14.6029 12.4683 14.622 12.4848 14.6384C12.4998 14.6534 12.5202 14.6617 12.5394 14.6617H19.3985C19.4219 14.6617 19.441 14.6534 19.4573 14.6384C19.4724 14.6234 19.4807 14.6029 19.4807 14.5797V7.72046C19.4807 7.70132 19.4724 7.68218 19.4573 7.66577C19.441 7.65074 19.4219 7.63843 19.3985 7.63843Z" fill="white"/>
<path d="M43.9277 48.7471C46.4202 46.2547 49.8613 44.7125 53.6662 44.7125C54.4879 44.7125 55.2945 44.7863 56.0765 44.9258V5.02714C56.0765 3.64356 55.5147 2.38848 54.6041 1.47656C53.6936 0.566015 52.4344 0 51.0508 0H9.84648C8.46289 0 7.20371 0.566015 6.2918 1.47656C5.38125 2.3871 4.81934 3.64356 4.81934 5.02714V61.2677C4.81934 62.6514 5.38125 63.9065 6.2918 64.8184C7.20235 65.7289 8.46152 66.2949 9.84511 66.2949H42.3172C40.786 64.0746 39.8918 61.3839 39.8918 58.4856C39.8931 54.6834 41.4353 51.2381 43.9277 48.7471ZM27.5721 6.6582H47.9883C48.6117 6.6582 49.1162 7.16269 49.1162 7.78613C49.1162 8.40957 48.6117 8.91816 47.9883 8.91816H27.5721C26.9486 8.91816 26.4401 8.41093 26.4401 7.78613C26.4401 7.16133 26.9486 6.6582 27.5721 6.6582ZM27.5721 13.3861H47.9883C48.6117 13.3861 49.1162 13.8934 49.1162 14.5181C49.1162 15.1389 48.6117 15.646 47.9883 15.646H27.5721C26.9486 15.646 26.4401 15.1389 26.4401 14.5181C26.4415 13.8948 26.9486 13.3861 27.5721 13.3861ZM27.5721 21.324H47.9883C48.6117 21.324 49.1162 21.8286 49.1162 22.4519C49.1162 23.0754 48.6117 23.5798 47.9883 23.5798H27.5721C26.9486 23.5798 26.4401 23.0754 26.4401 22.4519C26.4415 21.8272 26.9486 21.324 27.5721 21.324ZM27.5721 28.0519H47.9883C48.6117 28.0519 49.1162 28.5565 49.1162 29.1798C49.1162 29.8033 48.6117 30.3119 47.9883 30.3119H27.5721C26.9486 30.3119 26.4401 29.8047 26.4401 29.1798C26.4415 28.5551 26.9486 28.0519 27.5721 28.0519ZM27.5721 35.9844H47.9883C48.6117 35.9844 49.1162 36.4916 49.1162 37.1164C49.1162 37.7398 48.6117 38.2444 47.9883 38.2444H27.5721C26.9486 38.2444 26.4401 37.7398 26.4401 37.1164C26.4415 36.4916 26.9486 35.9844 27.5721 35.9844ZM27.5721 42.7165H43.806C44.4295 42.7165 44.9339 43.2195 44.9339 43.8444C44.9339 44.4691 44.4295 44.9723 43.806 44.9723H27.5721C26.9486 44.9723 26.4401 44.4677 26.4401 43.8444C26.4401 43.2209 26.9486 42.7165 27.5721 42.7165ZM21.7397 58.5703C21.7397 59.217 21.4758 59.8022 21.0533 60.2246C20.6309 60.6471 20.0457 60.911 19.399 60.911H12.5398C11.8959 60.911 11.3107 60.6471 10.8883 60.2246C10.4617 59.8022 10.202 59.217 10.202 58.5703V51.7111C10.202 51.0672 10.4617 50.482 10.8883 50.0596C11.3107 49.6371 11.8959 49.3732 12.5398 49.3732H19.399C20.0457 49.3732 20.6309 49.6371 21.0533 50.0596C21.4758 50.482 21.7397 51.0672 21.7397 51.7111V58.5703ZM21.7397 43.9099C21.7397 44.5539 21.4758 45.139 21.0533 45.5615C20.6309 45.9881 20.0457 46.2478 19.399 46.2478H12.5398C11.8959 46.2478 11.3107 45.9881 10.8883 45.5615C10.4617 45.139 10.202 44.5539 10.202 43.9099V37.0508C10.202 36.4041 10.4617 35.819 10.8883 35.3964C11.3107 34.974 11.8959 34.7102 12.5398 34.7102H19.399C20.0457 34.7102 20.6309 34.974 21.0533 35.3964C21.4758 35.819 21.7397 36.4041 21.7397 37.0508V43.9099ZM21.7397 29.2455C21.7397 29.8894 21.4758 30.4746 21.0533 30.8997C20.6309 31.3223 20.0457 31.5861 19.399 31.5861H12.5398C11.8959 31.5861 11.3107 31.3223 10.8883 30.8997C10.4617 30.4732 10.202 29.8881 10.202 29.2455V22.3863C10.202 21.7423 10.4617 21.1573 10.8883 20.7348C11.3107 20.3082 11.8959 20.0444 12.5398 20.0444H19.399C20.0457 20.0444 20.6309 20.3082 21.0533 20.7348C21.4758 21.1573 21.7397 21.7423 21.7397 22.3863V29.2455ZM21.7397 14.5797C21.7397 15.2264 21.4758 15.8115 21.0533 16.2339C20.6309 16.6565 20.0457 16.9203 19.399 16.9203H12.5398C11.8959 16.9203 11.3107 16.6565 10.8883 16.2339C10.4617 15.8115 10.202 15.2264 10.202 14.5797V7.72051C10.202 7.07657 10.4617 6.4914 10.8883 6.06894C11.3107 5.64648 11.8959 5.38261 12.5398 5.38261H19.399C20.0457 5.38261 20.6309 5.64648 21.0533 6.06894C21.4758 6.4914 21.7397 7.07657 21.7397 7.72051V14.5797ZM36.0131 59.6367H27.5721C26.9486 59.6367 26.4401 59.1295 26.4401 58.5088C26.4401 57.8853 26.9473 57.3768 27.5721 57.3768H36.0131C36.6365 57.3768 37.1451 57.8839 37.1451 58.5088C37.1451 59.1295 36.6379 59.6367 36.0131 59.6367ZM37.3352 52.9088H27.5735C26.95 52.9088 26.4415 52.4015 26.4415 51.7768C26.4415 51.1533 26.9486 50.6488 27.5735 50.6488H37.3352C37.9585 50.6488 38.4631 51.1533 38.4631 51.7768C38.4631 52.4015 37.9585 52.9088 37.3352 52.9088Z" fill="white"/>
<path d="M19.3985 51.6304H12.5394C12.5202 51.6304 12.5011 51.6413 12.4848 51.6578C12.4697 51.6728 12.4573 51.6933 12.4573 51.7124V58.5716C12.4573 58.5949 12.4683 58.614 12.4848 58.6291C12.4998 58.6441 12.5202 58.6523 12.5394 58.6523H19.3985C19.4219 58.6523 19.441 58.6441 19.4573 58.6291C19.4724 58.614 19.4807 58.5949 19.4807 58.5716V51.7124C19.4807 51.6933 19.4724 51.6741 19.4573 51.6578C19.441 51.6413 19.4219 51.6304 19.3985 51.6304Z" fill="white"/>
<path d="M61.8101 50.3426C59.7252 48.2618 56.8458 46.9712 53.6671 46.9712C50.4856 46.9712 47.6091 48.2618 45.5241 50.3426C43.4392 52.4276 42.1527 55.3069 42.1527 58.4856C42.1527 61.6671 43.4392 64.5436 45.5241 66.6286C47.6091 68.7135 50.4843 70 53.6671 70C56.8444 70 59.7252 68.7135 61.8101 66.6286C63.891 64.5436 65.1815 61.6684 65.1815 58.4856C65.1815 55.3083 63.891 52.4276 61.8101 50.3426ZM61.2864 55.4355L53.5933 63.1327C53.1517 63.5743 52.434 63.5743 51.9965 63.1327L46.0437 57.1841C45.6062 56.7425 45.6062 56.0246 46.0437 55.5871C46.4852 55.1456 47.2031 55.1456 47.6406 55.5871L52.7948 60.7374L59.6896 53.8385C60.1312 53.401 60.8448 53.401 61.2864 53.8385C61.7281 54.2801 61.7281 54.998 61.2864 55.4355Z" fill="white"/>
</g>
</g>
<defs>
<clipPath id="clip0_30_745">
<rect width="70" height="70" fill="white"/>
</clipPath>
</defs>
</svg>
