<svg width="60" height="60" viewBox="0 0 60 60" fill="none" xmlns="http://www.w3.org/2000/svg">
<g clip-path="url(#clip0_1_2558)">
<path d="M16.6273 31.6875H10.748C10.7316 31.6875 10.7152 31.6945 10.7012 31.7074C10.6883 31.7203 10.6777 31.7379 10.6777 31.7578V37.6371C10.6777 37.6535 10.6871 37.6699 10.7012 37.684C10.7141 37.6969 10.7316 37.7074 10.748 37.7074H16.6273C16.6473 37.7074 16.6637 37.698 16.6777 37.684C16.6906 37.6711 16.6977 37.6535 16.6977 37.6371V31.7578C16.6977 31.7379 16.6906 31.7215 16.6777 31.7074C16.6637 31.6945 16.6473 31.6875 16.6273 31.6875Z" fill="#0F6BAC"/>
<path d="M16.6273 19.1179H10.748C10.7316 19.1179 10.7152 19.1285 10.7012 19.1378C10.6883 19.1507 10.6777 19.1707 10.6777 19.1882V25.0675C10.6777 25.0875 10.6871 25.1039 10.7012 25.1179C10.7141 25.1308 10.7316 25.1378 10.748 25.1378H16.6273C16.6473 25.1378 16.6637 25.1308 16.6777 25.1179C16.6906 25.105 16.6977 25.0886 16.6977 25.0675V19.1882C16.6977 19.1718 16.6906 19.1519 16.6777 19.1378C16.6637 19.1273 16.6473 19.1179 16.6273 19.1179Z" fill="#0F6BAC"/>
<path d="M16.6273 6.54724H10.748C10.7316 6.54724 10.7152 6.55662 10.7012 6.57068C10.6883 6.58357 10.6777 6.60115 10.6777 6.61755V12.4969C10.6777 12.5168 10.6871 12.5332 10.7012 12.5472C10.7141 12.5601 10.7316 12.5672 10.748 12.5672H16.6273C16.6473 12.5672 16.6637 12.5601 16.6777 12.5472C16.6906 12.5344 16.6977 12.5168 16.6977 12.4969V6.61755C16.6977 6.60115 16.6906 6.58474 16.6777 6.57068C16.6637 6.55779 16.6473 6.54724 16.6273 6.54724Z" fill="#0F6BAC"/>
<path d="M37.6523 41.7832C39.7887 39.6469 42.7383 38.325 45.9996 38.325C46.7039 38.325 47.3953 38.3883 48.0656 38.5078V4.30898C48.0656 3.12305 47.584 2.04727 46.8035 1.26562C46.0231 0.485156 44.9438 0 43.7578 0H8.43984C7.25391 0 6.17461 0.485156 5.39297 1.26562C4.6125 2.04609 4.13086 3.12305 4.13086 4.30898V52.5152C4.13086 53.7012 4.6125 54.777 5.39297 55.5586C6.17344 56.3391 7.25273 56.8242 8.43867 56.8242H36.2719C34.9594 54.9211 34.193 52.6148 34.193 50.1305C34.1941 46.8715 35.516 43.9184 37.6523 41.7832ZM23.6332 5.70703H41.1328C41.6672 5.70703 42.0996 6.13945 42.0996 6.67383C42.0996 7.2082 41.6672 7.64414 41.1328 7.64414H23.6332C23.0988 7.64414 22.6629 7.20937 22.6629 6.67383C22.6629 6.13828 23.0988 5.70703 23.6332 5.70703ZM23.6332 11.4738H41.1328C41.6672 11.4738 42.0996 11.9086 42.0996 12.4441C42.0996 12.9762 41.6672 13.4109 41.1328 13.4109H23.6332C23.0988 13.4109 22.6629 12.9762 22.6629 12.4441C22.6641 11.9098 23.0988 11.4738 23.6332 11.4738ZM23.6332 18.2777H41.1328C41.6672 18.2777 42.0996 18.7102 42.0996 19.2445C42.0996 19.7789 41.6672 20.2113 41.1328 20.2113H23.6332C23.0988 20.2113 22.6629 19.7789 22.6629 19.2445C22.6641 18.709 23.0988 18.2777 23.6332 18.2777ZM23.6332 24.0445H41.1328C41.6672 24.0445 42.0996 24.477 42.0996 25.0113C42.0996 25.5457 41.6672 25.9816 41.1328 25.9816H23.6332C23.0988 25.9816 22.6629 25.5469 22.6629 25.0113C22.6641 24.4758 23.0988 24.0445 23.6332 24.0445ZM23.6332 30.8438H41.1328C41.6672 30.8438 42.0996 31.2785 42.0996 31.8141C42.0996 32.3484 41.6672 32.7809 41.1328 32.7809H23.6332C23.0988 32.7809 22.6629 32.3484 22.6629 31.8141C22.6641 31.2785 23.0988 30.8438 23.6332 30.8438ZM23.6332 36.6141H37.548C38.0824 36.6141 38.5148 37.0453 38.5148 37.5809C38.5148 38.1164 38.0824 38.5477 37.548 38.5477H23.6332C23.0988 38.5477 22.6629 38.1152 22.6629 37.5809C22.6629 37.0465 23.0988 36.6141 23.6332 36.6141ZM18.634 50.2031C18.634 50.7574 18.4078 51.259 18.0457 51.6211C17.6836 51.9832 17.182 52.2094 16.6277 52.2094H10.7484C10.1965 52.2094 9.69492 51.9832 9.33281 51.6211C8.96719 51.259 8.74453 50.7574 8.74453 50.2031V44.3238C8.74453 43.7719 8.96719 43.2703 9.33281 42.9082C9.69492 42.5461 10.1965 42.3199 10.7484 42.3199H16.6277C17.182 42.3199 17.6836 42.5461 18.0457 42.9082C18.4078 43.2703 18.634 43.7719 18.634 44.3238V50.2031ZM18.634 37.6371C18.634 38.1891 18.4078 38.6906 18.0457 39.0527C17.6836 39.4184 17.182 39.641 16.6277 39.641H10.7484C10.1965 39.641 9.69492 39.4184 9.33281 39.0527C8.96719 38.6906 8.74453 38.1891 8.74453 37.6371V31.7578C8.74453 31.2035 8.96719 30.702 9.33281 30.3398C9.69492 29.9777 10.1965 29.7516 10.7484 29.7516H16.6277C17.182 29.7516 17.6836 29.9777 18.0457 30.3398C18.4078 30.702 18.634 31.2035 18.634 31.7578V37.6371ZM18.634 25.0676C18.634 25.6195 18.4078 26.1211 18.0457 26.4855C17.6836 26.8477 17.182 27.0738 16.6277 27.0738H10.7484C10.1965 27.0738 9.69492 26.8477 9.33281 26.4855C8.96719 26.1199 8.74453 25.6184 8.74453 25.0676V19.1883C8.74453 18.6363 8.96719 18.1348 9.33281 17.7727C9.69492 17.407 10.1965 17.1809 10.7484 17.1809H16.6277C17.182 17.1809 17.6836 17.407 18.0457 17.7727C18.4078 18.1348 18.634 18.6363 18.634 19.1883V25.0676ZM18.634 12.4969C18.634 13.0512 18.4078 13.5527 18.0457 13.9148C17.6836 14.277 17.182 14.5031 16.6277 14.5031H10.7484C10.1965 14.5031 9.69492 14.277 9.33281 13.9148C8.96719 13.5527 8.74453 13.0512 8.74453 12.4969V6.61758C8.74453 6.06563 8.96719 5.56406 9.33281 5.20195C9.69492 4.83984 10.1965 4.61367 10.7484 4.61367H16.6277C17.182 4.61367 17.6836 4.83984 18.0457 5.20195C18.4078 5.56406 18.634 6.06563 18.634 6.61758V12.4969ZM30.8684 51.1172H23.6332C23.0988 51.1172 22.6629 50.6824 22.6629 50.1504C22.6629 49.616 23.0977 49.1801 23.6332 49.1801H30.8684C31.4027 49.1801 31.8387 49.6148 31.8387 50.1504C31.8387 50.6824 31.4039 51.1172 30.8684 51.1172ZM32.0016 45.3504H23.6344C23.1 45.3504 22.6641 44.9156 22.6641 44.3801C22.6641 43.8457 23.0988 43.4133 23.6344 43.4133H32.0016C32.5359 43.4133 32.9684 43.8457 32.9684 44.3801C32.9684 44.9156 32.5359 45.3504 32.0016 45.3504Z" fill="#0F6BAC"/>
<path d="M16.6273 44.2546H10.748C10.7316 44.2546 10.7152 44.264 10.7012 44.2781C10.6883 44.291 10.6777 44.3085 10.6777 44.3249V50.2042C10.6777 50.2242 10.6871 50.2406 10.7012 50.2535C10.7141 50.2664 10.7316 50.2734 10.748 50.2734H16.6273C16.6473 50.2734 16.6637 50.2664 16.6777 50.2535C16.6906 50.2406 16.6977 50.2242 16.6977 50.2042V44.3249C16.6977 44.3085 16.6906 44.2921 16.6777 44.2781C16.6637 44.264 16.6473 44.2546 16.6273 44.2546Z" fill="#0F6BAC"/>
<path d="M52.9801 43.1508C51.193 41.3672 48.725 40.261 46.0004 40.261C43.2734 40.261 40.8078 41.3672 39.0207 43.1508C37.2336 44.9379 36.1309 47.4059 36.1309 50.1305C36.1309 52.8575 37.2336 55.3231 39.0207 57.1102C40.8078 58.8973 43.2723 60 46.0004 60C48.7238 60 51.193 58.8973 52.9801 57.1102C54.7637 55.3231 55.8699 52.8586 55.8699 50.1305C55.8699 47.4071 54.7637 44.9379 52.9801 43.1508ZM52.5312 47.5161L45.9371 54.1137C45.5586 54.4922 44.9434 54.4922 44.5684 54.1137L39.466 49.0149C39.091 48.6364 39.091 48.0211 39.466 47.6461C39.8445 47.2676 40.4598 47.2676 40.8348 47.6461L45.2527 52.0606L51.1625 46.1473C51.541 45.7723 52.1527 45.7723 52.5312 46.1473C52.9098 46.5258 52.9098 47.1411 52.5312 47.5161Z" fill="#0F6BAC"/>
</g>
<defs>
<clipPath id="clip0_1_2558">
<rect width="60" height="60" fill="white"/>
</clipPath>
</defs>
</svg>
