<svg width="40" height="44" viewBox="0 0 40 44" fill="none" xmlns="http://www.w3.org/2000/svg">
<path d="M29.2231 10.9514C36.1723 15.6423 39.6469 17.9877 39.6469 22.0002C39.6469 26.012 36.1723 28.3574 29.2231 33.049C27.3055 34.3437 25.4026 35.5628 23.654 36.5793C22.1204 37.4702 20.3834 38.3926 18.5845 39.2978C11.6524 42.7867 8.18556 44.5308 5.07713 42.5998C1.96792 40.6681 1.68555 36.6249 1.1208 28.5386C0.960998 26.2517 0.859375 24.0097 0.859375 22.0002C0.859375 19.99 0.960998 17.748 1.1208 15.4611C1.68555 7.37492 1.96792 3.33169 5.07713 1.40034C8.18556 -0.531075 11.6524 1.21338 18.5845 4.70228C20.3834 5.60736 22.1204 6.52941 23.654 7.42079C25.4026 8.43693 27.3055 9.65601 29.2231 10.9514Z" fill="white"/>
</svg>
