<svg width="54" height="40" viewBox="0 0 54 40" fill="none" xmlns="http://www.w3.org/2000/svg">
<path fill-rule="evenodd" clip-rule="evenodd" d="M10.5422 0.550482C11.2737 1.28346 11.2725 2.47063 10.5396 3.20213C6.34305 7.39031 3.75 13.1758 3.75 19.5703C3.75 26.0398 6.40408 31.8858 10.6876 36.0851C11.4271 36.8101 11.4389 37.9971 10.7139 38.7366C9.98903 39.4761 8.8019 39.4878 8.06242 38.7628C3.0891 33.8876 0 27.0881 0 19.5703C0 12.1399 3.01802 5.41071 7.89057 0.547857C8.62352 -0.183643 9.81072 -0.182468 10.5422 0.550482ZM43.416 0.731457C44.1555 0.00653237 45.3425 0.0183325 46.0675 0.757807C50.8177 5.60346 53.75 12.2464 53.75 19.5703C53.75 26.9816 50.7477 33.6951 45.8975 38.5548C45.166 39.2878 43.9788 39.2891 43.246 38.5576C42.513 37.8261 42.5117 36.6388 43.2433 35.9058C47.4205 31.7203 50 25.9483 50 19.5703C50 13.2671 47.4805 7.55606 43.3897 3.38298C42.6647 2.64351 42.6765 1.45638 43.416 0.731457ZM17.6481 8.28923C18.3556 9.04533 18.3163 10.2319 17.5602 10.9394C15.1879 13.1594 13.75 16.1958 13.75 19.5258C13.75 22.8946 15.2217 25.9636 17.6439 28.1901C18.4063 28.8908 18.4562 30.0768 17.7554 30.8393C17.0546 31.6016 15.8685 31.6516 15.1061 30.9508C11.9742 28.0718 10 24.0263 10 19.5258C10 15.0778 11.9287 11.0735 14.9979 8.20136C15.754 7.49378 16.9405 7.53313 17.6481 8.28923ZM36.2323 8.38428C36.948 7.63596 38.1348 7.60958 38.8833 8.32536C41.8763 11.1882 43.75 15.1418 43.75 19.5258C43.75 23.9623 41.8313 27.9573 38.776 30.8278C38.0215 31.5371 36.8348 31.5001 36.1258 30.7453C35.4168 29.9906 35.4538 28.8041 36.2083 28.0951C38.5695 25.8766 40 22.8473 40 19.5258C40 16.2433 38.6028 13.2465 36.291 11.0353C35.5428 10.3195 35.5165 9.13261 36.2323 8.38428Z" fill="white"/>
<path d="M30.1407 15.6279C32.3802 17.2719 33.5 18.0939 33.5 19.5001C33.5 20.9061 32.3802 21.7281 30.1407 23.3724C29.5227 23.8261 28.9095 24.2534 28.346 24.6096C27.8518 24.9219 27.292 25.2451 26.7122 25.5624C24.4782 26.7851 23.361 27.3964 22.3593 26.7196C21.3573 26.0426 21.2662 24.6256 21.0842 21.7916C21.0327 20.9901 21 20.2044 21 19.5001C21 18.7956 21.0327 18.0099 21.0842 17.2084C21.2662 14.3744 21.3573 12.9574 22.3593 12.2805C23.361 11.6036 24.4782 12.215 26.7122 13.4377C27.292 13.7549 27.8518 14.0781 28.346 14.3905C28.9095 14.7466 29.5227 15.1739 30.1407 15.6279Z" fill="white"/>
</svg>
