<svg width="40" height="40" viewBox="0 0 40 40" fill="none" xmlns="http://www.w3.org/2000/svg">
<g clip-path="url(#clip0_1_10151)">
<path d="M11.5731 11.5859V15.0936H10.9284V17.8226L19.9999 16.7772L29.0713 17.8226V15.0935H28.4267V11.5858H29.0713L30.0623 8.443H20.8918V4.87842H19.1079V8.44309H9.9375L10.9284 11.5859H11.5731ZM13.2798 11.5859H26.7198V15.0936H13.2798V11.5859Z" fill="white"/>
<path d="M38.2512 16.4858V8.71259H38.8662V7.12207H35.5408L29.57 17.8799L29.1344 18.6647L20 17.6121L10.8656 18.6647L10.43 17.8799L4.45924 7.12207H1.1338V8.71259H1.74879V16.4858L0 19.2692L0.0211799 19.3611C0.164915 19.9853 0.939522 23.0991 2.07419 23.0991C3.20885 23.0991 3.98279 19.9852 4.12633 19.361L4.14751 19.2692L2.39959 16.486V8.71259H3.52289L8.75212 18.1343L9.61982 19.6976C9.85492 23.4872 11.1634 25.4383 12.6566 27.663C13.5338 28.9696 14.5079 30.4231 15.342 32.3922C15.5317 32.383 15.7118 32.3542 15.8739 32.3036C15.8796 32.302 15.8853 32.3003 15.8911 32.2985C16.3671 32.16 16.6998 32.0069 16.97 31.8023C17.3414 31.5214 17.6407 31.1852 17.8592 30.8031L18.7432 29.2586C18.9137 28.9604 19.2302 28.7757 19.5737 28.7741C19.5753 28.7741 19.577 28.7741 19.5787 28.7741C19.9203 28.7741 20.2363 28.955 20.4093 29.2498L20.6359 29.6368C20.7223 29.7846 20.808 29.9375 20.8945 30.0919C21.209 30.6535 21.5058 31.1842 21.8928 31.5346C21.8953 31.5366 21.8978 31.5389 21.9002 31.5412C22.4484 32.0481 23.199 32.363 23.8592 32.363L23.8999 32.3627C24.188 32.3575 24.4579 32.3246 24.7126 32.2656C25.5345 30.3607 26.4854 28.9414 27.3436 27.6629C28.8368 25.4382 30.1453 23.4871 30.3804 19.6975L31.2481 18.1342L36.4772 8.71249H37.6006V16.4859L35.8527 19.2691L35.8739 19.3609C36.0174 19.9851 36.7913 23.099 37.926 23.099C39.0607 23.099 39.8353 19.9852 39.979 19.361L40.0002 19.2691L38.2512 16.4858ZM1.74879 22.457C1.26675 21.939 0.748902 20.4569 0.484635 19.3506L1.74879 17.3387V22.457ZM3.66287 19.3507C3.39909 20.457 2.88162 21.9392 2.39959 22.4573V17.339L3.66287 19.3507ZM14.7054 23.2511C14.1407 23.2815 13.543 22.8872 13.3694 22.37C13.196 21.8537 13.513 21.4098 14.0767 21.3792C14.6413 21.3495 15.2392 21.7432 15.4124 22.2601C15.586 22.7776 15.2693 23.2206 14.7054 23.2511ZM26.6306 22.37C26.457 22.8872 25.8593 23.2816 25.2946 23.2511C24.7307 23.2206 24.4141 22.7776 24.5876 22.2601C24.7608 21.7432 25.3586 21.3495 25.9233 21.3792C26.487 21.4098 26.804 21.8537 26.6306 22.37ZM37.6004 22.457C37.1186 21.9388 36.6011 20.4569 36.3371 19.3506L37.6004 17.3389V22.457ZM38.2512 22.457V17.3387L39.5154 19.3506C39.2511 20.4569 38.7332 21.939 38.2512 22.457Z" fill="white"/>
<path d="M36.4671 32.8495C36.1127 32.4842 35.8421 32.0658 35.5592 31.6451C35.1621 32.0797 34.7818 32.5049 34.2959 32.8429C33.8257 33.1699 33.2853 33.3978 32.7262 33.5185C32.3806 33.5929 31.8851 33.6633 31.189 33.5736C30.8695 33.5324 30.5576 33.4501 30.2573 33.3327C29.6365 33.0905 29.1271 32.7207 28.6598 32.251C28.3402 31.9041 28.0641 31.5114 27.7738 31.1405C27.3177 31.6106 26.8776 32.1425 26.3359 32.5141C25.6063 33.0146 24.7907 33.2365 23.9182 33.2519C23.8985 33.2523 23.8788 33.2525 23.8592 33.2525C22.9084 33.2525 21.9338 32.8102 21.2466 32.1749C20.6185 31.6062 20.2283 30.7726 19.8048 30.0496C19.7295 29.9208 19.6542 29.7922 19.5787 29.6636C19.284 30.1784 18.9894 30.693 18.6948 31.2081C18.4036 31.7171 18.0173 32.1441 17.551 32.4969C17.1297 32.8158 16.6619 33.0036 16.1603 33.1497C15.8542 33.245 15.5295 33.2881 15.2016 33.2881C14.5743 33.2881 13.9352 33.1303 13.3921 32.8784C12.6103 32.5154 12.0381 31.8622 11.4358 31.2668C11.0129 31.8061 10.6169 32.3875 10.0586 32.7987C9.31328 33.3477 8.401 33.6825 7.47198 33.6825C7.36415 33.6825 7.25623 33.6779 7.14812 33.6687C6.60139 33.6221 6.09933 33.4923 5.59544 33.285C5.14478 33.0995 4.76403 32.8008 4.38587 32.5012C4.32281 32.4511 4.09474 32.2752 4.09474 32.2752C4.09474 32.2752 3.73372 32.689 3.55003 32.8575C3.25948 33.1242 2.96893 33.3669 2.63265 33.5746C2.35809 33.738 2.07774 33.8751 1.77843 33.9879C1.42242 34.122 1.0587 34.1968 0.685547 34.2594V34.2845C0.806369 34.2897 0.925843 34.2927 1.04464 34.2927C1.39228 34.2927 1.73405 34.2671 2.08429 34.1984C2.51491 34.1175 2.9413 33.9413 3.3262 33.737C3.50998 33.6393 3.68279 33.5318 3.85531 33.4152C3.89219 33.3904 3.92906 33.3655 3.96574 33.3408C4.00973 33.311 4.08617 33.2516 4.08617 33.2516C4.08617 33.2516 4.28979 33.4393 4.37894 33.5185C4.69558 33.7996 5.03176 34.0326 5.39779 34.2445C6.09307 34.6469 6.87634 34.8084 7.665 34.8811C7.78929 34.8926 7.91454 34.8983 8.04018 34.8983C9.01695 34.8983 10.0231 34.5629 10.8345 34.0616C11.0053 33.9561 11.1692 33.8397 11.3269 33.7156C11.3664 33.6846 11.4059 33.6534 11.4449 33.6215C11.4719 33.5996 11.4789 33.5875 11.4863 33.5875C11.4932 33.5875 11.5004 33.5976 11.5239 33.6189C11.5753 33.6657 11.6287 33.7101 11.6818 33.7549C11.8693 33.9133 12.0684 34.0587 12.2754 34.1907C12.8821 34.5775 13.5491 34.8381 14.2527 34.9814C14.6086 35.0538 14.9877 35.0912 15.3688 35.0912C15.9018 35.0912 16.4392 35.0179 16.9247 34.8641C17.9313 34.5479 18.878 34.017 19.5844 33.2207C20.626 34.4087 22.2585 35.1217 23.8584 35.1217C24.2219 35.1217 24.5838 35.0849 24.9366 35.0085C25.679 34.8475 26.377 34.5802 27.0151 34.1635C27.2162 34.0323 27.4066 33.8858 27.5883 33.7288C27.6339 33.6895 27.6792 33.65 27.7233 33.6088C27.7891 33.6648 27.8564 33.7189 27.9243 33.7724C28.0935 33.9057 28.2733 34.0273 28.4573 34.1395C29.3266 34.6692 30.3328 34.948 31.3439 34.948C31.6916 34.948 32.0397 34.9148 32.3832 34.8479C33.6294 34.6047 34.7708 33.9202 35.5535 32.9178C36.1179 33.471 36.8191 33.8673 37.5704 34.1035C38.0168 34.2435 38.4764 34.2996 38.9389 34.2996C39.064 34.2996 39.1894 34.2954 39.3146 34.2879V34.2587C39.2673 34.2518 39.2198 34.245 39.1723 34.2382C38.1546 34.0409 37.1973 33.6024 36.4671 32.8495Z" fill="white"/>
</g>
<defs>
<clipPath id="clip0_1_10151">
<rect width="40" height="40" fill="white"/>
</clipPath>
</defs>
</svg>
