<svg width="49" height="42" viewBox="0 0 49 42" fill="none" xmlns="http://www.w3.org/2000/svg">
<path d="M21.916 41.4816C21.7695 41.4816 21.623 41.4328 21.4863 41.3449C19.4847 39.9093 15.7059 39.0109 11.6148 39.0109C7.52362 39.0109 3.7449 39.9093 1.74325 41.3449C1.41127 41.5792 0.962122 41.5109 0.718023 41.1789C0.473914 40.8468 0.561794 40.3976 0.884013 40.1535C3.15905 38.5226 7.16234 37.546 11.605 37.546C16.0477 37.546 20.0608 38.5226 22.3261 40.1535C22.658 40.3878 22.7264 40.8468 22.4921 41.1789C22.3651 41.3742 22.1405 41.4816 21.916 41.4816Z" fill="white"/>
<path d="M40.6149 10.427C40.3318 10.427 40.0584 10.2609 39.9412 9.97766C39.785 9.60656 39.951 9.17691 40.322 9.02066L47.196 6.08122C47.3327 6.02263 47.4401 5.9152 47.4889 5.77849C47.5475 5.64177 47.5377 5.49529 47.4889 5.35857L45.9657 1.79413C45.8485 1.51093 45.5263 1.38397 45.2432 1.50116L43.8371 2.10663C43.4661 2.26288 43.0365 2.09686 42.8802 1.72577C42.724 1.35468 42.89 0.924996 43.261 0.768747L44.6671 0.16328C45.6923 -0.276171 46.8738 0.202343 47.3132 1.22772L48.8364 4.79217C49.0512 5.29021 49.0512 5.83708 48.8559 6.33513C48.6509 6.83317 48.2701 7.2238 47.7721 7.43864L40.8981 10.3781C40.8005 10.4074 40.7028 10.427 40.6149 10.427Z" fill="white"/>
<path d="M38.077 4.50904C37.7938 4.50904 37.5203 4.34302 37.4031 4.0696C37.2469 3.6985 37.4129 3.26881 37.784 3.11256L40.1082 2.1067C40.4793 1.95045 40.909 2.11647 41.0652 2.48756C41.2215 2.85866 41.0555 3.28835 40.6844 3.4446L38.3602 4.44068C38.2723 4.48951 38.1746 4.50904 38.077 4.50904Z" fill="white"/>
<path d="M25.5583 14.8312C25.2653 14.8312 25.0016 14.6555 24.8844 14.3918L23.8297 11.9211C23.7126 11.6476 23.7712 11.3254 23.986 11.1203L26.6227 8.46406C26.6911 8.3957 26.7594 8.34687 26.8473 8.30781C27.2184 8.14179 27.6481 8.3078 27.8141 8.6789C27.9411 8.97187 27.8629 9.30389 27.6481 9.50899L25.3727 11.7941L26.0465 13.3566L29.2985 13.2883C29.6988 13.2785 30.0406 13.6008 30.0503 14.0012C30.0601 14.4016 29.7379 14.7434 29.3376 14.7531L25.5973 14.8312C25.568 14.8312 25.568 14.8312 25.5583 14.8312Z" fill="white"/>
<path d="M7.71933 22.3507C6.9089 22.3507 6.14731 21.882 5.80556 21.091C5.35641 20.0364 5.84462 18.8157 6.89914 18.3665L24.2207 10.9544C24.5918 10.7981 25.0214 10.9641 25.1776 11.3352L26.2322 13.8059C26.3103 13.9817 26.3103 14.1868 26.2419 14.3626C26.1736 14.5383 26.0271 14.6848 25.8513 14.763L8.52976 22.1847C8.26612 22.2922 7.99273 22.3507 7.71933 22.3507ZM24.1133 12.5852L7.47523 19.7044C7.16277 19.8411 7.01631 20.2024 7.15301 20.5051C7.28971 20.8175 7.65098 20.964 7.95367 20.8273L24.6015 13.7083L24.1133 12.5852Z" fill="white"/>
<path d="M33.8871 16.5598C32.9498 16.5598 32.0026 16.384 31.1043 16.0226C29.2491 15.2805 27.7943 13.8547 27.0131 12.0188C26.3394 10.4466 26.232 8.67897 26.6909 7.04812C27.1498 5.43679 28.1458 4.00125 29.4932 3.02469C29.8252 2.79031 30.2744 2.85867 30.5185 3.1907C30.7528 3.52274 30.6845 3.97195 30.3525 4.21609C28.0677 5.87624 27.2475 8.85475 28.3606 11.4524C28.9953 12.927 30.167 14.0695 31.6511 14.675C33.145 15.2707 34.7757 15.2512 36.2597 14.6262C39.3061 13.3176 40.7317 9.78246 39.4233 6.72585C38.3102 4.1282 35.5957 2.66337 32.8131 3.17117C32.4127 3.2493 32.0319 2.98563 31.9636 2.58525C31.8952 2.18485 32.1589 1.804 32.5494 1.73564C34.1898 1.4329 35.9082 1.69657 37.3924 2.48759C38.896 3.28836 40.097 4.58719 40.7708 6.15944C42.3916 9.94846 40.6243 14.3625 36.8358 15.9836C35.8887 16.3547 34.8927 16.5598 33.8871 16.5598Z" fill="white"/>
<path d="M32.1108 13.4836C31.7397 13.3273 31.5542 12.9074 31.7104 12.5265C31.8667 12.1555 32.2865 11.9699 32.6673 12.1262C33.0384 12.2726 33.2239 12.7023 33.0677 13.0832C32.9505 13.3664 32.6771 13.5422 32.3842 13.5422C32.2865 13.5422 32.1986 13.5226 32.1108 13.4836ZM34.7862 13.0637C34.6299 12.6926 34.8057 12.2629 35.1767 12.1066C35.5478 11.9504 35.9774 12.1262 36.1336 12.4973C36.2898 12.8683 36.114 13.298 35.743 13.4543C35.6454 13.4933 35.5478 13.5129 35.4599 13.5129C35.1767 13.5129 34.9131 13.3469 34.7862 13.0637ZM29.5037 10.9348C29.3475 10.5637 29.5233 10.134 29.8943 9.97768C30.2653 9.82148 30.695 9.98748 30.8512 10.3683C31.0074 10.7394 30.8317 11.1691 30.4606 11.3254C30.363 11.3644 30.2653 11.384 30.1775 11.384C29.8943 11.384 29.6209 11.218 29.5037 10.9348ZM37.354 11.257C36.983 11.1105 36.7975 10.6808 36.9537 10.3C37.1002 9.92888 37.5298 9.74328 37.9106 9.89958C38.2816 10.0558 38.4671 10.4758 38.3109 10.8566C38.1937 11.1398 37.9204 11.3156 37.6274 11.3156C37.5298 11.3156 37.4419 11.2961 37.354 11.257ZM29.8748 8.24919C29.5037 8.10271 29.3182 7.67302 29.4744 7.29216C29.6209 6.9113 30.0505 6.73552 30.4313 6.88201C30.8024 7.02849 30.9879 7.45818 30.8414 7.83904C30.7243 8.12224 30.4509 8.29802 30.1579 8.29802C30.0603 8.29802 29.9626 8.27849 29.8748 8.24919ZM36.9244 7.78044C36.7682 7.40935 36.9439 6.97966 37.315 6.82341C37.686 6.66717 38.1156 6.84294 38.2719 7.21404C38.4281 7.58513 38.2523 8.01482 37.8813 8.17107C37.7837 8.21013 37.6958 8.22966 37.5981 8.22966C37.315 8.22966 37.0416 8.06365 36.9244 7.78044ZM31.6323 5.65155C31.4761 5.28045 31.6519 4.85077 32.0229 4.69452H32.0327C32.4037 4.53827 32.8333 4.71405 32.9895 5.08514C33.1458 5.45624 32.97 5.88592 32.599 6.04217C32.599 6.04217 32.5892 6.04217 32.5794 6.05194C32.4916 6.091 32.3939 6.11053 32.2963 6.11053C32.0229 6.10077 31.7593 5.92499 31.6323 5.65155ZM35.1279 6.01288C34.7569 5.85663 34.5713 5.4367 34.7276 5.05584C34.8838 4.68475 35.3037 4.4992 35.6845 4.65545C36.0555 4.8117 36.2409 5.23163 36.0848 5.61249C35.9676 5.89569 35.6942 6.07147 35.4013 6.07147C35.3134 6.07147 35.2158 6.05194 35.1279 6.01288Z" fill="white"/>
<path d="M31.6815 6.42308C30.2948 6.42308 29.162 5.29027 29.162 3.90355C29.162 2.51685 30.2948 1.38403 31.6815 1.38403C33.0683 1.38403 34.201 2.51685 34.201 3.90355C34.201 5.29027 33.0683 6.42308 31.6815 6.42308ZM31.6815 2.85864C31.1054 2.85864 30.6269 3.32738 30.6269 3.91332C30.6269 4.49926 31.0956 4.96801 31.6815 4.96801C32.2675 4.96801 32.7362 4.49926 32.7362 3.91332C32.7362 3.32738 32.2675 2.85864 31.6815 2.85864Z" fill="white"/>
<path d="M11.6154 37.5558C11.215 37.5558 10.883 37.2238 10.883 36.8234V20.2024L9.96505 17.8196C9.81855 17.4387 10.0041 17.0188 10.385 16.8723C10.7659 16.7258 11.1857 16.9114 11.3322 17.2922L12.299 19.802C12.3283 19.8899 12.3478 19.9778 12.3478 20.0657V36.8234C12.3478 37.2238 12.0255 37.5558 11.6154 37.5558Z" fill="white"/>
<path d="M31.6802 36.5694C29.5614 36.5694 27.5988 35.6123 26.2904 33.9424C25.7533 33.2588 25.7533 32.3019 26.2904 31.6085C27.5988 29.9386 29.5614 28.9816 31.6802 28.9816C34.1211 28.9816 36.3864 30.2902 37.6167 32.4093C37.7436 32.6339 37.7436 32.917 37.6167 33.1416C36.3962 35.251 34.1211 36.5694 31.6802 36.5694ZM31.6802 30.4464C30.0105 30.4464 28.4678 31.1984 27.4425 32.5167C27.3254 32.6729 27.3254 32.8877 27.4425 33.0342C28.4678 34.3526 30.0203 35.1045 31.6802 35.1045C33.4475 35.1045 35.1171 34.2256 36.113 32.7803C35.1171 31.3253 33.4475 30.4464 31.6802 30.4464Z" fill="white"/>
<path d="M30.0213 33.503C29.6209 33.503 29.2889 33.1709 29.2889 32.7706V32.7217C29.2889 32.3213 29.6209 31.9893 30.0213 31.9893C30.4217 31.9893 30.7537 32.3213 30.7537 32.7217V32.7706C30.7537 33.1807 30.4217 33.503 30.0213 33.503Z" fill="white"/>
</svg>
