<svg width="50" height="44" viewBox="0 0 50 44" fill="none" xmlns="http://www.w3.org/2000/svg">
<path d="M49.7916 15.7564C49.732 15.7062 49.6629 15.6681 49.5882 15.6441C49.5136 15.6202 49.4349 15.6109 49.3566 15.6167C49.2783 15.6226 49.2019 15.6436 49.1318 15.6784C49.0618 15.7132 48.9994 15.7612 48.9483 15.8197C44.9461 20.3962 38.1093 22.6587 35.9234 21.006C34.3055 19.7829 35.2795 16.3896 38.5935 11.6958C42.8296 5.69778 40.6055 2.71575 39.4522 1.71184C35.8521 -1.4237 26.5445 -0.33113 18.9485 6.25051C18.8739 6.31607 18.8174 6.39913 18.7843 6.49192C18.6952 6.47743 18.6049 6.47025 18.5146 6.47044C13.9652 6.52044 10.7157 7.8072 8.46973 9.7704C8.5613 9.8639 8.61827 9.9848 8.63152 10.1138C8.7973 11.7755 9.78521 13.3509 11.4143 14.5505C13.4096 16.0189 16.0255 16.6775 18.2468 16.2693C18.3291 16.2542 18.4137 16.2565 18.495 16.2759C19.4379 12.3661 20.3903 9.4298 20.1206 7.8013C20.0748 7.5386 19.9627 7.2912 19.7946 7.0818C26.7119 1.12434 35.4468 -0.20847 38.6596 2.58801C40.6219 4.29622 40.2493 7.2939 37.6115 11.0286C32.7661 17.8896 33.6217 20.7478 35.193 21.9341C36.0085 22.4846 36.9864 22.7563 37.9754 22.7072C41.5317 22.7072 46.6577 20.24 49.8561 16.5822C49.9592 16.4642 50.0103 16.311 49.9982 16.1562C49.9861 16.0013 49.9118 15.8575 49.7916 15.7564ZM15.8298 10.1704C15.6571 10.1704 15.4883 10.1202 15.3447 10.0262C15.2011 9.9322 15.0892 9.7985 15.0231 9.6421C14.957 9.4857 14.9398 9.3136 14.9734 9.1476C15.0071 8.9816 15.0903 8.8291 15.2124 8.7094C15.3345 8.5897 15.4901 8.5082 15.6595 8.4752C15.8288 8.4421 16.0044 8.4591 16.1639 8.5239C16.3235 8.5886 16.4598 8.6983 16.5558 8.8391C16.6517 8.9798 16.7029 9.1453 16.7029 9.3146C16.703 9.427 16.6804 9.5383 16.6366 9.6422C16.5927 9.7461 16.5284 9.8405 16.4473 9.92C16.3663 9.9995 16.27 10.0626 16.164 10.1056C16.0581 10.1487 15.9445 10.1704 15.8298 10.1704Z" fill="white"/>
<path d="M29.4142 42.5521C27.2327 41.87 29.8226 37.9626 27.2463 37.3841C24.7604 36.8263 21.9895 41.8642 16.6925 41.7302C13.245 41.5806 10.167 41.6364 8.11105 37.9556C6.67402 35.3837 4.23076 37.1958 5.50121 40.2657C5.78455 40.9505 5.09234 42.3818 3.84859 42.8622C3.79364 42.8844 3.74734 42.9232 3.71645 42.9729C3.68555 43.0227 3.67168 43.0808 3.67683 43.1388C3.68199 43.1969 3.70592 43.2518 3.74513 43.2955C3.78434 43.3393 3.83678 43.3696 3.89482 43.3821C8.21386 44.0818 25.6498 43.7337 27.8851 43.5407C29.9972 43.3575 29.7517 42.6575 29.4142 42.5521Z" fill="white"/>
<path d="M0.456559 38.8537C1.43928 40.176 3.55896 39.0779 3.36169 37.9576C2.91098 35.3986 -1.38535 36.3752 0.456559 38.8537Z" fill="white"/>
<path d="M41.9619 34.5943C41.7021 36.1357 43.6707 36.363 44.5482 35.3568C44.7617 35.1728 44.926 34.9405 45.0268 34.6801C45.1277 34.4197 45.162 34.139 45.1269 33.8626C44.934 32.804 42.3162 32.4927 41.9619 34.5943Z" fill="white"/>
<path d="M37.4483 33.4596C38.4083 32.465 37.0645 30.5561 35.4191 31.4701C34.9381 31.7373 34.2606 32.326 34.5399 33.2279C34.907 34.4092 36.4887 34.4541 37.4483 33.4596Z" fill="white"/>
<path d="M28.3926 9.4383C28.4268 9.0114 28.6364 8.3512 27.7402 7.8496C27.501 7.7334 27.235 7.6805 26.9684 7.696C26.7019 7.7115 26.4442 7.795 26.2207 7.9382C25.9972 8.0814 25.8158 8.2793 25.6943 8.5123C25.5728 8.7453 25.5155 9.0054 25.5281 9.2668C25.4814 10.6352 28.2268 11.5313 28.3926 9.4383Z" fill="white"/>
<path d="M9.08022 5.20557C9.08022 5.20557 10.6595 5.21846 10.8735 4.30127C11.1752 3.01221 9.56122 2.07823 8.23777 2.51612C6.91433 2.95401 6.98367 5.63721 9.08022 5.20557Z" fill="white"/>
<path d="M30.2014 31.186C29.3211 31.5733 28.409 31.8869 27.4748 32.1235C28.2375 29.6294 25.6253 28.111 25.5886 28.9142C25.4021 32.9935 23.9495 34.5071 23.1338 35.2786C25.5149 36.0044 30.238 35.3372 30.9916 31.7864C31.0122 31.6866 31.0039 31.583 30.9677 31.4875C30.9314 31.392 30.8687 31.3083 30.7865 31.2459C30.7044 31.1835 30.606 31.1448 30.5026 31.1342C30.3992 31.1236 30.2949 31.1416 30.2014 31.186Z" fill="white"/>
<path d="M44.6359 42.9455C44.453 42.8229 44.3151 42.646 44.2426 42.4408C43.5169 40.4533 43.6169 38.3185 41.0182 39.0244C39.594 39.4111 36.386 42.5037 31.5939 43.0478C31.5331 43.0535 31.4764 43.0804 31.4343 43.1237C31.3922 43.167 31.3674 43.2238 31.3645 43.2835C31.3617 43.3433 31.3809 43.4021 31.4187 43.4491C31.4566 43.4961 31.5104 43.5281 31.5704 43.5392C34.6564 44.0861 41.7264 44.1221 44.4705 43.6732C44.5507 43.6594 44.6249 43.6227 44.6838 43.5675C44.7427 43.5124 44.7835 43.4414 44.8012 43.3635C44.8189 43.2856 44.8127 43.2043 44.7832 43.1299C44.7538 43.0555 44.7026 42.9913 44.6359 42.9455Z" fill="white"/>
<path d="M17.3239 22.59C17.9616 22.5119 19.6751 22.715 20.198 23.1826C20.2473 23.2266 20.3094 23.2547 20.3756 23.2629C20.4418 23.2711 20.509 23.2591 20.568 23.2285C20.627 23.198 20.675 23.1503 20.7053 23.092C20.7357 23.0337 20.7469 22.9677 20.7376 22.9029C20.5662 21.6306 19.4715 19.6095 17.9424 18.7126C18.0306 18.2929 18.1227 17.8738 18.2186 17.4556C17.7884 17.5229 17.3535 17.5576 16.9179 17.5595C14.6725 17.5328 12.4938 16.8079 10.6959 15.4892C9.05285 14.3519 7.91601 12.6415 7.51861 10.7087C7.14519 11.1246 6.80279 11.5662 6.49404 12.0302C2.35114 13.6107 0.414384 18.3001 0.216325 20.0408C0.204636 20.1369 0.22294 20.2342 0.268821 20.3198C0.314702 20.4055 0.386005 20.4755 0.473321 20.5207C0.560638 20.5658 0.659865 20.584 0.757911 20.5727C0.855957 20.5614 0.948214 20.5213 1.02251 20.4576C1.9519 19.6486 3.04567 19.0419 4.23171 18.6775C3.79733 23.0326 4.96775 27.4201 6.61878 29.697C11.0622 35.8259 17.8368 35.9783 23.133 35.2791C17.8157 32.0318 16.8585 27.4134 17.3239 22.59Z" fill="white"/>
</svg>
