<svg width="255" height="164" viewBox="0 0 255 164" fill="none" xmlns="http://www.w3.org/2000/svg">
<path d="M224.494 149.977C224.549 150.09 224.572 150.219 224.638 150.349C224.583 150.349 224.572 150.43 224.516 150.43C224.549 150.3 224.483 150.139 224.494 149.977ZM224.594 140.761C224.594 140.761 224.594 140.761 224.583 140.761L224.439 140.519C224.494 140.6 224.538 140.681 224.594 140.761ZM156.389 154.019C156.455 154.051 156.499 154.051 156.565 154.051C156.521 154.148 156.444 154.18 156.4 154.261C156.411 154.18 156.355 154.1 156.389 154.019ZM147.005 156.201C146.972 156.201 147.06 156.121 147.049 156.088C147.049 156.153 147.049 156.25 147.049 156.314C147.016 156.282 147.027 156.25 147.005 156.201ZM129.409 155.312C129.431 155.264 129.454 155.231 129.454 155.231C129.442 155.231 129.42 155.264 129.409 155.312ZM100.496 148.004C100.529 147.907 100.584 147.843 100.595 147.762C100.629 147.843 100.64 147.875 100.662 147.956C100.617 147.956 100.562 148.004 100.496 148.004ZM54.1305 151.238C54.1747 151.141 54.1636 151.028 54.1747 150.947C54.2299 151.028 54.285 151.109 54.3405 151.19C54.274 151.19 54.2078 151.238 54.1305 151.238ZM14.297 101.603C14.319 101.603 14.3414 101.636 14.3414 101.636C14.3635 101.636 14.3304 101.668 14.3414 101.668C14.319 101.636 14.297 101.636 14.2749 101.603H14.297ZM5.95236 50.3845L5.93029 50.627C5.91925 50.5463 5.95236 50.4652 5.91925 50.3845C5.93029 50.3845 5.93029 50.3845 5.95236 50.3845ZM5.49936 41.2499C5.46597 41.2822 5.45494 41.3791 5.4108 41.3791C5.4108 41.3306 5.42183 41.2822 5.42183 41.2499C5.45494 41.2822 5.47701 41.2499 5.49936 41.2499ZM35.3965 4.84038C35.3965 4.87266 35.3744 4.87267 35.3744 4.87267C35.352 4.87267 35.3189 4.84039 35.2969 4.79196C35.352 4.74312 35.352 4.87266 35.3965 4.84038ZM116.511 19.1002C116.478 19.0517 116.434 19.0517 116.401 19.0517C116.412 19.0517 116.412 19.0517 116.412 19.0194C116.445 19.1001 116.478 19.0517 116.511 19.1002ZM131.189 27.6689C131.178 27.6689 131.156 27.6689 131.156 27.6689V27.7012C131.133 27.6367 131.133 27.5882 131.1 27.5398C131.111 27.5882 131.156 27.6367 131.189 27.6689ZM135.665 31.4685C135.665 31.5007 135.632 31.5007 135.632 31.5492C135.621 31.5492 135.599 31.5492 135.577 31.5492C135.599 31.5007 135.643 31.5007 135.665 31.4685ZM152.996 35.7204C152.597 35.5101 152.233 35.4617 151.901 35.7204C152.266 35.6719 152.642 35.5589 152.996 35.7204ZM162.877 36.4318C162.854 36.4318 162.821 36.5287 162.777 36.5287C162.854 36.3188 162.744 36.3188 162.766 36.2054C162.81 36.27 162.865 36.3673 162.877 36.4318ZM246.798 26.6503C246.146 26.0523 245.638 26.7799 245.074 27.0224C245.627 26.7799 246.213 26.7476 246.798 26.6503ZM249.363 44.6451C249.418 44.6935 249.495 44.5967 249.539 44.6451C249.539 44.6935 249.539 44.6935 249.539 44.7258C249.506 44.6451 249.418 44.7258 249.363 44.6451ZM229.49 129.202C229.512 129.234 229.545 129.282 229.568 129.363C229.568 129.363 229.512 129.234 229.49 129.202ZM230.076 130.899C230.065 130.931 230.054 130.98 230.054 131.012C230.043 130.98 230.065 130.931 230.043 130.899C230.054 130.899 230.065 130.899 230.076 130.899ZM215.608 136.606C215.597 136.606 215.597 136.606 215.586 136.606C215.597 136.606 215.597 136.606 215.63 136.558C215.63 136.606 215.608 136.606 215.608 136.606ZM158.378 152.241C158.776 152.483 159.185 152.612 159.572 152.887C159.152 152.839 158.687 152.806 158.267 153.017C158.256 152.774 158.179 152.483 158.378 152.241ZM139.931 141.812C140.064 141.731 140.119 141.974 140.241 142.006C140.119 142.055 139.942 142.136 139.81 142.168C139.876 142.055 139.81 141.844 139.931 141.812ZM116.08 156.606C116.058 155.603 116.058 154.553 116.246 153.663C116.124 154.617 115.936 155.555 116.08 156.606ZM115.605 156.314C115.549 156.282 115.461 156.282 115.406 156.282C115.461 156.363 115.527 156.201 115.605 156.314ZM109.338 139.905C109.371 139.872 109.382 139.872 109.404 139.84C109.404 139.84 109.404 139.84 109.382 139.84H109.404C109.415 139.872 109.426 139.84 109.426 139.872C109.404 139.872 109.371 139.905 109.338 139.905ZM101.634 145.531C101.634 145.579 101.634 145.579 101.645 145.612C101.634 145.612 101.623 145.612 101.612 145.612C101.623 145.579 101.612 145.531 101.634 145.531ZM66.5977 142.297C66.5977 142.297 66.5977 142.297 66.5977 142.329C66.5977 142.297 66.5977 142.329 66.5977 142.297ZM38.8889 143.154C38.8447 143.154 38.8447 143.219 38.8006 143.219C38.8447 143.219 38.8447 143.106 38.8889 143.154ZM17.7676 124.109C17.9003 124.109 17.9334 124.351 18.0106 124.513C17.9996 124.562 17.9665 124.562 17.9555 124.562C17.9555 124.351 17.8782 124.222 17.7676 124.109ZM15.4245 104.788C15.4245 104.837 15.4245 104.837 15.4245 104.869H15.4135C15.4135 104.869 15.4245 104.837 15.4245 104.788ZM13.2028 87.7799C13.2028 87.7799 13.2028 87.7799 13.1918 87.7799C13.1587 87.7799 13.1256 87.7799 13.1035 87.7799C13.1035 87.7315 13.1035 87.7315 13.1035 87.7315C13.1256 87.7315 13.1587 87.7315 13.2028 87.7315C13.2028 87.7315 13.2028 87.7315 13.1918 87.7799H13.2028ZM10.5392 34.3462C10.5392 34.2167 10.5723 34.0876 10.5392 33.9742C10.5502 34.0876 10.5502 34.2167 10.5392 34.3462ZM34.059 11.7441C34.2027 11.9862 34.4127 12.0189 34.6005 12.148C34.3906 12.0673 34.1586 12.0189 34.059 11.7441ZM76.1471 12.9241C76.2687 12.3906 76.5007 11.9378 76.4345 11.3881C76.4345 11.3881 76.4456 11.3881 76.4566 11.3881C76.3791 11.9055 76.2133 12.3906 76.1471 12.9241ZM161.97 38.5013L161.981 38.469C162.059 38.6304 162.169 38.7922 162.302 38.9056C162.291 38.9541 162.246 38.9541 162.224 38.9541V39.0671C162.202 39.0671 162.158 39.0671 162.136 39.0671C162.158 39.0186 162.202 38.9864 162.224 38.9864C162.136 38.8245 162.047 38.6631 161.97 38.5013ZM175.576 41.4925H175.587C175.587 41.4925 175.587 41.4925 175.576 41.4925ZM240.288 30.7731C240.244 30.9027 240.2 31.0318 240.156 31.0964C240.344 30.7085 240.167 30.3853 239.99 30.0939C240.023 30.0939 240.034 30.0132 240.078 30.0132C240.156 30.2558 240.222 30.5467 240.288 30.7731ZM240.333 29.8191C240.344 29.7223 240.355 29.6093 240.355 29.6093C240.355 29.6093 240.366 29.69 240.388 29.7707C240.355 29.7707 240.344 29.8191 240.333 29.8191ZM249.517 101.442C249.506 101.393 249.495 101.442 249.495 101.442C249.495 101.393 249.506 101.393 249.517 101.345C249.517 101.345 249.517 101.393 249.517 101.442ZM195.559 135.879C195.559 135.83 195.526 135.83 195.514 135.782C195.747 135.944 195.923 136.153 196.2 136.235C196.2 136.235 196.189 136.235 196.189 136.283C195.946 136.153 195.592 136.186 195.559 135.879ZM165.529 144.723V144.755C165.529 144.755 165.529 144.755 165.518 144.755C165.529 144.755 165.529 144.755 165.529 144.723ZM147.779 141.457C147.79 141.457 147.79 141.489 147.812 141.489C147.79 141.521 147.79 141.57 147.768 141.618C147.779 141.521 147.779 141.489 147.779 141.457ZM98.208 143.833C98.219 143.542 98.6389 143.591 98.8602 143.995C99.0812 144.399 99.3022 144.238 99.5342 144.399C98.8489 144.48 98.1639 144.641 97.4896 144.852C97.7991 144.69 98.1528 144.69 98.208 143.833ZM84.3593 149.573C84.3593 149.573 84.3593 149.573 84.3479 149.573C84.3479 149.573 84.3369 149.573 84.3369 149.54C84.3369 149.54 84.3479 149.573 84.3593 149.573ZM41.9175 146.986C41.9062 146.953 41.9175 146.953 41.9175 146.953C41.9175 146.953 41.9175 146.953 41.9175 146.986ZM15.4135 104.028V104.061C15.4135 104.061 15.3914 104.061 15.3914 104.028H15.4135ZM18.729 85.8239C18.7401 85.953 18.7401 86.0342 18.7514 86.1149V86.1471C18.718 86.1471 18.729 86.0826 18.6849 86.0826C18.718 85.9857 18.6959 85.9207 18.729 85.8239ZM15.944 58.4682C15.944 58.4682 15.944 58.5005 15.944 58.5489C15.9219 58.5005 15.9219 58.5489 15.8996 58.5489C15.9106 58.5005 15.933 58.4682 15.944 58.4682ZM17.1264 52.8418C17.1264 53.1005 16.983 53.2139 16.9717 53.4564C16.9275 53.3269 17.0271 53.2138 16.9606 53.052C17.0161 53.0036 17.0712 52.939 17.1264 52.8418ZM27.6596 18.6151C27.6596 18.6958 27.6265 18.6635 27.6265 18.6958C27.6044 18.6958 27.5934 18.6635 27.5821 18.6151C27.6044 18.6151 27.6376 18.6151 27.6596 18.6151ZM34.9432 14.573C34.9211 14.573 34.899 14.573 34.888 14.573C34.9322 14.4923 34.9984 14.4923 35.0538 14.46C35.0317 14.5246 34.9653 14.4923 34.9432 14.573ZM38.7344 16.95C38.7344 16.95 38.7454 16.95 38.7454 16.9177C38.7454 16.95 38.7454 16.9177 38.7564 16.95C38.7454 16.95 38.7454 16.95 38.7344 16.95ZM53.7658 21.8488C53.7658 21.8488 53.7545 21.8488 53.7324 21.8488C53.7214 21.8488 53.6993 21.8 53.6773 21.8C53.7104 21.8 53.7324 21.8 53.7658 21.8488ZM84.3593 11.259C84.3813 11.2913 84.3924 11.2913 84.4034 11.2913L84.3593 11.259C84.3259 11.259 84.2707 11.259 84.2266 11.259C84.2486 11.2267 84.2928 11.2267 84.3259 11.1779C84.3369 11.2267 84.3479 11.2267 84.3593 11.259ZM95.4779 12.1158H95.4889C95.5002 12.0189 95.5554 12.0189 95.5664 11.9378C95.5664 12.0189 95.5223 12.0189 95.5223 12.1158C95.5113 12.1158 95.5002 12.1158 95.4779 12.1158ZM104.961 13.1505C104.828 13.1989 104.795 13.4414 104.696 13.5548C104.795 13.393 104.884 13.2796 104.961 13.1505V13.1182C105.016 13.1505 105.072 13.0859 105.127 13.1182C105.072 13.1182 105.016 13.1505 104.961 13.1505ZM124.402 29.9809C124.292 29.8841 124.226 30.0939 124.115 30.0132C124.193 29.9325 124.303 29.9325 124.402 29.8518C124.402 29.8841 124.402 29.9325 124.402 29.9809ZM126.878 29.2856C127.519 29.8518 128.16 29.9325 128.757 29.1242C128.138 29.1726 127.497 29.2049 126.878 29.2856ZM131.708 34.8959C131.675 34.8959 131.653 34.9443 131.609 34.9443C131.631 34.9443 131.631 34.8959 131.631 34.8959C131.653 34.8959 131.686 34.8959 131.708 34.8959ZM131.686 34.8313C131.675 34.8636 131.631 34.8636 131.631 34.8959C131.609 34.8636 131.631 34.8636 131.609 34.8636C131.642 34.8313 131.675 34.8313 131.686 34.8313ZM132.195 31.6626H132.183L132.195 31.6299V31.6626ZM131.078 36.4803C131.178 36.2377 131.266 35.9467 131.354 35.6719C131.266 35.9467 131.211 36.2054 131.299 36.4803C131.222 36.4803 131.144 36.4803 131.078 36.4803ZM131.764 41.0558C131.542 40.894 131.365 40.603 131.1 40.5707C131.111 40.5223 131.111 40.5223 131.133 40.4739C131.31 40.7649 131.531 40.9263 131.775 41.0074C131.764 41.0074 131.764 41.0558 131.764 41.0558ZM162.169 42.3331C162.169 42.3008 162.213 42.2685 162.202 42.2197H162.213C162.202 42.2685 162.191 42.3008 162.169 42.3331ZM185.667 36.8362C185.7 36.9976 185.622 37.1595 185.678 37.3209C185.633 37.3209 185.611 37.3209 185.567 37.3209C185.667 37.1595 185.611 36.9976 185.667 36.8362ZM200.212 27.8631C200.212 27.8631 200.212 27.8631 200.223 27.8308C200.223 27.8631 200.223 27.8631 200.234 27.8631C200.223 27.8631 200.223 27.8631 200.212 27.8631ZM219.51 31.6299C219.521 31.5492 219.554 31.4684 219.565 31.355C219.576 31.4684 219.521 31.5492 219.554 31.6299C219.521 31.6299 219.521 31.6299 219.51 31.6299ZM232.198 35.9145C231.999 36.3673 231.9 36.8362 231.479 37.2563C231.59 36.9331 231.502 36.7228 231.568 36.3995C231.668 36.4803 232.032 36.0436 232.198 35.9145ZM246.699 65.0648C246.721 65.0159 246.743 65.0159 246.765 64.9837C246.765 65.0971 246.688 65.0971 246.688 65.1778C246.677 65.0971 246.71 65.0971 246.699 65.0648ZM146.972 139.905V139.953C146.806 140.034 146.64 140.147 146.497 140.244C146.673 140.309 146.85 140.438 147.027 140.568C147.049 140.568 147.049 140.568 147.049 140.568C146.806 140.309 146.552 140.244 146.253 140.244C146.519 140.195 146.762 140.115 146.972 139.905ZM123.783 140.147C123.717 140.47 123.485 140.568 123.319 140.681C123.319 140.681 123.319 140.681 123.308 140.681C123.474 140.519 123.629 140.357 123.783 140.147ZM120.026 139.258C120.037 139.306 120.048 139.355 120.07 139.355C120.048 139.355 120.048 139.306 120.026 139.258ZM75.4838 141.327C75.086 139.355 76.2687 137.722 76.0364 135.749C74.9977 137.447 75.0088 139.355 75.4838 141.327ZM71.0187 134.941C71.0187 134.973 71.0076 135.022 71.0076 135.07C70.9525 135.022 70.9081 135.103 70.8529 135.07C70.9081 135.022 70.9635 134.973 71.0187 134.941ZM53.7879 147.148H53.7769C53.7769 147.148 53.7769 147.148 53.7658 147.115C53.7769 147.148 53.7769 147.148 53.7879 147.148C53.7879 147.067 53.7769 147.018 53.7769 146.953C53.7989 147.018 53.8431 147.067 53.8651 147.115C53.832 147.115 53.821 147.148 53.7879 147.148ZM41.4973 144.641C41.4973 144.593 41.4863 144.593 41.4863 144.593C41.4973 144.561 41.5415 144.561 41.5525 144.528C41.5525 144.561 41.5084 144.593 41.4973 144.641ZM40.3921 114.732L40.4032 114.764C40.3921 114.764 40.3701 114.812 40.359 114.812C40.3701 114.764 40.3701 114.764 40.3921 114.732ZM34.6116 112.791C34.5674 112.824 34.6336 113.002 34.5343 112.953C34.5012 112.953 34.5012 112.824 34.4789 112.824C34.5123 112.791 34.5674 112.824 34.6116 112.791ZM71.5823 18.0009C71.5602 17.9686 71.5713 17.8875 71.5271 17.839C71.5602 17.8068 71.5713 17.8067 71.5823 17.8067C71.5823 17.8875 71.5823 17.9359 71.5823 18.0009ZM113.295 30.0455V30.0132C113.306 30.0132 113.339 30.0132 113.35 30.0132C113.328 30.0132 113.306 30.0455 113.295 30.0455ZM143.943 51.1444C143.943 51.1444 143.943 51.1444 143.943 51.1121C144.308 51.6295 144.474 50.9503 144.728 50.8212C144.441 50.918 144.087 50.74 143.943 51.1444ZM165.496 41.4113C165.275 41.2172 165.175 41.4436 164.999 41.4113C165.043 41.4113 165.087 41.3791 165.131 41.3791C165.275 41.4114 165.407 41.4436 165.496 41.4113ZM192.917 36.157C192.696 36.4803 192.541 36.8846 192.143 36.9976C192.121 36.9976 192.11 36.9976 192.099 36.9976C192.376 36.7228 192.685 36.561 192.906 36.157C192.906 36.157 192.906 36.157 192.917 36.157ZM218.515 47.9918C218.968 47.8784 219.466 47.9918 219.742 47.2803L219.786 47.3126C219.399 47.717 218.968 47.9595 218.515 47.9918ZM232.939 116.187C232.916 116.187 232.894 116.187 232.872 116.187H232.861C232.883 116.138 232.894 116.138 232.927 116.106C232.939 116.138 232.927 116.187 232.939 116.187ZM186.131 129.202C186.297 129.395 186.474 129.557 186.684 129.654C186.496 129.525 186.352 129.234 186.131 129.234V129.202ZM158.301 139.064C158.301 139.032 158.323 139.032 158.323 139.032H158.334C158.334 139.032 158.301 139.032 158.301 139.064ZM122.557 131.061C122.557 131.109 122.568 131.109 122.568 131.142C122.557 131.142 122.523 131.142 122.512 131.142C122.523 131.142 122.557 131.109 122.557 131.061ZM111.073 127.633H111.084C111.084 127.633 111.084 127.666 111.095 127.666C111.084 127.666 111.084 127.633 111.073 127.666C111.073 127.633 111.073 127.633 111.073 127.633ZM110.1 103.334C109.879 103.414 109.692 103.624 109.482 103.786C109.625 103.463 109.802 103.252 110.1 103.334ZM95.6547 140.6C95.6216 140.681 95.6771 140.729 95.6657 140.794C95.6547 140.794 95.6547 140.794 95.6437 140.761C95.6547 140.729 95.6216 140.681 95.6547 140.6ZM78.0261 134.666C77.9375 134.828 77.8048 134.779 77.7166 135.022C77.7166 134.973 77.7055 134.973 77.7055 134.941C77.8161 134.86 77.8934 134.828 78.0261 134.666ZM51.1353 147.115C51.1243 147.18 51.0467 147.228 51.0247 147.309C50.9474 147.277 50.8809 147.18 50.8037 147.115C50.903 147.067 51.0467 147.148 51.1353 147.115ZM34.877 103.576C34.7332 104.19 35.0649 104.384 35.0869 104.869C34.8991 104.514 34.8215 104.028 34.5895 103.786C34.7001 103.657 34.7663 103.689 34.877 103.576ZM17.5797 52.7288C17.447 52.7772 17.3143 52.8095 17.1819 52.8418C17.3366 52.939 17.458 52.8095 17.5797 52.7288ZM38.2149 20.2317C38.237 20.1995 38.248 20.1026 38.259 20.0703C38.237 20.1026 38.248 20.1995 38.2149 20.2317ZM76.9096 23.7887C77.0754 23.708 77.2522 23.6757 77.407 23.5946C77.2633 23.708 77.1198 23.8694 76.9096 23.7887ZM135.124 64.4017C135.179 64.2399 135.267 64.1269 135.311 63.9651C135.51 64.0462 135.532 64.2399 135.632 64.3695C135.466 64.4017 135.289 64.3372 135.124 64.4017ZM174.238 47.4421C174.249 47.3933 174.261 47.3933 174.272 47.3449C174.404 46.9894 174.515 46.9571 174.625 47.1835C174.459 47.1508 174.305 47.1835 174.238 47.4421ZM173.973 47.9268C174.051 47.7977 174.128 47.6036 174.216 47.4744C174.128 47.6359 174.183 47.83 174.117 47.9918C174.073 47.9268 174.017 47.9918 173.973 47.9268ZM194.608 50.9826C194.641 51.1928 194.453 51.1444 194.531 51.4354C194.63 51.7909 194.221 52.0012 193.978 52.0012C193.89 52.0496 193.812 52.0819 193.724 52.0819C194.045 51.7909 194.343 51.4354 194.608 50.9826ZM208.302 29.7222C208.336 29.7707 208.358 29.8191 208.369 29.8518C208.402 30.2235 208.28 30.4499 208.159 30.7085C208.225 30.3853 208.435 30.1266 208.302 29.7222ZM202.776 119.614C202.765 119.614 202.71 119.743 202.699 119.743C202.677 119.663 202.632 119.711 202.599 119.614C202.654 119.614 202.71 119.614 202.776 119.614ZM148.331 134.941C148.331 134.941 148.331 134.941 148.32 134.941L148.309 134.86C148.32 134.909 148.331 134.909 148.364 134.941C148.342 134.941 148.331 134.941 148.331 134.941ZM114.742 134.537C114.776 134.408 114.809 134.343 114.875 134.246C114.831 134.343 114.787 134.408 114.742 134.537ZM113.615 131.497C113.582 131.433 113.615 131.336 113.593 131.271C113.626 131.271 113.615 131.271 113.637 131.271C113.615 131.303 113.637 131.433 113.615 131.497ZM87.7192 126.582C87.7303 127.067 87.8848 127.067 87.9402 127.375C87.7744 127.31 87.5976 127.181 87.4428 127.181C87.5424 126.938 87.6417 126.857 87.7192 126.582ZM66.012 131.659C66.034 131.707 66.034 131.707 66.034 131.707C66.034 131.707 66.034 131.707 66.012 131.707V131.659ZM45.1668 134.408C45.0452 134.504 44.9569 134.699 44.8242 134.731C44.9569 134.666 45.0452 134.537 45.1668 134.408ZM41.7848 91.7413C41.7407 91.7736 41.7958 91.8543 41.7407 91.8543C41.7407 91.8543 41.7293 91.8543 41.7183 91.8059C41.7407 91.8059 41.7517 91.7736 41.7848 91.7413ZM32.1027 103.204C32.1027 103.204 32.1137 103.204 32.1137 103.252H32.1027V103.204ZM25.4269 88.5725C25.4269 88.5725 25.4269 88.5725 25.4159 88.5398C25.4269 88.5398 25.4269 88.5398 25.4269 88.5398V88.5725ZM22.1 95.8641V95.8963C22.1 95.8963 22.1 95.8963 22.089 95.8963C22.089 95.8963 22.089 95.8963 22.0669 95.8963C22.089 95.8963 22.089 95.8641 22.1 95.8641ZM22.089 62.591C21.9455 62.6394 21.8349 62.6717 21.7022 62.7528C21.8239 62.6717 21.9455 62.6394 22.089 62.591ZM167.143 41.4113C167.132 41.4113 167.132 41.4113 167.132 41.4113L167.165 41.3791C167.165 41.4114 167.132 41.3791 167.143 41.4113ZM215.464 52.2437C215.509 52.163 215.531 52.0819 215.575 52.0012C215.586 52.1307 215.674 52.0819 215.696 52.1953C215.597 52.1953 215.564 52.1953 215.464 52.2437ZM231.745 98.1599C231.59 97.9658 231.491 97.6425 231.402 97.2705C231.491 97.5937 231.568 97.9174 231.745 98.1599ZM174.935 119.663C174.913 119.549 175.001 119.549 175.034 119.501C175.056 119.501 175.056 119.453 175.067 119.453C175.023 119.549 174.957 119.582 174.935 119.663ZM160.721 127.342C160.776 127.423 160.754 127.536 160.788 127.633C160.754 127.633 160.688 127.633 160.655 127.633C160.655 127.536 160.721 127.472 160.721 127.342ZM132.062 90.1569C132.073 90.2053 132.095 90.1569 132.106 90.2053C132.095 90.2053 132.062 90.1569 132.04 90.2053C132.04 90.1569 132.04 90.1569 132.062 90.1569ZM126.602 109.719C126.602 109.719 126.602 109.719 126.613 109.719C126.602 109.719 126.613 109.752 126.602 109.752C126.602 109.719 126.602 109.719 126.602 109.719ZM113.847 113.81C113.847 113.81 113.847 113.81 113.847 113.842C113.836 113.81 113.836 113.81 113.825 113.81C113.836 113.81 113.836 113.81 113.847 113.81ZM107.172 101.603C107.149 101.555 107.172 101.507 107.149 101.474C107.16 101.474 107.16 101.474 107.172 101.442C107.172 101.474 107.172 101.555 107.172 101.603ZM98.8268 120.309C98.8268 120.358 98.8268 120.39 98.8268 120.471C98.8047 120.423 98.7716 120.423 98.7496 120.423C98.7716 120.39 98.8047 120.358 98.8268 120.309ZM61.2924 123.672C61.2924 123.786 61.2814 123.737 61.2593 123.866C61.2373 123.834 61.2262 123.834 61.1931 123.834C61.2373 123.786 61.2483 123.704 61.2924 123.672ZM56.0648 135.426C56.0314 135.345 55.9983 135.264 55.9541 135.184C56.0534 135.103 56.1641 135.135 56.2637 135.103C56.2082 135.232 56.1199 135.345 56.0648 135.426ZM37.0432 99.8896C37.0432 99.8573 37.0322 99.8573 37.0322 99.8573C37.0653 99.8896 37.0873 99.938 37.1205 99.938V99.9707C37.0873 99.938 37.0763 99.8896 37.0432 99.8896ZM23.7691 83.6899C23.7581 83.6899 23.7581 83.6899 23.7581 83.6899C23.7581 83.7221 23.736 83.6899 23.725 83.6899C23.736 83.6899 23.7581 83.6899 23.7691 83.6899ZM24.8743 79.6478V79.6962L24.8633 79.7285C24.8412 79.6962 24.8743 79.6962 24.8743 79.6478ZM24.9184 56.1239C24.786 56.7708 24.189 56.4149 24.1669 55.9948C24.1559 55.8007 24.0011 55.8007 23.957 55.6388C24.2886 55.8491 24.5982 56.0916 24.9184 56.1239ZM98.2521 46.0999C98.2521 46.1322 98.2521 46.181 98.2521 46.2294C98.2632 46.2294 98.2742 46.2617 98.2963 46.2617C98.2963 46.2617 98.2963 46.2617 98.2742 46.2617L98.2521 46.2294C98.208 46.181 98.1749 46.1322 98.1415 46.0999C98.1749 46.0999 98.208 46.0999 98.2521 46.0999ZM137.058 71.3216C136.98 71.4346 136.87 71.4346 136.77 71.483C136.792 71.4346 136.814 71.4023 136.836 71.37C136.903 71.37 136.98 71.37 137.058 71.3216ZM185.081 49.495C185.07 49.5762 185.136 49.5762 185.125 49.6569C185.114 49.5762 185.07 49.6085 185.048 49.5762C185.07 49.5439 185.081 49.495 185.081 49.495ZM197.117 50.8696C197.117 50.8696 197.139 50.918 197.139 50.9503C197.128 50.9503 197.117 50.918 197.106 50.918C197.106 50.8696 197.117 50.8696 197.117 50.8696ZM152.41 119.21C152.487 119.258 152.52 119.388 152.586 119.453C152.432 119.453 152.321 119.549 152.189 119.582C152.266 119.501 152.31 119.21 152.41 119.21ZM152.299 115.912C152.299 115.944 152.277 115.976 152.277 116.025C152.2 116.074 152.2 115.944 152.111 115.944C152.155 115.912 152.255 115.944 152.299 115.912ZM125.917 101.603C125.751 101.151 125.607 100.714 126.038 100.391C126.259 100.342 126.348 100.585 126.458 100.779C126.204 101.038 126.116 101.345 125.917 101.603ZM124.9 104.465C124.999 104.417 124.966 104.384 125.055 104.384C125.066 104.546 125.154 104.708 125.165 104.869C125.077 104.74 124.999 104.578 124.9 104.465ZM83.5744 129.072C83.5744 129.234 83.5523 129.331 83.5633 129.525C83.5082 129.363 83.5082 129.395 83.4637 129.234C83.4971 129.202 83.5302 129.121 83.5744 129.072ZM78.5456 113.923C78.678 113.875 78.6559 113.648 78.689 113.438C78.7004 113.438 78.7114 113.438 78.7114 113.438C78.678 113.6 78.6339 113.762 78.6228 113.923C78.5897 113.923 78.5787 113.923 78.5456 113.923ZM78.2912 113.163C78.3023 113.163 78.3023 113.163 78.3133 113.163C78.3133 113.519 78.3243 113.842 78.5235 113.923C78.4901 113.923 78.4681 113.923 78.435 113.875C78.4239 113.648 78.4129 113.357 78.2912 113.163ZM28.7538 34.7829C28.5328 34.0876 28.4222 33.3599 27.9137 33.0044C27.9247 33.0044 27.9247 33.0044 27.9247 33.0044C28.2895 33.4895 28.61 34.0553 28.7538 34.7829ZM39.3201 49.3659C39.3201 49.4143 39.3201 49.495 39.3201 49.5439C39.2649 49.5439 39.2205 49.5439 39.1763 49.5439C39.2205 49.495 39.2649 49.4628 39.3201 49.3659ZM44.9125 37.7414C44.6694 37.6445 44.5588 37.3209 44.3933 37.1272C44.5701 37.2886 44.7801 37.4827 45.0231 37.5796C44.9238 37.5311 45.0231 37.7737 44.9125 37.7414ZM52.5056 38.6954C52.4946 38.6304 52.4614 38.582 52.4394 38.5013C52.4835 38.5013 52.5166 38.5336 52.55 38.5336C52.5279 38.582 52.5279 38.6304 52.5056 38.6954ZM98.2521 47.1185C98.2301 47.1185 98.219 47.1508 98.208 47.1185C98.219 47.1185 98.2301 47.0701 98.2632 47.0701C98.2521 47.0701 98.2521 47.1185 98.2521 47.1185ZM131.697 73.504C131.653 73.4233 131.587 73.504 131.542 73.4717C131.819 73.2615 132.062 72.8898 132.305 72.4854C132.073 73.1808 131.808 73.6659 131.697 73.504ZM137.279 81.4263C137.201 81.4263 137.013 81.507 137.013 81.507C137.002 81.394 136.914 81.3456 136.892 81.2645C137.035 81.2968 137.113 81.4263 137.279 81.4263ZM140.771 72.0004C140.539 72.1299 140.318 72.1622 140.097 72.2106C140.329 72.1622 140.55 72.1299 140.771 72.0004ZM144.131 73.1485C144.176 73.3749 144.01 73.504 144.076 73.795C144.01 73.6981 144.01 73.6658 143.943 73.5363C143.955 73.504 143.977 73.5851 143.988 73.504C144.021 73.3749 144.087 73.2615 144.131 73.1485ZM222.837 61.7504C222.825 61.7504 222.814 61.7504 222.803 61.7504C222.814 61.7019 222.814 61.7019 222.826 61.7019C222.826 61.7019 222.837 61.7019 222.837 61.7504ZM221.543 100.132C221.455 99.938 221.333 99.825 221.167 99.7766C221.344 99.7281 221.444 99.938 221.543 100.132ZM200.599 96.1066C200.599 96.0578 200.599 95.977 200.599 95.8963C200.654 95.9286 200.698 95.8641 200.742 95.8963C200.698 95.9286 200.654 96.0578 200.599 96.1066ZM167.828 108.184C167.795 108.184 167.817 108.151 167.784 108.103C167.795 108.103 167.817 108.103 167.828 108.103C167.828 108.151 167.828 108.184 167.828 108.184ZM141.644 71.483C141.644 71.483 141.644 71.483 141.633 71.483H141.622C141.633 71.483 141.644 71.483 141.644 71.483ZM144.419 80.4561C144.408 80.4561 144.397 80.4077 144.374 80.4077C144.408 80.3754 144.408 80.2947 144.441 80.2459C144.441 80.3431 144.419 80.3431 144.419 80.4561ZM190.088 66.8756C190.043 66.8756 190.066 66.9886 190.01 66.9886C190.01 66.9563 189.999 66.9563 189.999 66.9563C190.01 66.9563 190.066 66.8756 190.088 66.8756ZM201.052 55.72C201.107 55.8007 201.074 55.9621 201.151 56.0432C201.162 56.0432 201.162 56.0432 201.173 56.0432C201.162 56.0432 201.162 56.0432 201.162 56.0432H201.151C201.107 56.0432 201.074 55.9948 201.041 55.9948C201.074 55.9137 201.041 55.8007 201.052 55.72ZM224.594 63.189C224.594 63.2863 224.594 63.3186 224.594 63.3993C224.572 63.3509 224.549 63.3993 224.516 63.3509C224.538 63.3186 224.572 63.2379 224.594 63.189ZM226.738 56.0432C226.804 55.9621 226.893 56.0432 226.937 55.9948C226.893 56.1239 226.771 55.9621 226.727 56.1562C226.705 56.1239 226.76 56.0916 226.738 56.0432ZM229.556 60.8936V60.8609C229.556 60.8609 229.59 60.8609 229.612 60.8609C229.59 60.8936 229.568 60.8609 229.556 60.8936ZM231.236 61.2976C231.059 61.1684 230.905 61.055 230.706 61.0227C230.85 61.0227 231.104 61.0227 231.104 61.055C231.126 61.2168 231.214 61.1684 231.236 61.2976ZM228.319 87.5701C228.341 87.5701 228.341 87.5213 228.341 87.5213C228.363 87.5701 228.407 87.6508 228.451 87.7315C228.44 87.7315 228.418 87.7315 228.407 87.7799C228.374 87.6831 228.363 87.6508 228.319 87.5701ZM160.555 113.81C160.522 113.713 160.445 113.762 160.401 113.681C160.456 113.713 160.5 113.762 160.555 113.81ZM206.722 57.6599H206.7C206.7 57.6276 206.722 57.6276 206.722 57.6276C206.722 57.6599 206.722 57.6599 206.722 57.6599ZM196.83 85.3549C196.852 85.3549 196.863 85.355 196.874 85.3065C196.896 85.3065 196.896 85.3065 196.896 85.3065C196.874 85.3065 196.852 85.3549 196.83 85.3549ZM175.012 102.412C175.023 102.412 175.023 102.412 175.023 102.412C175.023 102.412 175.034 102.444 175.056 102.444C174.968 102.476 174.913 102.557 174.857 102.654C174.913 102.557 174.968 102.476 175.023 102.412H175.012ZM146.541 89.3159C146.452 89.3486 146.497 89.5423 146.375 89.51C146.342 89.51 146.353 89.4293 146.342 89.3809C146.408 89.3809 146.463 89.3159 146.541 89.3159ZM202.632 82.1539C202.643 82.0728 202.754 82.0728 202.798 81.9921C202.732 82.0728 202.71 82.1539 202.677 82.2831C202.677 82.1862 202.632 82.2346 202.632 82.1539ZM184.329 108.798L184.484 108.669C184.484 108.669 184.484 108.75 184.473 108.798C184.462 108.83 184.429 108.83 184.418 108.863C184.374 108.83 184.329 108.798 184.329 108.798ZM175.587 100.714C175.587 100.747 175.576 100.747 175.587 100.779C175.576 100.779 175.576 100.779 175.576 100.779C175.576 100.747 175.576 100.747 175.587 100.714ZM164.81 100.617C164.678 100.391 164.523 100.132 164.357 99.938C164.512 100.132 164.689 100.342 164.81 100.617ZM162.224 106.486C162.224 106.486 162.202 106.518 162.213 106.567C162.158 106.567 162.158 106.615 162.125 106.615C162.147 106.567 162.191 106.518 162.224 106.486ZM157.184 74.1509C157.085 74.1509 157.151 73.9891 157.085 73.9084C157.162 73.9084 157.229 73.9084 157.295 73.86C157.24 73.9568 157.24 74.0698 157.184 74.1509ZM191.823 77.174H191.812C191.779 77.174 191.757 77.174 191.713 77.174C191.702 77.174 191.702 77.1417 191.69 77.1094C191.69 77.1094 191.69 77.1094 191.69 77.061C191.724 77.1417 191.779 77.061 191.834 77.1094C191.834 77.1417 191.823 77.1417 191.823 77.174ZM192.331 75.6058C192.309 75.6385 192.276 75.6058 192.265 75.6385C192.265 75.6058 192.265 75.6058 192.265 75.5735C192.309 75.5251 192.287 75.6385 192.331 75.6058ZM166.877 82.8327C166.899 82.7197 167.01 82.7197 167.076 82.639C167.452 82.7681 167.828 82.8327 168.193 82.8327C167.762 82.5095 167.309 82.2831 166.877 82.8327ZM169.154 91.418C169.132 91.4503 169.11 91.418 169.099 91.4503C169.099 91.418 169.121 91.418 169.121 91.418C169.121 91.418 169.154 91.3692 169.154 91.418ZM151.603 85.953C151.492 86.1149 151.382 86.2767 151.282 86.4704C151.315 86.1471 151.525 86.1471 151.603 85.953ZM186.12 84.5789C186.131 84.5789 186.131 84.6112 186.142 84.6112C186.164 84.7085 186.175 84.8214 186.175 84.9022C186.131 84.8214 186.065 84.8699 186.02 84.773C186.065 84.7407 186.076 84.6112 186.12 84.5789ZM215.056 79.5994C215.045 79.5994 215.045 79.5994 215.045 79.5994C215.056 79.5994 215.078 79.5994 215.089 79.5671C215.078 79.5994 215.056 79.5994 215.056 79.5994ZM215.608 78.9202C215.63 78.9202 215.63 78.9202 215.63 78.8718C215.63 78.9686 215.608 78.8718 215.608 78.9202ZM214.392 81.2968C214.381 81.2645 214.359 81.2645 214.348 81.2645C214.392 81.2645 214.436 81.2645 214.492 81.2645C214.47 81.2968 214.425 81.2645 214.392 81.2968ZM211.143 82.7197C211.165 82.7681 211.121 82.8004 211.154 82.8327C211.165 82.8815 211.176 82.8815 211.187 82.8815C211.176 82.8815 211.176 82.8815 211.165 82.8815L211.154 82.8327C211.11 82.8004 211.043 82.8004 210.999 82.7681C211.043 82.7197 211.099 82.7681 211.143 82.7197ZM217.255 76.285C217.244 76.285 217.244 76.285 217.233 76.285C217.244 76.2527 217.244 76.2527 217.244 76.2204C217.255 76.2527 217.255 76.2527 217.255 76.285ZM200.433 64.5313C200.654 64.4017 200.698 64.0785 200.831 63.8521C200.731 64.1753 200.698 64.5636 200.676 64.9352C200.61 64.7738 200.433 64.7738 200.433 64.5313ZM205.407 85.5168C205.429 85.5168 205.451 85.4684 205.473 85.4684C205.462 85.4684 205.462 85.5168 205.451 85.5168C205.429 85.5168 205.429 85.5168 205.407 85.5168ZM231.225 80.5857C231.17 80.3754 231.236 80.0522 231.093 79.9226C231.236 79.9226 231.214 80.2136 231.358 80.2136C231.325 80.3431 231.269 80.4561 231.225 80.5857ZM230.507 79.3246C230.175 79.1627 229.822 79.0336 229.612 78.8072C229.346 78.4351 229.07 78.0634 228.805 77.7079C228.838 77.7079 228.849 77.6591 228.871 77.6591C229.158 78.6777 229.8 79.0336 230.507 79.3246ZM137.168 75.7353C137.168 75.6869 137.179 75.6869 137.179 75.6869C137.168 75.6869 137.179 75.7353 137.168 75.7353ZM233.281 58.8403C233.281 58.7915 233.27 58.7915 233.27 58.7915C233.292 58.7107 233.248 58.63 233.314 58.5816C233.259 58.6785 233.314 58.743 233.281 58.8403ZM161.672 56.0432C161.639 56.1562 161.528 56.1239 161.484 56.2535C161.484 56.1239 161.539 56.1239 161.539 56.0432C161.583 56.0432 161.627 56.0432 161.672 56.0432ZM137.323 75.4121C137.301 75.4443 137.29 75.4766 137.279 75.525C137.268 75.4766 137.268 75.5735 137.235 75.525C137.235 75.525 137.268 75.4766 137.279 75.4443C137.29 75.4443 137.29 75.4121 137.323 75.4121ZM115.174 113.972C115.096 113.923 115.019 113.875 114.964 113.762C114.964 113.713 114.964 113.713 114.964 113.681C115.03 113.81 115.107 113.923 115.174 113.972ZM99.7665 104.223C99.8106 104.352 99.8216 104.417 99.8989 104.514C99.8106 104.417 99.8106 104.352 99.7665 104.223ZM76.0698 97.1898C75.8265 97.1413 75.6717 97.513 75.4397 97.5937C75.7713 97.1413 75.8819 96.4621 76.1029 95.8963C76.0364 96.3003 75.904 96.7531 76.0698 97.1898ZM57.1368 99.9707C57.1589 99.9707 57.1479 100.068 57.1699 100.068C57.1589 100.068 57.1479 100.068 57.1258 100.068C57.1368 100.019 57.1258 99.9707 57.1368 99.9707ZM53.2019 128.636C53.1357 128.636 53.1136 128.684 53.0695 128.636C53.1247 128.587 53.1688 128.523 53.2353 128.426C53.2353 128.523 53.2019 128.555 53.2019 128.636ZM47.4106 126.938C47.3772 126.647 47.3996 126.647 47.4327 126.97C47.4216 127.1 47.3996 127.181 47.3772 127.31C47.3662 127.181 47.4106 127.067 47.4106 126.938ZM24.9295 65.501C24.9739 65.501 24.9739 65.6144 25.007 65.5822C24.9518 65.6144 24.9074 65.8247 24.8302 65.8731C24.8743 65.7436 24.8853 65.6629 24.9295 65.501ZM38.0491 54.3132C37.9826 54.3454 37.9495 54.475 37.8612 54.475C37.9495 54.4266 37.9826 54.3454 38.0491 54.3132ZM36.2362 74.9108V74.8786C36.2362 74.8786 36.2473 74.8786 36.2473 74.9108C36.2473 74.9108 36.2473 74.9108 36.2362 74.9108ZM31.3402 91.0944C31.3071 91.1267 31.4064 91.1594 31.3622 91.2078C31.3622 91.1594 31.2957 91.1594 31.2957 91.0944C31.3071 91.0944 31.3291 91.0944 31.3402 91.0944ZM30.0692 91.4503C30.1464 91.4826 30.2126 91.3692 30.2902 91.3692C30.2347 91.418 30.1685 91.4503 30.1244 91.531C30.1133 91.4826 30.0692 91.4826 30.0692 91.4503ZM45.6532 42.4622C45.6532 42.3815 45.6422 42.3008 45.6312 42.2197C45.6312 42.3008 45.6532 42.3815 45.6532 42.4622ZM50.8588 48.3958C50.8809 48.3958 50.8588 48.4442 50.8809 48.493C50.8037 47.4744 50.1294 47.2803 49.7316 46.7791C50.1736 47.2319 50.5162 47.7977 50.8588 48.3958ZM61.5024 31.711C61.5689 31.5492 61.7237 31.355 61.823 31.2259C61.7123 31.3873 61.591 31.5492 61.5024 31.711ZM108.277 49.495C108.277 49.495 108.288 49.495 108.288 49.4628C108.288 49.495 108.288 49.495 108.288 49.495H108.277ZM111.814 78.4351C111.946 78.9686 112.156 79.1627 112.311 79.5994C112.134 79.4376 111.847 78.8718 111.692 78.8718C111.747 78.7099 111.758 78.6454 111.814 78.4351ZM92.7039 107.214C92.7039 107.262 92.7039 107.262 92.7039 107.294C92.6818 107.262 92.6594 107.262 92.6263 107.262C92.6594 107.214 92.6818 107.262 92.7039 107.214ZM47.3662 119.307C47.3772 119.178 47.3996 119.097 47.3996 119.097C47.3996 119.097 47.4106 119.178 47.4216 119.258C47.3996 119.258 47.3772 119.307 47.3662 119.307ZM50.5937 121.57C50.5827 121.635 50.5493 121.684 50.5272 121.765C50.5052 121.684 50.461 121.635 50.4279 121.57C50.5052 121.57 50.5162 121.603 50.5937 121.57ZM50.461 80.4561C50.461 80.4561 50.461 80.4561 50.4721 80.4561C50.4721 80.4561 50.461 80.4561 50.45 80.5046C50.461 80.5046 50.45 80.4561 50.461 80.4561ZM48.2283 71.483C48.2838 71.6448 48.1842 71.8067 48.1621 71.9681C48.1842 71.8067 48.2393 71.6125 48.1511 71.4346C48.1842 71.483 48.1952 71.483 48.2283 71.483ZM69.9135 47.0701L69.9025 47.1185C69.9135 47.1185 69.9135 47.0701 69.9135 47.0701ZM111.991 77.6591C112.057 77.7563 112.035 77.8209 112.112 77.8693C112.035 77.8693 112.057 77.8693 111.991 77.8693C112.013 77.8209 111.98 77.7563 111.991 77.6591ZM93.7539 111.061C93.6764 110.932 93.7318 110.77 93.6763 110.69C93.7539 110.641 93.9197 110.577 94.0411 110.479C93.9417 110.641 93.9197 110.932 93.7539 111.061ZM84.6023 89.6718C84.5802 89.6234 84.5692 89.5907 84.5582 89.5423C84.6023 89.5423 84.6464 89.5907 84.6796 89.5907C84.6575 89.6234 84.6133 89.6718 84.6023 89.6718ZM83.8398 39.7947C83.8287 39.7947 83.8287 39.7463 83.8287 39.7463C83.8287 39.7463 83.8287 39.7463 83.8398 39.7463C83.8398 39.7463 83.8287 39.7463 83.8398 39.7947ZM101.048 54.4266C101.048 53.5694 100.662 53.2623 100.208 53.0036C100.629 53.0036 100.96 53.3268 101.048 54.4266ZM107.16 78.1119C107.172 78.1603 107.172 78.1603 107.172 78.1603C107.072 78.2737 107.227 78.3867 107.172 78.5162C107.16 78.5162 107.116 78.5485 107.116 78.5485C107.138 78.3867 107.149 78.2737 107.16 78.1119ZM80.4798 81.5881C80.314 81.5881 80.1372 81.5554 79.9713 81.5881C80.1261 81.507 80.303 81.5554 80.4798 81.5881ZM54.8489 89.9144C54.9041 89.9144 54.9703 89.9467 55.0368 89.9467C54.8045 89.9467 54.5504 89.8821 54.3736 90.2053C54.5615 90.1569 54.7162 90.0435 54.8489 89.9144ZM56.5729 51.9527C56.5729 52.0496 56.5729 52.0819 56.5729 52.163C56.5288 52.0819 56.4846 52.0012 56.4295 51.9527C56.4736 51.9527 56.5288 51.9527 56.5729 51.9527C56.5729 51.9205 56.5729 51.9205 56.5729 51.8882C56.584 51.9205 56.5729 51.9527 56.5953 52.0012C56.584 52.0012 56.584 51.9527 56.5729 51.9527ZM60.9719 50.74C61.005 50.74 61.0163 50.6755 61.0604 50.6755C61.0715 50.74 61.0384 50.7885 61.0604 50.8696C61.0273 50.8212 61.005 50.74 60.9719 50.74ZM68.6425 74.7974C68.576 74.7974 68.576 74.6844 68.5208 74.636C68.5981 74.5872 68.6646 74.5549 68.7418 74.4742C68.7418 74.636 68.6315 74.636 68.6425 74.7974ZM75.0198 47.8784C75.0088 47.8784 74.9977 47.9268 74.9867 47.9268C74.9754 47.9268 74.9423 47.9268 74.9202 47.9268C74.9533 47.8784 74.9867 47.8784 75.0198 47.8784ZM77.3629 44.4833C77.4181 44.4833 77.4845 44.4025 77.5287 44.4025C77.4735 44.4348 77.4181 44.4348 77.3629 44.4833ZM76.7107 45.2916C76.7107 45.3727 76.6997 45.4534 76.6555 45.5018C76.6445 45.405 76.6996 45.3727 76.6996 45.34C76.7107 45.34 76.7107 45.34 76.7107 45.2916ZM93.0906 61.1684C93.1127 61.055 93.19 61.055 93.2013 60.8936C93.2454 60.9743 93.2785 60.9259 93.3227 61.0227C93.2344 61.0227 93.1679 61.1357 93.0906 61.1684ZM106.442 57.0941C106.442 57.0134 106.453 56.9645 106.442 56.9C106.508 56.9 106.586 56.9 106.641 56.9C106.597 57.0134 106.497 57.0134 106.442 57.0941ZM103.557 73.504C103.535 73.6659 103.447 73.6658 103.447 73.86C103.392 73.86 103.347 73.9084 103.292 73.9084C103.314 73.6981 103.469 73.6336 103.557 73.504ZM98.429 62.478C98.4621 62.5102 98.4179 62.591 98.4621 62.6394C98.429 62.591 98.3959 62.6394 98.3848 62.591C98.3628 62.591 98.3297 62.5425 98.3073 62.5425C98.3297 62.478 98.3848 62.5102 98.429 62.478ZM104.85 58.5489C104.729 58.3875 104.585 58.5489 104.486 58.4682C104.629 58.4682 104.795 58.5005 104.95 58.4682C104.917 58.5005 104.884 58.5489 104.85 58.5489ZM90.0182 69.5108C89.7417 69.4135 89.6532 69.7856 89.4322 69.8341C89.5538 69.6722 89.8634 69.4135 89.9296 69.2521C89.9627 69.349 89.9737 69.3812 90.0182 69.5108ZM94.6933 69.7372C94.7153 69.8341 94.7264 69.8986 94.7374 70.0282C94.6381 70.0282 94.5385 69.9959 94.4392 69.9959C94.5385 69.8986 94.616 69.8341 94.6933 69.7372ZM90.2171 77.8693C90.0733 77.7079 90.0954 77.3358 89.9075 77.2713C89.9186 77.2228 89.9075 77.174 89.9296 77.174C90.0292 77.4327 90.1175 77.6591 90.2171 77.8693ZM102.165 60.9743C102.143 60.9743 102.143 60.9259 102.132 60.9259C102.143 60.9259 102.165 60.9259 102.176 60.9259L102.165 60.9743ZM56.0203 51.9527C56.0424 51.9527 56.0534 51.9527 56.0868 51.9527C56.0314 52.0819 55.9321 52.163 55.8325 52.1953C55.8214 52.2437 55.8325 52.163 55.8104 52.1953C55.8104 52.1953 55.8104 52.2437 55.7883 52.2437C55.7662 52.2437 55.7662 52.3244 55.7331 52.2921C55.8656 52.2437 55.8989 52.0819 55.9762 51.9204C55.9762 51.9527 56.0203 51.9205 56.0203 51.9527ZM86.1828 82.639C86.1718 82.7197 86.249 82.7681 86.2601 82.8004C86.249 82.8004 86.249 82.8327 86.227 82.8327C86.227 82.7681 86.1497 82.7197 86.1828 82.639ZM116.887 74.636C116.876 74.636 116.865 74.636 116.842 74.636C116.865 74.636 116.865 74.5872 116.876 74.5549C116.876 74.5872 116.887 74.5872 116.887 74.636ZM53.6773 74.636C53.7214 74.6844 53.7545 74.7167 53.7769 74.749C53.6993 74.7974 53.6111 74.8459 53.5335 74.8786C53.5666 74.749 53.6331 74.749 53.6773 74.636ZM82.5464 96.268C82.5023 96.3003 82.4471 96.2196 82.4027 96.268C82.414 96.1712 82.4471 96.2196 82.4582 96.1389C82.5023 96.1712 82.5133 96.2196 82.5464 96.268ZM119.031 97.109C119.02 97.0279 119.064 96.9795 119.042 96.9472C119.097 96.9149 119.141 96.8177 119.197 96.7854C119.141 96.8665 119.086 96.9795 119.031 97.109ZM118.224 100.617C118.268 101.038 118.434 101.442 118.534 101.83C118.279 101.798 118.014 101.798 117.826 101.345C117.915 101.102 118.091 100.876 118.224 100.617ZM115.13 112.597C115.141 112.468 115.196 112.436 115.229 112.387C115.196 112.436 115.163 112.5 115.13 112.597ZM119.517 105.241C119.451 105.144 119.418 105.063 119.362 104.999C119.385 104.95 119.374 104.869 119.418 104.837C119.418 104.788 119.418 104.788 119.418 104.74C119.473 104.837 119.473 104.999 119.551 105.063C119.617 105.144 119.683 105.273 119.76 105.354C119.683 105.306 119.606 105.273 119.517 105.241ZM40.2705 41.6055C39.8947 41.7023 39.9609 41.9448 40.2484 41.5732C40.2484 41.5732 40.3259 41.5409 40.4363 41.4436C40.4584 41.4925 40.3921 41.4925 40.4142 41.5409C40.3921 41.5732 40.359 41.5732 40.2705 41.6055ZM19.8345 42.6241C19.7459 42.6241 19.6797 42.5918 19.6243 42.4945C19.6908 42.5918 19.768 42.5918 19.8345 42.6241ZM96.2738 122.621V122.573C96.5058 122.411 96.7268 122.25 96.9591 122.088C96.6606 122.039 96.4396 122.25 96.2738 122.621ZM113.847 92.6303C113.781 92.5819 113.836 92.5012 113.792 92.4689C113.88 92.3716 113.991 92.4201 114.068 92.3071C114.091 92.2587 114.146 92.2102 114.179 92.1775C114.08 92.3071 113.969 92.5012 113.847 92.6626C113.847 92.6626 113.847 92.6626 113.847 92.6303ZM119.152 115.863C119.152 115.815 119.141 115.815 119.141 115.815H119.152V115.863ZM85.5858 124.222C85.5527 124.222 85.5527 124.271 85.5306 124.271C85.5306 124.222 85.5417 124.189 85.5417 124.189C85.5527 124.189 85.5858 124.189 85.5858 124.222ZM89.5207 24.112C89.5428 24.1931 89.5318 24.2738 89.5538 24.3545C89.5318 24.3545 89.4987 24.3545 89.4653 24.3545C89.4653 24.2738 89.4987 24.1931 89.5207 24.112ZM126.768 109.154C126.69 109.234 126.679 109.396 126.657 109.526C126.768 109.396 126.657 109.202 126.723 109.073C126.723 109.105 126.768 109.105 126.768 109.154ZM235.226 54.4266C235.182 54.4266 235.138 54.4266 235.083 54.4266C235.182 54.3454 235.26 54.2647 235.359 54.184C235.326 54.3132 235.248 54.3131 235.226 54.4266ZM96.108 15.5432C96.0969 15.5432 96.108 15.5432 96.0969 15.5432H96.108ZM101.568 135.297C101.28 135.394 101.037 135.264 100.739 135.555C101.203 135.426 101.678 135.184 102.076 134.246C101.855 134.666 101.745 134.941 101.568 135.297ZM114.964 141.489L114.953 141.457C114.941 141.408 114.964 141.408 114.941 141.36C114.975 141.36 115.008 141.327 115.052 141.279C115.019 141.36 114.975 141.408 114.953 141.457H114.964V141.489ZM128.746 131.95C128.669 131.982 128.647 132.079 128.569 132.112C128.603 132.031 128.647 131.918 128.669 131.821C128.691 131.918 128.724 131.869 128.746 131.95ZM179.002 41.4113C179.09 41.4113 179.179 41.3791 179.278 41.3791C179.168 41.2822 179.09 41.4436 178.991 41.4113H179.002ZM154.068 144.916C154.134 145.046 154.123 145.127 154.289 144.916C154.145 145.175 153.935 145.288 153.78 145.483C153.846 145.321 153.924 145.207 153.968 145.014C154.012 144.965 154.046 144.884 154.068 144.916ZM82.0603 10.8062C82.0603 10.8062 82.0603 10.8546 82.0714 10.8546C81.9166 11.6145 81.7508 12.6654 81.6622 12.6654C81.585 12.6654 81.5408 12.7623 81.4744 12.7623C81.7839 12.2776 82.1817 11.9055 82.0603 10.8062ZM247.892 64.9352C248.246 64.4986 247.926 64.0462 247.87 63.6095C248.025 64.0139 248.125 64.4502 247.892 64.9352ZM158.732 43.5942C158.71 43.7072 158.809 43.8041 158.754 43.869C158.632 43.6426 158.444 43.6749 158.323 43.5131C158.455 43.5131 158.632 43.6426 158.732 43.5942ZM99.8989 10.4018C99.8989 10.4018 99.9099 10.4507 99.9212 10.4507C99.9099 10.4507 99.9099 10.4507 99.9099 10.4507C99.9099 10.4507 99.9212 10.4507 99.9212 10.4991H99.9323C99.9433 10.4991 99.9764 10.4991 99.9985 10.5314C99.9764 10.5314 99.9654 10.4991 99.9323 10.4991C99.9212 10.4991 99.9099 10.4507 99.8989 10.4507C99.8989 10.4507 99.8989 10.4507 99.9099 10.4507C99.9099 10.4018 99.8989 10.4507 99.8989 10.4018ZM36.0484 143.995C36.0704 144.043 36.0928 144.076 36.1149 144.108C36.0818 144.108 36.0818 144.156 36.0484 144.156C36.0484 144.076 36.0373 144.043 36.0484 143.995ZM211.187 152.03C211.231 151.966 211.309 151.966 211.342 151.868C211.309 151.966 211.231 152.03 211.187 152.127C211.187 152.079 211.187 152.079 211.187 152.03ZM243.836 122.573C243.67 122.492 243.538 122.573 243.427 122.783C243.228 122.848 243.04 122.945 242.842 122.977C242.643 123.139 242.443 123.3 242.234 123.462H242.211C240.443 123.3 239.028 125.111 237.337 125.321C234.53 125.806 232.01 127.585 229.457 129.169C227.49 129.493 225.544 129.8 223.875 131.594C223.92 131.659 223.997 131.707 224.041 131.789C224.03 131.789 224.019 131.789 223.997 131.789L223.875 131.594C223.555 131.627 223.223 131.707 222.892 131.756C222.273 131.627 221.565 131.821 221.156 130.867C221.223 130.77 221.289 130.705 221.366 130.608C222.759 129.072 225.246 130.253 225.865 126.744C225.865 126.744 225.986 126.776 226.042 126.809C227.92 128.345 229.18 126.162 230.629 125.16C231.004 124.885 231.391 124.594 231.778 124.319C232.861 124.351 233.657 123.462 234.464 122.621C235.613 122.136 236.928 122.039 236.961 119.501C236.973 118.822 237.514 119.453 237.813 119.582C239.404 121.118 239.194 118.887 239.515 117.804C239.968 117.997 240.366 118.693 240.907 117.884C241.515 116.995 242.223 116.268 242.886 115.492H242.897C243.284 114.602 244.102 115.346 244.532 114.602C245.041 114.085 245.594 114.327 246.135 114.376C246.378 114.247 246.434 113.681 246.776 113.762C248.313 112.759 249.849 111.74 251.385 110.738C251.883 110.479 252.391 110.237 252.877 109.914C253.032 109.849 253.441 109.477 253.054 109.105C252.866 108.911 252.557 108.992 252.313 108.96C252.391 108.022 253.065 107.828 253.397 107.165C253.562 107.1 253.761 107.052 253.916 106.939C254.447 106.486 255.165 106.163 254.966 104.999C254.756 103.737 253.994 104.093 253.397 104.061C253.22 104.028 253.043 104.061 252.866 104.061C252.877 104.028 252.888 104.028 252.888 104.028L252.866 104.061C252.877 103.252 252.877 102.444 252.888 101.668C253.22 101.603 253.43 101.345 253.386 100.827C253.231 100.068 252.811 99.9707 252.38 99.938C252.17 99.7281 251.982 99.5017 251.794 99.2108C251.485 99.4533 251.164 99.6959 250.844 99.8896C250.346 99.0167 250.258 97.8685 250.169 96.7854C250.125 96.7854 250.081 96.7531 250.048 96.7047C250.059 96.7047 250.048 96.7047 250.059 96.6562L250.169 96.7854C250.634 96.3003 250.733 95.6538 250.567 94.8939C250.733 93.843 250.899 92.7922 251.065 91.7413C251.098 89.8821 251.451 87.8449 251.053 86.2444C250.512 83.9808 251.772 81.6688 250.678 79.6478C250.645 78.8395 250.623 77.9989 250.601 77.174C250.424 76.8992 250.446 76.6566 250.645 76.4468C250.91 75.6869 251.142 74.9593 250.291 74.6844C249.915 74.5549 249.064 74.9593 249.274 74.1025C249.783 71.9358 248.324 72.324 247.892 71.483C247.992 70.303 247.76 69.1387 248.147 67.9264C249.042 65.2262 249.197 62.187 249.617 59.2765C249.716 58.4682 250.059 57.4173 248.942 57.8217C248.412 56.609 249.904 56.4149 249.517 55.2672L249.562 55.2026C249.97 54.5073 249.683 53.6178 249.926 52.8906C250.291 50.74 250.004 48.6867 249.595 46.6173C250.379 45.34 250.954 43.9659 250.413 42.1712C250.335 41.8964 250.236 41.6055 250.158 41.3791C250.18 38.8245 250.224 36.27 250.213 33.732C250.213 33.5702 249.783 33.4084 249.562 33.2469C249.352 31.355 249.141 29.4958 248.942 27.5882C248.744 24.7589 247.506 27.1031 246.82 26.6181C246.688 26.133 246.577 25.2762 246.412 25.244C244.046 25.0014 241.604 24.0313 239.471 26.5858C238.332 26.9413 237.183 27.4264 236.011 27.7012C232.762 28.445 229.733 31.4362 226.252 29.9325C225.644 29.043 225.069 29.1726 224.527 30.0455C224.328 29.9809 224.152 29.9325 223.953 29.8841C223.787 29.7222 223.632 29.5281 223.488 29.3344C223.267 28.7198 223.035 28.154 222.814 27.5398C223.765 26.02 222.516 24.3545 222.936 22.7863C223.887 21.4444 222.615 20.0703 222.991 18.7285C223.267 18.5344 223.356 18.1623 223.278 17.7745C223.433 16.6263 223.046 16.1901 222.35 16.109C221.134 13.8458 219.554 12.6654 218.228 13.5222C216.702 14.46 215.199 16.109 213.596 15.9798C212.027 15.9153 210.878 18.5344 209.242 17.0791C209.065 16.9177 208.855 17.1925 208.888 17.4512C209.231 20.151 207.683 19.7467 206.722 20.264C206.733 20.2317 206.733 20.2317 206.744 20.2317C206.733 20.2317 206.7 20.2317 206.7 20.2317C207.031 19.2132 206.965 18.5021 206.103 18.2596C205.528 18.13 204.987 18.5021 204.622 19.0194C203.45 20.5877 201.936 21.2503 200.698 22.4953C199.239 23.9021 197.371 23.999 196.134 25.9227H196.145C195.979 26.2625 195.791 26.5374 195.514 26.6503C193.205 26.5858 191.447 28.7682 189.436 29.8518C189.248 29.8518 189.082 29.9325 188.949 30.0939C188.949 30.0939 188.949 30.0939 188.938 30.0939H188.949C188.131 30.6601 187.247 31.9213 186.529 31.711C184.694 31.1936 183.257 32.4059 181.721 33.2954V33.3277C181.124 33.5218 180.549 33.845 179.953 33.9419C178.991 34.0876 179.311 33.2469 179.488 32.5193C179.654 32.4386 179.831 32.4386 179.997 32.4059C181.08 31.8724 182.716 32.2768 182.318 29.3667C182.66 29.2856 183.014 29.2049 183.357 29.1726C183.965 30.288 184.705 30.1751 185.457 29.5604C186.131 29.0431 185.744 28.2832 185.578 27.5398C185.766 27.265 185.954 26.9736 186.131 26.6988C186.628 26.6504 187.314 27.1839 187.468 26.02C187.524 25.5672 187.7 24.8719 187.314 24.5486C186.882 24.1608 186.452 24.3868 186.131 25.0498C185.954 25.0498 185.766 25.0821 185.589 25.1628C185.413 25.4054 185.214 25.6963 185.037 25.9227V25.9716C184.849 26.2137 184.65 26.4889 184.451 26.6988C182.13 26.6504 180.262 28.3966 178.339 29.9809C177.455 30.0939 176.703 30.6601 176.062 31.5492C175.896 31.5492 175.73 31.5976 175.576 31.6299C175.012 31.824 174.481 32.8426 173.907 32.1472C173.431 31.5976 174.04 30.7731 173.984 30.0939C174.537 29.2372 174.957 28.2832 175.94 28.1863C176.637 28.1863 177.3 27.6366 177.775 26.7476C177.974 26.4889 178.184 26.2137 178.383 25.9716C178.56 26.02 178.737 25.9716 178.903 25.9227C180.229 25.5349 181.544 25.0821 182.483 23.5462C180.991 23.6269 179.544 23.7403 178.328 25.0498C178.14 25.3247 177.963 25.5995 177.786 25.9227C177.322 25.8904 176.869 25.9716 176.67 26.7476C174.415 26.4239 172.525 27.9922 170.812 29.69C169.751 30.7408 168.712 31.1452 167.739 30.5467C166.513 29.8191 165.617 30.3853 164.634 31.1452C163.573 31.9535 162.545 32.8749 161.661 34.0553C160.555 33.9741 159.638 34.5403 158.875 35.6719C158.09 35.5101 157.173 36.0763 156.587 34.8313C156.587 34.8313 156.587 34.8313 156.576 34.8313H156.587C157.715 33.1981 159.34 32.9721 160.578 31.6626C162.987 30.0132 165.407 28.3965 167.828 26.7799C169.784 26.3755 169.784 26.3755 169.486 23.5462C169.784 23.6757 170.127 24.112 170.414 23.6269C170.646 23.2229 170.602 22.6248 170.315 22.2528C169.994 21.8488 169.696 22.0914 169.464 22.576C168.182 23.1745 166.899 23.7887 165.628 24.4356C164.678 24.3222 163.96 24.953 163.307 25.8582C163.142 25.8582 162.987 25.8582 162.821 25.8582C162.423 25.4865 162.047 25.4865 161.672 25.9227C161.329 26.9736 160.765 27.5398 159.981 27.6367C159.605 27.3457 159.24 26.6504 158.831 27.5398C158.721 27.8631 158.721 28.154 158.842 28.445L158.831 28.4773C158.842 28.6714 158.853 28.9139 158.875 29.1726C158.732 29.5281 158.5 29.7222 158.29 29.9809C157.847 29.7707 157.24 29.2049 157.018 29.4474C155.051 31.5007 152.189 30.175 150.442 33.1658C150.298 33.4084 149.746 33.2469 149.381 33.2469C149.337 32.6323 149.37 31.824 148.696 32.2445C147.9 32.7619 147.16 33.4084 146.386 34.023C147.016 34.023 147.646 34.0553 148.276 34.0553C148.287 34.023 148.331 34.0553 148.364 34.023C148.398 34.2167 148.541 34.2167 148.63 34.3462C148.508 34.3462 148.376 34.3785 148.276 34.0553C147.657 33.4084 147.016 33.732 146.386 34.023C145.999 34.0553 145.679 34.1844 145.579 34.8313C145.159 34.9927 144.728 35.1546 144.297 35.2676H144.076L143.988 35.5912C143.092 35.8338 142.296 36.3673 141.6 37.2079C141.589 37.2079 141.589 37.2079 141.589 37.2079C140.606 36.9976 139.71 37.3697 138.87 38.0969C138.671 37.8544 138.484 37.6123 138.284 37.3697C138.296 36.8035 138.296 36.2377 138.296 35.6719C138.284 35.6719 138.284 35.6719 138.284 35.6719H138.296C138.848 33.8934 138.605 32.9721 137.135 33.2469C137.411 32.6807 137.831 32.4709 138.284 32.4386C139.069 31.8724 138.804 30.8215 138.826 29.9325C138.484 28.8005 137.82 29.2049 137.235 29.2856C136.671 29.2372 136.107 29.2372 135.532 29.2049L135.521 29.2372C135.521 29.2049 135.532 29.2372 135.532 29.2049C135.356 29.0108 135.179 28.7682 135.002 28.5584C135.963 28.0245 137.124 28.3481 138.163 27.265C137.179 26.2137 136.383 25.8582 135.477 26.7476C134.936 26.5858 134.063 27.1031 134.295 25.3731C134.416 24.484 134.449 23.4978 134.394 22.576C134.25 20.6361 133.466 21.4444 132.802 21.8488C131.907 20.5554 131.531 21.687 131.111 22.6248C130.924 23.1745 130.714 23.708 130.515 24.2254C129.84 24.2254 129.122 24.6782 129.265 22.8185C129.343 21.8 128.669 22.576 128.326 22.6571C128.138 22.6894 127.939 22.7378 127.74 22.7863C125.386 24.1608 123.176 26.2137 120.49 26.1814C120.114 26.133 119.76 26.0846 119.396 26.0523C119.374 25.729 119.362 25.4054 119.329 25.0821C119.152 25.0821 118.987 25.1144 118.81 25.1628C118.821 25.0498 118.81 24.953 118.81 24.8719C118.976 25.0014 119.108 25.244 119.329 25.0821C119.396 24.4356 119.318 23.7403 119.783 23.3359C120.401 23.3847 121.219 23.4977 121.164 22.3662C121.142 21.5251 120.357 21.9295 119.871 22.0102H119.827C120.048 20.5554 120.501 19.2131 121.164 18.13C121.518 17.5158 122.015 16.7559 122.534 17.5158C123.905 19.5852 124.966 17.8068 126.127 17.0791C126.469 16.109 127 15.7857 127.718 16.109C127.928 15.8664 128.116 15.6243 128.315 15.3818C128.724 15.2522 129.387 15.3491 129.509 15.0258C129.763 14.3309 129.254 13.9749 128.857 13.7163C128.857 13.6517 128.779 13.5549 128.658 13.5222C128.614 13.4899 128.569 13.5549 128.547 13.6033C128.16 13.0859 127.707 12.9241 127.188 12.9241C126.381 12.9564 125.629 12.9564 124.867 13.7647C123.85 14.8644 122.557 15.1877 121.286 15.3006C119.683 15.5109 120.755 14.0395 120.645 12.3099C119.683 14.5246 118.113 12.7138 117.218 14.6541C116.312 14.8156 115.395 15.0258 114.477 15.2199C113.969 12.9241 112.775 13.5221 111.659 13.8135C111.471 13.5221 111.261 13.2796 111.073 12.9886C111.007 12.9241 110.941 12.8272 110.874 12.7623C110.963 12.7138 111.029 12.6654 111.095 12.6331L111.073 12.9886C111.261 12.7138 111.438 12.439 111.637 12.148C112.057 11.8248 112.587 11.4204 112.399 10.7739C112.234 10.1754 111.593 10.3695 111.15 10.3373C111.04 9.96559 110.852 9.72305 110.543 9.72305C109.714 8.0737 108.763 6.73187 107.183 7.13625C107.172 6.89371 107.16 6.60273 107.16 6.37633C106.497 6.16607 106.52 5.51917 106.641 4.79196C106.818 4.51714 106.972 4.22575 107.172 3.98363C107.503 3.62768 108.089 3.30443 107.868 2.64137C107.669 1.99488 107.072 2.36656 106.652 2.36656C106.188 3.09418 105.403 2.41498 104.983 3.20758C104.353 2.77093 103.789 2.44768 103.867 4.01591H103.889C103.679 4.01591 103.48 3.98363 103.281 3.98363C103.193 3.57926 103.104 3.49856 103.06 3.78952C103.06 3.8218 103.193 3.9025 103.281 3.98363C102.905 4.46829 102.551 4.95337 102.176 5.48688C102.021 5.568 101.866 5.63257 101.701 5.681C101.446 5.84283 101.292 6.16607 101.048 6.37633L101.115 6.48932C100.916 6.48932 100.728 6.44089 100.529 6.44089C99.8658 7.26536 98.9595 6.40861 98.2742 7.16852C98.0974 7.16852 97.9095 7.16852 97.7216 7.16852C98.0091 4.71083 99.6338 5.681 100.573 4.95338C101.866 3.95094 100.352 3.69226 100.474 3.14261H100.485C100.794 2.64139 101.314 2.80321 101.612 2.31813H101.59C102.231 2.31813 102.905 2.52839 103.248 1.42909C102.839 0.507358 102.242 0.588061 101.623 0.87944C101.071 0.830601 100.496 0.749904 99.9433 0.717621C99.3907 -0.139133 98.8268 0.992444 98.2742 0.717621C98.0863 0.749904 97.8874 0.749897 97.6995 0.782181C97.5337 0.717614 97.3679 0.71761 97.1911 0.749893C95.1907 -0.462807 95.0469 -0.381679 94.3727 2.31813H94.3837C93.6322 2.69022 92.8917 0.830613 92.1513 2.36656C91.9744 2.36656 91.7976 2.41498 91.6318 2.44768C89.0013 3.369 86.7134 5.35775 84.3479 7.16852C82.9445 7.10395 81.6401 7.70202 80.4243 8.75288C79.6397 9.02771 79.0982 7.58862 78.2912 8.0737C77.8603 7.94457 77.3849 7.94456 77.1529 7.26537C76.8765 6.89369 76.6445 7.16852 76.4014 7.32994C76.6555 7.32994 76.9096 7.29765 77.1529 7.26537C77.4291 6.37633 77.8382 5.35774 76.5783 5.72942C76.1912 5.51916 75.7603 5.39002 75.5393 4.84038C75.5724 4.71083 75.6496 4.58171 75.6496 4.46831C75.6607 4.3876 75.6165 4.17734 75.5614 4.17734C73.8812 3.41743 72.6654 5.95582 71.0297 5.51917C70.433 3.65997 70.0903 3.53083 68.8635 4.84038L68.8525 4.87267C67.9683 4.95337 66.852 4.17733 66.5315 6.24678C66.3656 6.40861 66.1998 6.53775 66.012 6.65115C63.2598 6.53775 60.4858 6.24678 57.7225 6.60272C56.6505 6.37632 55.4677 7.26536 54.4953 5.72942C54.1636 5.16363 53.5004 5.568 53.1357 6.27907C51.6214 7.45948 49.7316 6.32791 48.2948 7.97685C47.8746 7.94457 47.5651 8.31623 47.1783 8.38121C47.2669 8.2678 47.4106 8.21939 47.5099 8.10599C47.6757 7.91229 48.0294 8.02528 48.2948 7.97685C47.3996 6.84528 46.4268 7.26537 45.5095 7.81502C44.9459 8.15482 44.4926 8.91472 43.7852 8.70447C42.4257 8.1871 40.7017 8.91472 39.8947 6.40862C39.3973 5.72942 38.6679 6.3279 38.1705 5.63257C38.0047 5.68099 37.8388 5.681 37.6733 5.681C37.5406 3.46627 36.3689 4.11277 35.4737 3.95094C34.899 2.9812 34.3244 2.85164 33.7715 3.98363C31.1189 5.43845 28.3559 6.48932 25.9685 8.80132L25.9574 8.8336C23.3379 10.1754 20.8511 11.8732 18.7514 14.5246C17.9996 14.9774 18.0661 16.2385 17.6128 16.95H17.5907C16.8061 17.6449 15.8444 18.0009 15.4355 19.4234C15.6124 19.9892 15.8113 20.5227 15.9881 21.0889C15.6345 21.4767 15.3028 21.8972 15.4135 22.6571L15.3801 22.6248C15.5903 22.1236 15.7782 21.6063 15.9881 21.0889C15.1481 21.0401 14.5955 21.6063 14.3304 22.7863C13.7554 24.1608 12.8712 25.1628 12.1197 26.3271C10.0638 29.69 8.04134 33.1335 6.01885 36.5287C5.97442 36.9653 5.95236 37.4504 5.90822 37.8871C5.21189 38.4206 4.92442 39.3096 4.78096 40.3605C4.40493 40.6837 3.77504 40.9263 3.66452 41.3791C2.93506 44.3214 1.36559 46.7145 1.37665 50.1904C1.38769 53.052 1.13349 53.052 3.21135 52.0496C3.8082 51.9527 4.42728 52.0496 4.91338 51.3547C4.83614 51.2413 4.78096 51.1121 4.71447 50.9826C4.75861 50.9503 4.80303 50.9503 4.8251 50.9503C4.85821 51.0798 4.88028 51.2413 4.91338 51.3547C5.02401 51.3547 5.13464 51.3058 5.25603 51.2735C5.45494 51.5972 5.65385 51.8882 5.86408 52.163C5.5435 53.2623 4.88028 54.0545 4.85821 55.4286C4.75861 60.4085 3.43242 64.8545 1.82979 69.0903C0.116644 73.6658 -0.0380716 78.5162 0.00612441 83.4958C0.00612441 84.6596 0.746648 85.5814 1.24401 84.8214C2.49296 82.9623 4.67033 83.1725 5.46597 80.5046C6.75932 80.0195 7.80932 78.5162 9.24612 78.3867C9.87595 78.3221 10.3844 77.5461 10.473 76.4468C11.6444 74.5226 13.2914 74.5549 14.8165 74.0214C14.8275 75.6058 14.8496 77.2228 14.8496 78.8072C14.7944 79.0013 14.7723 79.195 14.7944 79.4376C14.4186 81.0708 13.5565 81.9921 12.6171 82.8815L12.5065 82.7681C11.4234 82.8815 10.7602 83.9324 10.6388 85.3065C10.4285 87.8933 9.95348 90.642 10.5061 93.1477C11.0697 95.7345 10.7602 97.8362 9.77664 99.8896C9.25715 100.989 9.17963 102.153 9.75457 103.252C9.78767 103.495 9.84285 103.737 9.89802 103.98C9.23508 105.241 9.38986 106.648 9.54434 108.054C8.94761 109.428 8.46123 110.932 8.70456 112.63C8.89244 113.875 8.57186 115.055 8.39502 116.235C7.88657 117.722 8.30646 119.016 8.80388 120.309C8.616 121.926 8.62703 123.543 8.8483 125.16C8.82594 125.725 8.79284 126.259 8.78181 126.809C8.12962 128.393 9.42296 128.684 9.72118 129.654C10.495 132.144 11.5009 132.758 13.1035 131.707C14.3966 130.867 15.7672 130.867 17.1154 130.446C17.7455 130.253 18.3533 130.123 18.7955 129.331C17.9113 128.118 17.0492 128.393 16.187 129.363C17.0492 129.169 17.9223 128.959 18.7955 129.331C18.9613 129.331 19.1382 129.282 19.2929 129.169C24.0232 129.8 28.3559 127.698 32.6443 125.24C33.0755 125.24 33.5505 125.321 33.849 124.723C34.4458 123.511 34.7663 123.834 34.9763 125.079C35.0428 125.434 35.2527 125.758 35.3854 126.098L35.33 126.421L35.3854 126.744C34.6447 128.797 35.0207 131.061 34.8326 133.243C33.8932 134.731 34.8105 136.558 34.4127 138.142C34.3685 138.465 34.3354 138.74 34.3134 139.064C34.4237 142.055 33.6612 145.127 34.7332 148.037C34.5012 149.007 34.0811 149.977 34.5454 151.028C35.2307 152.564 35.927 154.051 36.6123 155.555C36.8112 155.959 37.1538 155.927 37.3527 155.716C38.1705 154.876 39.0991 156.201 39.9058 155.361C41.1105 154.714 42.1385 156.201 43.3764 155.83C46.6809 154.94 50.0522 154.746 53.3457 153.663C54.3295 153.34 55.335 153.291 56.0648 152.127C56.2637 152.127 56.4295 152.03 56.5729 151.836C57.634 151.966 58.7505 152.321 59.3031 150.381L59.3472 150.349C60.4082 150.252 62.0108 150.705 62.4087 149.896C63.105 148.489 64.3429 149.33 64.8293 147.956C65.0502 147.439 65.2605 146.857 65.4814 146.339C66.8631 147.067 68.2334 147.843 69.626 146.291C69.7808 146.097 70.1455 146.339 70.4219 146.388L70.5988 146.177C70.5988 146.226 70.6209 146.226 70.6209 146.226C70.5544 146.259 70.4771 146.339 70.4219 146.388C70.4109 147.18 70.3999 148.004 70.3888 148.813C70.3555 154.261 73.1628 157.139 76.5559 156.153C77.164 156.8 77.1419 156.088 77.2081 155.555C77.7717 156.121 78.2581 156.735 79.0427 157.01C80.9993 157.786 82.5685 155.878 84.3813 155.991C86.0391 157.624 87.7079 156.977 89.388 156.121C90.0182 156.121 90.7032 156.444 91.1233 155.393C92.6263 154.342 94.4943 154.391 95.5664 152.079C95.4889 152.03 95.3896 151.966 95.3121 151.868C95.3234 151.836 95.3234 151.755 95.3344 151.707C95.4227 151.836 95.5002 151.966 95.5664 152.079C96.0307 152.515 96.4617 152.968 96.948 153.34C98.8047 154.714 101.479 153.776 102.817 151.303C103.082 151.351 103.524 151.513 103.579 151.399C104.165 149.896 105.182 148.878 105.569 147.228C105.757 147.228 105.922 147.18 106.088 147.148C106.254 147.439 106.42 147.665 106.586 147.907C106.431 148.764 106.276 149.605 106.133 150.43C105.624 150.818 105.801 151.303 106.188 151.432C106.685 151.594 106.652 150.947 106.663 150.43C107.205 150.43 107.757 150.381 108.288 150.349C108.818 151.432 108.653 152.564 108.586 153.776C108.443 156.04 108.454 158.303 108.354 160.534C108.277 161.86 108.432 162.911 109.426 163.315C109.526 163.525 109.658 163.59 109.835 163.59C110.509 164.56 111.04 163.525 111.626 163.364C113.46 164.043 115.052 162.959 116.621 161.86C116.82 161.812 117.008 161.779 117.196 161.747C117.837 160.809 118.644 161.052 119.418 161.1C119.606 160.971 119.805 160.89 120.015 160.809C120.357 160.486 120.799 160.599 121.142 160.244C121.949 160.373 122.689 160.211 123.352 159.516C125.452 158.626 127.575 157.85 129.387 155.991C129.973 155.716 130.658 156.153 131.133 155.361C131.1 155.312 131.056 155.231 131.034 155.199C131.034 155.199 131.034 155.199 131.045 155.199L131.133 155.361C131.354 155.102 131.576 154.908 131.797 154.666L131.631 154.423H131.642C131.686 154.504 131.741 154.585 131.797 154.666C132.36 154.504 132.957 154.455 133.344 153.695C133.808 153.404 133.908 152.806 134.018 152.192C136.384 153.178 138.185 151.303 140.053 149.734C141.689 148.926 143.347 148.198 144.872 146.986C146.298 145.854 147.79 145.967 149.282 146.63C149.215 148.441 148.199 148.393 147.558 149.039C146.706 149.977 145.292 150.818 145.623 152.515C145.966 154.342 145.413 155.199 144.872 156.412C144.176 157.98 144.485 159.791 144.993 161.213C145.391 162.313 146.441 161.779 147.193 161.375C147.955 160.971 148.873 161.213 149.514 160.276C151.348 159.597 153.161 158.901 154.985 158.222C155.029 158.061 154.963 157.899 154.919 157.786C154.93 157.786 154.952 157.786 154.963 157.786C154.963 157.786 154.985 157.737 155.018 157.689L154.963 157.786C154.963 157.948 154.974 158.061 154.985 158.222C155.283 158.303 155.504 158.19 155.67 157.818C156.002 157.689 156.333 157.576 156.676 157.495C159.207 157.042 161.605 155.991 163.893 154.391C164.368 154.455 164.822 154.423 165.164 153.825C165.33 153.889 165.463 153.825 165.573 153.663C166.347 153.825 166.966 153.243 167.673 152.935C170.923 151.399 174.095 149.411 177.543 148.716C178.615 148.489 179.732 148.118 180.704 147.439C181.743 146.695 182.826 146.695 183.843 146.259C186.849 144.884 190.121 144.852 192.906 142.329C194.453 142.265 196.067 142.62 197.327 140.794C197.338 140.794 197.338 140.794 197.338 140.794L197.327 140.842C198.51 141.457 199.361 141.117 199.615 139.096C201.416 140.761 202.942 139.032 204.544 138.256C205.672 138.498 206.567 137.883 207.286 136.671H207.297C208.579 137.318 209.839 135.555 211.121 136.509C211.121 136.558 211.143 136.606 211.143 136.606L211.176 136.509C210.977 137.091 210.778 137.609 210.568 138.142C210.281 138.692 209.772 138.579 209.419 138.934C207.462 140.001 205.462 140.923 203.55 142.168C202.588 142.782 201.063 142.993 201.361 145.531C201.273 145.773 201.195 146.016 201.107 146.259C200.046 146.63 199.007 147.148 198.222 148.231C197.659 149.039 197.747 150.09 198.62 150.252C200.157 150.591 201.704 150.705 202.931 148.845C203.649 148.651 204.434 148.975 205.075 148.198C205.329 147.503 205.716 147.471 206.169 147.762C207.739 147.39 209.275 146.743 210.69 145.644C212.093 145.612 213.331 144.884 214.492 143.833C214.68 143.801 214.868 143.752 215.045 143.704C216.978 143.51 218.559 141.618 220.482 141.327C220.88 141.052 221.366 141.117 221.731 140.681C221.875 140.568 222.007 140.519 222.173 140.568C222.427 140.438 222.604 140.147 222.837 140.001C223.19 139.872 223.522 139.792 223.853 139.71C224.041 140.001 224.24 140.244 224.439 140.519C224.019 140.632 223.61 140.842 223.433 141.521C222.969 141.408 222.549 141.57 222.273 142.217L222.306 142.54C222.085 142.62 221.886 142.831 221.72 143.025C221.51 143.154 221.3 143.267 221.101 143.38C220.913 143.51 220.737 143.672 220.56 143.833C220.383 143.947 220.184 144.043 220.007 144.156C219.83 144.27 219.675 144.431 219.576 144.69C217.421 145.806 215.321 147.115 213.386 148.878C212.546 149.492 211.496 149.654 211.088 151.19C210.59 152.968 209.352 153.502 208.413 154.553C207.893 154.908 206.954 154.827 207.075 156.088C207.219 157.576 208.004 157.98 208.954 157.657C210.225 157.948 211.275 157.139 212.259 156.088C214.193 155.231 216.315 155.102 217.807 152.726C218.46 152.774 218.979 152.289 219.521 151.836C219.675 151.674 219.83 151.626 220.007 151.674C220.604 151.432 221.178 151.19 221.775 150.947C221.919 151.109 222.085 151.238 222.262 151.303C224.251 153.017 226.141 152.806 228.075 150.866C227.357 149.767 226.539 149.605 225.71 149.54C225.655 149.282 225.644 149.039 225.688 148.813C225.92 147.633 226.638 147.552 227.291 147.309L227.247 147.067C229.943 146.259 232.485 144.965 234.53 142.136C234.806 142.103 234.994 141.942 235.083 141.521C235.746 141.57 236.265 141.117 236.74 140.519C238.84 139.258 241.128 138.66 242.985 136.606C243.438 136.606 243.737 136.235 243.947 135.669C244.035 135.588 244.157 135.555 244.168 135.458C245.152 131.061 244.919 130.171 242.278 128.587C243.405 127.633 244.544 126.647 245.66 125.693C245.914 125.725 246.025 125.531 246.08 125.208C246.688 124.836 247.274 124.513 247.892 124.157C248.302 124.222 248.655 124.109 248.953 123.624C250.446 123.009 251.894 122.298 252.91 120.423C253.507 120.229 254.104 120.067 254.425 119.145C253.839 118.24 253.341 118.822 252.866 119.339C249.749 119.873 246.721 120.794 243.836 122.573Z" fill="#010F30"/>
</svg>
