<svg width="110" height="110" viewBox="0 0 110 110" fill="none" xmlns="http://www.w3.org/2000/svg">
<g opacity="0.4" clip-path="url(#clip0_1_14560)">
<path d="M62.6384 105.148V85.3993C62.6384 82.7197 64.657 80.5494 67.1458 80.5494C76.0267 80.5494 80.8581 70.7491 81.5287 51.4032H67.1458C64.6574 51.4032 62.6384 49.2298 62.6384 46.5533V4.853C62.6384 2.17441 64.657 0.00406878 67.1458 0.00406878H105.492C107.98 0.00406878 110 2.17678 110 4.853V46.5536C110 55.8266 109.13 64.3361 107.422 71.8514C105.667 79.5556 102.974 86.2911 99.4187 91.8727C95.7621 97.6086 91.1841 102.11 85.8199 105.244C80.415 108.399 74.1323 110 67.1439 110C64.6574 109.998 62.6384 107.826 62.6384 105.148ZM4.50647 80.5477C2.018 80.5477 0 82.7197 0 85.3956V105.148C0 107.826 2.018 109.996 4.50647 109.996C11.4913 109.996 17.7773 108.395 23.1787 105.241C28.5457 102.106 33.1231 97.609 36.7794 91.869C40.337 86.2873 43.03 79.5515 44.7846 71.8436C46.4934 64.3283 47.3616 55.8185 47.3616 46.5495V4.84893C47.3616 2.17034 45.3417 0 42.8542 0H4.50647C2.018 0 0 2.17237 0 4.84893V46.5495C0 49.2278 2.018 51.3995 4.50647 51.3995H18.6873C18.0249 70.7471 13.2632 80.5477 4.50647 80.5477Z" fill="#85B7FE"/>
</g>
<defs>
<clipPath id="clip0_1_14560">
<rect width="110" height="110" fill="white"/>
</clipPath>
</defs>
</svg>
